G04*
G04 #@! TF.GenerationSoftware,Altium Limited,Altium Designer,25.8.1 (18)*
G04*
G04 Layer_Color=16711935*
%FSLAX25Y25*%
%MOIN*%
G70*
G04*
G04 #@! TF.SameCoordinates,31BD0CA7-68FF-495C-AAF5-E67D81281D59*
G04*
G04*
G04 #@! TF.FilePolarity,Negative*
G04*
G01*
G75*
%ADD52C,0.04737*%
%ADD63R,0.04147X0.04540*%
%ADD75C,0.14087*%
%ADD76C,0.08450*%
%ADD77C,0.09855*%
%ADD78C,0.06600*%
%ADD79C,0.06312*%
%ADD80C,0.13005*%
%ADD81C,0.04993*%
%ADD82C,0.03162*%
%ADD83C,0.02572*%
G04:AMPARAMS|DCode=104|XSize=47.37mil|YSize=67.06mil|CornerRadius=10.5mil|HoleSize=0mil|Usage=FLASHONLY|Rotation=90.000|XOffset=0mil|YOffset=0mil|HoleType=Round|Shape=RoundedRectangle|*
%AMROUNDEDRECTD104*
21,1,0.04737,0.04606,0,0,90.0*
21,1,0.02638,0.06706,0,0,90.0*
1,1,0.02099,0.02303,0.01319*
1,1,0.02099,0.02303,-0.01319*
1,1,0.02099,-0.02303,-0.01319*
1,1,0.02099,-0.02303,0.01319*
%
%ADD104ROUNDEDRECTD104*%
G04:AMPARAMS|DCode=105|XSize=47.37mil|YSize=67.06mil|CornerRadius=10.5mil|HoleSize=0mil|Usage=FLASHONLY|Rotation=0.000|XOffset=0mil|YOffset=0mil|HoleType=Round|Shape=RoundedRectangle|*
%AMROUNDEDRECTD105*
21,1,0.04737,0.04606,0,0,0.0*
21,1,0.02638,0.06706,0,0,0.0*
1,1,0.02099,0.01319,-0.02303*
1,1,0.02099,-0.01319,-0.02303*
1,1,0.02099,-0.01319,0.02303*
1,1,0.02099,0.01319,0.02303*
%
%ADD105ROUNDEDRECTD105*%
D52*
X257154Y86658D02*
D03*
X257548Y80752D02*
D03*
X250461Y86658D02*
D03*
D63*
X382087Y305906D02*
D03*
X229527Y305781D02*
D03*
X539567Y305512D02*
D03*
X544685D02*
D03*
X387205Y305906D02*
D03*
X224409Y305781D02*
D03*
X66339Y305512D02*
D03*
X71457D02*
D03*
D75*
X355455Y340360D02*
D03*
X274466D02*
D03*
X598425D02*
D03*
X517435D02*
D03*
X436445D02*
D03*
X193476D02*
D03*
X112484D02*
D03*
X31496D02*
D03*
D76*
X618425Y365400D02*
D03*
Y325400D02*
D03*
X578425D02*
D03*
Y365400D02*
D03*
X537435D02*
D03*
Y325400D02*
D03*
X497435D02*
D03*
Y365400D02*
D03*
X456445D02*
D03*
Y325400D02*
D03*
X416445D02*
D03*
Y365400D02*
D03*
X375455D02*
D03*
Y325400D02*
D03*
X335455D02*
D03*
Y365400D02*
D03*
X294466D02*
D03*
Y325400D02*
D03*
X254466D02*
D03*
Y365400D02*
D03*
X213476D02*
D03*
Y325400D02*
D03*
X173476D02*
D03*
Y365400D02*
D03*
X92484D02*
D03*
Y325400D02*
D03*
X132484D02*
D03*
Y365400D02*
D03*
X11496D02*
D03*
Y325400D02*
D03*
X51496D02*
D03*
Y365400D02*
D03*
D77*
X355413Y8071D02*
D03*
X416339D02*
D03*
D78*
X39555Y16185D02*
D03*
X49556D02*
D03*
D79*
X373406Y54852D02*
D03*
X368406Y44852D02*
D03*
X388405D02*
D03*
X383405Y54852D02*
D03*
X393406D02*
D03*
X378405Y44852D02*
D03*
X403406Y54852D02*
D03*
X398406Y44852D02*
D03*
D80*
X13780Y218504D02*
D03*
X616142Y13780D02*
D03*
Y218504D02*
D03*
X13780Y13780D02*
D03*
D81*
X408425Y19852D02*
D03*
X363425D02*
D03*
D82*
X514629Y224995D02*
D03*
X356362Y225782D02*
D03*
X198881D02*
D03*
X106506Y224945D02*
D03*
X264380D02*
D03*
X421860D02*
D03*
X579734Y224551D02*
D03*
X590551Y143307D02*
D03*
X514173D02*
D03*
X433071Y144488D02*
D03*
X356693D02*
D03*
X199213Y144095D02*
D03*
X275590D02*
D03*
X523228Y189370D02*
D03*
X522783Y203543D02*
D03*
X366929Y190945D02*
D03*
X366483Y205118D02*
D03*
X209842Y188583D02*
D03*
X209397Y202755D02*
D03*
X198819Y210630D02*
D03*
X356299Y211024D02*
D03*
X514173Y210630D02*
D03*
X56299Y269291D02*
D03*
X214173Y269685D02*
D03*
X529528Y269291D02*
D03*
X372441Y269685D02*
D03*
X229134Y310630D02*
D03*
X387008Y311024D02*
D03*
X382087Y310755D02*
D03*
X564567Y277953D02*
D03*
X407087Y278346D02*
D03*
X249606Y278740D02*
D03*
X91339D02*
D03*
X545079Y310361D02*
D03*
X539567D02*
D03*
X71851D02*
D03*
X66339D02*
D03*
X224410Y310630D02*
D03*
X243307Y164173D02*
D03*
X401968Y164567D02*
D03*
X559055Y164173D02*
D03*
X394625Y193862D02*
D03*
X237145D02*
D03*
X563639Y169783D02*
D03*
X569685Y167323D02*
D03*
X552360Y194095D02*
D03*
X557930Y168870D02*
D03*
X546850Y194095D02*
D03*
X551642Y174846D02*
D03*
X550067Y169335D02*
D03*
X564241Y202012D02*
D03*
X544488Y225984D02*
D03*
X530709Y230315D02*
D03*
X549998Y223016D02*
D03*
X528282Y210423D02*
D03*
X559449Y274803D02*
D03*
X569685D02*
D03*
X389370Y193307D02*
D03*
X398031Y172835D02*
D03*
X394162Y175240D02*
D03*
X392587Y169728D02*
D03*
X406760Y202406D02*
D03*
X387008Y226378D02*
D03*
X373228Y230709D02*
D03*
X392517Y223410D02*
D03*
X370801Y210816D02*
D03*
X401968Y275197D02*
D03*
X412205D02*
D03*
X231693Y193182D02*
D03*
X240354Y172710D02*
D03*
X236484Y175115D02*
D03*
X234909Y169603D02*
D03*
X249083Y202281D02*
D03*
X229330Y226253D02*
D03*
X215551Y230584D02*
D03*
X234840Y223285D02*
D03*
X213124Y210691D02*
D03*
X244291Y275072D02*
D03*
X254527D02*
D03*
X76770Y223016D02*
D03*
X73622Y192913D02*
D03*
X82284Y172441D02*
D03*
X78414Y174846D02*
D03*
X76839Y169335D02*
D03*
X91012Y202012D02*
D03*
X71260Y225984D02*
D03*
X57480Y230315D02*
D03*
X55054Y210423D02*
D03*
X86221Y274803D02*
D03*
X96457D02*
D03*
X233138Y50831D02*
D03*
X214959Y50788D02*
D03*
X223465D02*
D03*
X206451D02*
D03*
X198662D02*
D03*
X190001D02*
D03*
X564567Y224803D02*
D03*
X407480Y225590D02*
D03*
X249606Y224803D02*
D03*
X238032Y78741D02*
D03*
X199674Y78390D02*
D03*
Y72615D02*
D03*
X177196Y82952D02*
D03*
X157548Y77602D02*
D03*
X177233Y72878D02*
D03*
X149674Y75634D02*
D03*
X243150Y66142D02*
D03*
X273859Y56693D02*
D03*
X243150Y71260D02*
D03*
X199674Y61067D02*
D03*
Y66841D02*
D03*
X242757Y60237D02*
D03*
Y56693D02*
D03*
X258899Y38583D02*
D03*
X253781D02*
D03*
X222678Y33465D02*
D03*
X227984Y9724D02*
D03*
X205664Y33465D02*
D03*
X214171D02*
D03*
X197875D02*
D03*
X176516Y60956D02*
D03*
X172103Y56913D02*
D03*
X176516Y53279D02*
D03*
X167855D02*
D03*
Y60956D02*
D03*
X150818Y58149D02*
D03*
X174170Y42563D02*
D03*
X170626D02*
D03*
X189214Y33465D02*
D03*
X182745Y38232D02*
D03*
X160303Y35476D02*
D03*
X159516Y26421D02*
D03*
X154792Y31539D02*
D03*
X149213Y22835D02*
D03*
X159516Y21303D02*
D03*
X154129Y9762D02*
D03*
X91339Y225590D02*
D03*
X92913Y151969D02*
D03*
X89309Y163823D02*
D03*
X117186Y144332D02*
D03*
X115815Y68941D02*
D03*
X108335D02*
D03*
X112666D02*
D03*
X128020D02*
D03*
X131170D02*
D03*
X120540D02*
D03*
X123689D02*
D03*
X80323Y96019D02*
D03*
Y91689D02*
D03*
Y107092D02*
D03*
Y102761D02*
D03*
X94555Y72091D02*
D03*
X105185Y68941D02*
D03*
X79134Y192913D02*
D03*
X52429Y204374D02*
D03*
X64567Y151969D02*
D03*
X52875Y190201D02*
D03*
X40945Y210630D02*
D03*
X41732Y224410D02*
D03*
X42587Y143744D02*
D03*
X25606Y93646D02*
D03*
X31118D02*
D03*
X76051Y80752D02*
D03*
X29989Y72091D02*
D03*
X60638Y65704D02*
D03*
X16996Y88626D02*
D03*
X17390Y78784D02*
D03*
X24477Y72091D02*
D03*
X23355Y65583D02*
D03*
X146130Y63823D02*
D03*
X99637Y49487D02*
D03*
X96918Y43744D02*
D03*
Y39413D02*
D03*
X139831Y35476D02*
D03*
X145343Y31539D02*
D03*
X101642Y11461D02*
D03*
X129558Y5787D02*
D03*
X118141Y9724D02*
D03*
X96918Y21599D02*
D03*
Y32671D02*
D03*
Y28341D02*
D03*
Y17268D02*
D03*
X87329Y5738D02*
D03*
X72114Y51618D02*
D03*
X60638Y61374D02*
D03*
X60638Y54582D02*
D03*
Y50252D02*
D03*
Y43509D02*
D03*
X23355Y61252D02*
D03*
Y54510D02*
D03*
Y50180D02*
D03*
X71653Y35039D02*
D03*
X60638Y39179D02*
D03*
Y32437D02*
D03*
Y28106D02*
D03*
X23355Y43438D02*
D03*
Y39107D02*
D03*
X23355Y32315D02*
D03*
Y27985D02*
D03*
X37008Y6299D02*
D03*
X27590Y22716D02*
D03*
X252117Y61682D02*
D03*
X166209Y42169D02*
D03*
X102036Y53980D02*
D03*
X93689Y77996D02*
D03*
X72114Y56736D02*
D03*
X71721Y61067D02*
D03*
X81170Y41382D02*
D03*
X186620Y79112D02*
D03*
D83*
X89810Y60488D02*
D03*
X87555D02*
D03*
D104*
X274016Y321890D02*
D03*
Y330079D02*
D03*
X355118Y315118D02*
D03*
Y306929D02*
D03*
X355118Y321890D02*
D03*
Y330079D02*
D03*
Y292362D02*
D03*
Y300551D02*
D03*
X273902Y306494D02*
D03*
Y314683D02*
D03*
X274016Y291968D02*
D03*
Y300157D02*
D03*
X31496Y300551D02*
D03*
Y292362D02*
D03*
X112598Y321890D02*
D03*
Y330079D02*
D03*
X191732Y300157D02*
D03*
Y291968D02*
D03*
X594094Y321890D02*
D03*
Y330079D02*
D03*
X428346Y322284D02*
D03*
Y330472D02*
D03*
X513780Y291968D02*
D03*
Y300157D02*
D03*
X517323Y321890D02*
D03*
Y330079D02*
D03*
X514173Y306929D02*
D03*
Y315118D02*
D03*
X594094Y300157D02*
D03*
Y291968D02*
D03*
X594095Y306929D02*
D03*
Y315118D02*
D03*
X428232Y315076D02*
D03*
Y306887D02*
D03*
X428346Y292362D02*
D03*
Y300551D02*
D03*
X191732Y306535D02*
D03*
Y314724D02*
D03*
X191732Y321496D02*
D03*
Y329685D02*
D03*
X112598Y291968D02*
D03*
Y300157D02*
D03*
X112484Y314683D02*
D03*
Y306494D02*
D03*
X31496Y330079D02*
D03*
Y321890D02*
D03*
X31496Y306929D02*
D03*
Y315118D02*
D03*
D105*
X376929Y285039D02*
D03*
X368740D02*
D03*
X354173Y285039D02*
D03*
X362362D02*
D03*
X258504Y291732D02*
D03*
X266693D02*
D03*
X243937Y291732D02*
D03*
X252126D02*
D03*
X47008Y292520D02*
D03*
X38819D02*
D03*
X53386Y292520D02*
D03*
X61575D02*
D03*
X200157Y285039D02*
D03*
X191969D02*
D03*
X206536Y285039D02*
D03*
X214724D02*
D03*
X521811Y284646D02*
D03*
X513622D02*
D03*
X528189Y284646D02*
D03*
X536378D02*
D03*
X571811Y291732D02*
D03*
X563622D02*
D03*
X578583Y291732D02*
D03*
X586772D02*
D03*
X421024Y292126D02*
D03*
X412835D02*
D03*
X398268Y292126D02*
D03*
X406457D02*
D03*
X82520Y291732D02*
D03*
X90709D02*
D03*
X105276Y291732D02*
D03*
X97087D02*
D03*
M02*
