G04*
G04 #@! TF.GenerationSoftware,Altium Limited,Altium Designer,25.8.1 (18)*
G04*
G04 Layer_Physical_Order=2*
G04 Layer_Color=36540*
%FSLAX25Y25*%
%MOIN*%
G70*
G04*
G04 #@! TF.SameCoordinates,31BD0CA7-68FF-495C-AAF5-E67D81281D59*
G04*
G04*
G04 #@! TF.FilePolarity,Positive*
G04*
G01*
G75*
%ADD19C,0.01000*%
%ADD92C,0.09055*%
%ADD93C,0.06000*%
%ADD97C,0.02362*%
%ADD98C,0.03150*%
%ADD99C,0.01772*%
G36*
X408791Y277220D02*
X407573D01*
X407375Y277181D01*
X406798D01*
X406600Y277220D01*
X400394D01*
X400086Y277159D01*
X400031Y277122D01*
X383027D01*
X376772Y270866D01*
Y268110D01*
X370079D01*
Y279633D01*
X408791D01*
Y277220D01*
D02*
G37*
G36*
X414285Y273832D02*
X400394D01*
Y276417D01*
X406600D01*
X406695Y276378D01*
X407478D01*
X407573Y276417D01*
X414285D01*
Y273832D01*
D02*
G37*
G36*
X256299Y273228D02*
X242913D01*
Y276378D01*
X256299D01*
Y273228D01*
D02*
G37*
G36*
X98032D02*
X84646D01*
Y276378D01*
X98032D01*
Y273228D01*
D02*
G37*
G36*
X571654Y272835D02*
X558268D01*
Y275984D01*
X571654D01*
Y272835D01*
D02*
G37*
G36*
X566929Y277165D02*
X541732D01*
X535827Y271260D01*
Y267717D01*
X527559D01*
Y279528D01*
X566929D01*
Y277165D01*
D02*
G37*
G36*
X251575Y277559D02*
X226378D01*
X220472Y271654D01*
Y267717D01*
X211024D01*
Y279921D01*
X251575D01*
Y277559D01*
D02*
G37*
G36*
X93307D02*
X68110D01*
X61417Y270866D01*
Y267717D01*
X53543D01*
Y279921D01*
X93307D01*
Y277559D01*
D02*
G37*
G36*
X573622Y228783D02*
X628900D01*
Y1020D01*
X1020Y1020D01*
X1020Y228783D01*
X55973D01*
Y242957D01*
X101181D01*
Y228783D01*
X213386D01*
Y242957D01*
X258661D01*
Y228783D01*
X370866D01*
Y242957D01*
X416142D01*
Y228783D01*
X528346D01*
Y242957D01*
X573622D01*
Y228783D01*
D02*
G37*
%LPC*%
G36*
X387399Y228346D02*
X386616D01*
X385893Y228047D01*
X385339Y227493D01*
X385039Y226769D01*
Y225986D01*
X385339Y225263D01*
X385893Y224709D01*
X386616Y224410D01*
X387399D01*
X388123Y224709D01*
X388677Y225263D01*
X388976Y225986D01*
Y226769D01*
X388677Y227493D01*
X388123Y228047D01*
X387399Y228346D01*
D02*
G37*
G36*
X229722Y228222D02*
X228939D01*
X228215Y227922D01*
X227661Y227368D01*
X227362Y226644D01*
Y225861D01*
X227661Y225138D01*
X228215Y224584D01*
X228939Y224285D01*
X229722D01*
X230445Y224584D01*
X230999Y225138D01*
X231299Y225861D01*
Y226644D01*
X230999Y227368D01*
X230445Y227922D01*
X229722Y228222D01*
D02*
G37*
G36*
X544880Y227953D02*
X544097D01*
X543373Y227653D01*
X542819Y227099D01*
X542520Y226376D01*
Y225593D01*
X542819Y224869D01*
X543373Y224315D01*
X544097Y224016D01*
X544880D01*
X545603Y224315D01*
X546157Y224869D01*
X546457Y225593D01*
Y226376D01*
X546157Y227099D01*
X545603Y227653D01*
X544880Y227953D01*
D02*
G37*
G36*
X71651D02*
X70868D01*
X70145Y227653D01*
X69591Y227099D01*
X69291Y226376D01*
Y225593D01*
X69591Y224869D01*
X70145Y224315D01*
X70868Y224016D01*
X71651D01*
X72375Y224315D01*
X72929Y224869D01*
X73228Y225593D01*
Y226376D01*
X72929Y227099D01*
X72375Y227653D01*
X71651Y227953D01*
D02*
G37*
G36*
X392909Y225378D02*
X392126D01*
X391403Y225078D01*
X390849Y224524D01*
X390549Y223801D01*
Y223018D01*
X390849Y222294D01*
X391403Y221741D01*
X392126Y221441D01*
X392909D01*
X393633Y221741D01*
X394186Y222294D01*
X394486Y223018D01*
Y223801D01*
X394186Y224524D01*
X393633Y225078D01*
X392909Y225378D01*
D02*
G37*
G36*
X235231Y225253D02*
X234448D01*
X233725Y224953D01*
X233171Y224400D01*
X232871Y223676D01*
Y222893D01*
X233171Y222169D01*
X233725Y221616D01*
X234448Y221316D01*
X235231D01*
X235955Y221616D01*
X236509Y222169D01*
X236808Y222893D01*
Y223676D01*
X236509Y224400D01*
X235955Y224953D01*
X235231Y225253D01*
D02*
G37*
G36*
X550389Y224984D02*
X549606D01*
X548883Y224685D01*
X548329Y224131D01*
X548029Y223407D01*
Y222624D01*
X548329Y221901D01*
X548883Y221347D01*
X549606Y221047D01*
X550389D01*
X551113Y221347D01*
X551667Y221901D01*
X551966Y222624D01*
Y223407D01*
X551667Y224131D01*
X551113Y224685D01*
X550389Y224984D01*
D02*
G37*
G36*
X77161D02*
X76378D01*
X75654Y224685D01*
X75101Y224131D01*
X74801Y223407D01*
Y222624D01*
X75101Y221901D01*
X75654Y221347D01*
X76378Y221047D01*
X77161D01*
X77885Y221347D01*
X78438Y221901D01*
X78738Y222624D01*
Y223407D01*
X78438Y224131D01*
X77885Y224685D01*
X77161Y224984D01*
D02*
G37*
G36*
X616879Y225984D02*
X615405D01*
X613960Y225697D01*
X612599Y225133D01*
X611373Y224314D01*
X610331Y223272D01*
X609513Y222047D01*
X608949Y220686D01*
X608661Y219241D01*
Y217767D01*
X608949Y216322D01*
X609513Y214961D01*
X610331Y213736D01*
X611373Y212694D01*
X612599Y211875D01*
X613960Y211311D01*
X615405Y211024D01*
X616879D01*
X618324Y211311D01*
X619685Y211875D01*
X620910Y212694D01*
X621952Y213736D01*
X622771Y214961D01*
X623335Y216322D01*
X623622Y217767D01*
Y219241D01*
X623335Y220686D01*
X622771Y222047D01*
X621952Y223272D01*
X620910Y224314D01*
X619685Y225133D01*
X618324Y225697D01*
X616879Y225984D01*
D02*
G37*
G36*
X14516Y225984D02*
X13043D01*
X11598Y225697D01*
X10236Y225133D01*
X9011Y224314D01*
X7969Y223272D01*
X7151Y222047D01*
X6587Y220686D01*
X6299Y219241D01*
Y217767D01*
X6587Y216322D01*
X7151Y214961D01*
X7969Y213736D01*
X9011Y212694D01*
X10236Y211875D01*
X11598Y211311D01*
X13043Y211024D01*
X14516D01*
X15961Y211311D01*
X17323Y211875D01*
X18548Y212694D01*
X19590Y213736D01*
X20409Y214961D01*
X20972Y216322D01*
X21260Y217767D01*
Y219241D01*
X20972Y220686D01*
X20409Y222047D01*
X19590Y223272D01*
X18548Y224314D01*
X17323Y225133D01*
X15961Y225697D01*
X14516Y225984D01*
D02*
G37*
G36*
X371193Y212785D02*
X370410D01*
X369687Y212485D01*
X369133Y211931D01*
X368833Y211208D01*
Y210425D01*
X369133Y209701D01*
X369687Y209148D01*
X370410Y208848D01*
X371193D01*
X371917Y209148D01*
X372470Y209701D01*
X372770Y210425D01*
Y211208D01*
X372470Y211931D01*
X371917Y212485D01*
X371193Y212785D01*
D02*
G37*
G36*
X213515Y212660D02*
X212732D01*
X212009Y212360D01*
X211455Y211806D01*
X211155Y211083D01*
Y210300D01*
X211455Y209576D01*
X212009Y209023D01*
X212732Y208723D01*
X213515D01*
X214239Y209023D01*
X214793Y209576D01*
X215092Y210300D01*
Y211083D01*
X214793Y211806D01*
X214239Y212360D01*
X213515Y212660D01*
D02*
G37*
G36*
X528673Y212391D02*
X527890D01*
X527167Y212091D01*
X526613Y211538D01*
X526313Y210814D01*
Y210031D01*
X526613Y209308D01*
X527167Y208754D01*
X527890Y208454D01*
X528673D01*
X529397Y208754D01*
X529951Y209308D01*
X530250Y210031D01*
Y210814D01*
X529951Y211538D01*
X529397Y212091D01*
X528673Y212391D01*
D02*
G37*
G36*
X55445D02*
X54662D01*
X53938Y212091D01*
X53385Y211538D01*
X53085Y210814D01*
Y210031D01*
X53385Y209308D01*
X53938Y208754D01*
X54662Y208454D01*
X55445D01*
X56169Y208754D01*
X56722Y209308D01*
X57022Y210031D01*
Y210814D01*
X56722Y211538D01*
X56169Y212091D01*
X55445Y212391D01*
D02*
G37*
G36*
X407152Y204374D02*
X406369D01*
X405645Y204074D01*
X405091Y203521D01*
X404792Y202797D01*
Y202014D01*
X405091Y201290D01*
X405645Y200737D01*
X406369Y200437D01*
X407152D01*
X407875Y200737D01*
X408429Y201290D01*
X408729Y202014D01*
Y202797D01*
X408429Y203521D01*
X407875Y204074D01*
X407152Y204374D01*
D02*
G37*
G36*
X249474Y204249D02*
X248691D01*
X247968Y203949D01*
X247414Y203396D01*
X247114Y202672D01*
Y201889D01*
X247414Y201166D01*
X247968Y200612D01*
X248691Y200312D01*
X249474D01*
X250198Y200612D01*
X250751Y201166D01*
X251051Y201889D01*
Y202672D01*
X250751Y203396D01*
X250198Y203949D01*
X249474Y204249D01*
D02*
G37*
G36*
X564632Y203980D02*
X563849D01*
X563126Y203681D01*
X562572Y203127D01*
X562272Y202403D01*
Y201620D01*
X562572Y200897D01*
X563126Y200343D01*
X563849Y200043D01*
X564632D01*
X565356Y200343D01*
X565909Y200897D01*
X566209Y201620D01*
Y202403D01*
X565909Y203127D01*
X565356Y203681D01*
X564632Y203980D01*
D02*
G37*
G36*
X91404D02*
X90621D01*
X89897Y203681D01*
X89343Y203127D01*
X89044Y202403D01*
Y201620D01*
X89343Y200897D01*
X89897Y200343D01*
X90621Y200043D01*
X91404D01*
X92127Y200343D01*
X92681Y200897D01*
X92981Y201620D01*
Y202403D01*
X92681Y203127D01*
X92127Y203681D01*
X91404Y203980D01*
D02*
G37*
G36*
X547242Y196063D02*
X546459D01*
X545735Y195763D01*
X545182Y195210D01*
X544882Y194486D01*
Y193703D01*
X545182Y192979D01*
X545735Y192426D01*
X546459Y192126D01*
X547242D01*
X547965Y192426D01*
X548519Y192979D01*
X548819Y193703D01*
Y194486D01*
X548519Y195210D01*
X547965Y195763D01*
X547242Y196063D01*
D02*
G37*
G36*
X389762Y195276D02*
X388979D01*
X388255Y194976D01*
X387701Y194422D01*
X387402Y193699D01*
Y192915D01*
X387701Y192192D01*
X388255Y191638D01*
X388979Y191339D01*
X389762D01*
X390485Y191638D01*
X391039Y192192D01*
X391339Y192915D01*
Y193699D01*
X391039Y194422D01*
X390485Y194976D01*
X389762Y195276D01*
D02*
G37*
G36*
X223773Y195897D02*
Y184086D01*
X222951Y183264D01*
X212483D01*
Y172738D01*
X212483Y172190D01*
X212486Y172187D01*
X212573Y172275D01*
X212983Y172275D01*
X221017D01*
X223773Y169519D01*
Y167944D01*
X230072D01*
Y191365D01*
X230534Y191556D01*
X230577Y191513D01*
X231301Y191214D01*
X232084D01*
X232807Y191513D01*
X233361Y192067D01*
X233661Y192791D01*
Y193574D01*
X233361Y194297D01*
X232807Y194851D01*
X232084Y195151D01*
X231301D01*
X230577Y194851D01*
X230534Y194808D01*
X230072Y194999D01*
Y195897D01*
X223773D01*
X223773Y195897D01*
D02*
G37*
G36*
X74014Y194882D02*
X73230D01*
X72507Y194582D01*
X71953Y194028D01*
X71653Y193305D01*
Y192522D01*
X71953Y191798D01*
X72507Y191245D01*
X73230Y190945D01*
X74014D01*
X74737Y191245D01*
X75291Y191798D01*
X75590Y192522D01*
Y193305D01*
X75291Y194028D01*
X74737Y194582D01*
X74014Y194882D01*
D02*
G37*
G36*
X561878Y199453D02*
X561878Y199453D01*
X555579D01*
Y171500D01*
X561378D01*
X561601Y171500D01*
X561994Y171053D01*
X561973Y170917D01*
X561973Y170917D01*
X561971Y170898D01*
X561927Y170793D01*
X561671Y170174D01*
Y169391D01*
X561971Y168667D01*
X562524Y168114D01*
X563248Y167814D01*
X564031D01*
X564754Y168114D01*
X565308Y168667D01*
X565608Y169391D01*
Y170174D01*
X565308Y170898D01*
X564754Y171451D01*
X564031Y171751D01*
X563248D01*
X562576Y171473D01*
X562524Y171451D01*
X562485Y171438D01*
X562311Y171394D01*
X561894Y171716D01*
X561878Y171761D01*
X561878Y171995D01*
Y173075D01*
X564634Y175831D01*
X572669Y175831D01*
X573078Y175831D01*
X573166Y175743D01*
X573169Y175746D01*
X573169Y176293D01*
Y186820D01*
X562700D01*
X561878Y187642D01*
Y199453D01*
D02*
G37*
G36*
X406366Y198272D02*
X406366Y198272D01*
X400067D01*
Y170319D01*
X406366D01*
Y171894D01*
X409122Y174650D01*
X417157Y174650D01*
X417566Y174650D01*
X417654Y174562D01*
X417657Y174565D01*
X417657Y175112D01*
Y185639D01*
X407189D01*
X406366Y186461D01*
Y198272D01*
D02*
G37*
G36*
X394553Y177209D02*
X393770D01*
X393047Y176909D01*
X392493Y176355D01*
X392193Y175632D01*
Y174849D01*
X392493Y174125D01*
X393047Y173571D01*
X393770Y173272D01*
X394553D01*
X395277Y173571D01*
X395831Y174125D01*
X396130Y174849D01*
Y175632D01*
X395831Y176355D01*
X395277Y176909D01*
X394553Y177209D01*
D02*
G37*
G36*
X236876Y177084D02*
X236093D01*
X235369Y176784D01*
X234815Y176230D01*
X234516Y175507D01*
Y174724D01*
X234815Y174000D01*
X235369Y173446D01*
X236093Y173147D01*
X236876D01*
X237599Y173446D01*
X238153Y174000D01*
X238453Y174724D01*
Y175507D01*
X238153Y176230D01*
X237599Y176784D01*
X236876Y177084D01*
D02*
G37*
G36*
X552034Y176815D02*
X551251D01*
X550527Y176515D01*
X549973Y175962D01*
X549674Y175238D01*
Y174455D01*
X549973Y173731D01*
X550527Y173178D01*
X551251Y172878D01*
X552034D01*
X552757Y173178D01*
X553311Y173731D01*
X553611Y174455D01*
Y175238D01*
X553311Y175962D01*
X552757Y176515D01*
X552034Y176815D01*
D02*
G37*
G36*
X78805D02*
X78022D01*
X77299Y176515D01*
X76745Y175962D01*
X76445Y175238D01*
Y174455D01*
X76745Y173731D01*
X77299Y173178D01*
X78022Y172878D01*
X78805D01*
X79529Y173178D01*
X80083Y173731D01*
X80382Y174455D01*
Y175238D01*
X80083Y175962D01*
X79529Y176515D01*
X78805Y176815D01*
D02*
G37*
G36*
X254088Y195897D02*
X254088Y195897D01*
X247789D01*
Y167944D01*
X254088D01*
Y169519D01*
X256844Y172275D01*
X264879Y172275D01*
X265288Y172275D01*
X265376Y172187D01*
X265379Y172190D01*
X265379Y172738D01*
Y183264D01*
X254910D01*
X254088Y184086D01*
Y195897D01*
D02*
G37*
G36*
X94162Y195516D02*
X94162Y195516D01*
X87863D01*
Y167563D01*
X94162D01*
Y169138D01*
X96918Y171894D01*
X104952Y171894D01*
X105362Y171894D01*
X105449Y171806D01*
X105452Y171809D01*
X105452Y172356D01*
Y182883D01*
X94984D01*
X94162Y183705D01*
Y195516D01*
D02*
G37*
G36*
X531563Y199453D02*
Y187642D01*
X530741Y186820D01*
X520273D01*
Y176293D01*
X520273Y175746D01*
X520276Y175743D01*
X520364Y175831D01*
X520773Y175831D01*
X528807D01*
X531563Y173075D01*
Y171500D01*
X537863D01*
Y199453D01*
X531563D01*
X531563Y199453D01*
D02*
G37*
G36*
X561973Y170917D02*
X561957Y170864D01*
X561971Y170898D01*
X561973Y170917D01*
D02*
G37*
G36*
X376051Y198272D02*
Y186461D01*
X375230Y185639D01*
X364761D01*
Y175112D01*
X364761Y174565D01*
X364764Y174562D01*
X364852Y174650D01*
X365261Y174650D01*
X373296D01*
X376051Y171894D01*
Y170319D01*
X382351D01*
Y198272D01*
X376052D01*
X376051Y198272D01*
D02*
G37*
G36*
X392979Y171697D02*
X392195D01*
X391472Y171397D01*
X390918Y170844D01*
X390618Y170120D01*
Y169337D01*
X390918Y168613D01*
X391472Y168060D01*
X392195Y167760D01*
X392979D01*
X393702Y168060D01*
X394256Y168613D01*
X394555Y169337D01*
Y170120D01*
X394256Y170844D01*
X393702Y171397D01*
X392979Y171697D01*
D02*
G37*
G36*
X235301Y171572D02*
X234518D01*
X233794Y171272D01*
X233241Y170719D01*
X232941Y169995D01*
Y169212D01*
X233241Y168488D01*
X233794Y167935D01*
X234518Y167635D01*
X235301D01*
X236024Y167935D01*
X236578Y168488D01*
X236878Y169212D01*
Y169995D01*
X236578Y170719D01*
X236024Y171272D01*
X235301Y171572D01*
D02*
G37*
G36*
X63847Y195516D02*
Y183705D01*
X63025Y182883D01*
X52556D01*
Y172356D01*
X52556Y171809D01*
X52559Y171806D01*
X52647Y171894D01*
X53056Y171894D01*
X61091D01*
X63847Y169138D01*
Y167563D01*
X70146D01*
Y195516D01*
X63847D01*
X63847Y195516D01*
D02*
G37*
G36*
X550459Y171303D02*
X549676D01*
X548952Y171003D01*
X548398Y170450D01*
X548099Y169726D01*
Y168943D01*
X548398Y168220D01*
X548952Y167666D01*
X549676Y167366D01*
X550459D01*
X551182Y167666D01*
X551736Y168220D01*
X552036Y168943D01*
Y169726D01*
X551736Y170450D01*
X551182Y171003D01*
X550459Y171303D01*
D02*
G37*
G36*
X77231D02*
X76447D01*
X75724Y171003D01*
X75170Y170450D01*
X74871Y169726D01*
Y168943D01*
X75170Y168220D01*
X75724Y167666D01*
X76447Y167366D01*
X77231D01*
X77954Y167666D01*
X78508Y168220D01*
X78807Y168943D01*
Y169726D01*
X78508Y170450D01*
X77954Y171003D01*
X77231Y171303D01*
D02*
G37*
G36*
X250824Y89413D02*
X250098D01*
X249397Y89226D01*
X248769Y88863D01*
X248256Y88350D01*
X247893Y87721D01*
X247705Y87020D01*
Y86295D01*
X247893Y85594D01*
X248256Y84965D01*
X248769Y84452D01*
X249397Y84089D01*
X250098Y83902D01*
X250824D01*
X251525Y84089D01*
X252153Y84452D01*
X252666Y84965D01*
X253029Y85594D01*
X253217Y86295D01*
Y87020D01*
X253029Y87721D01*
X252666Y88350D01*
X252153Y88863D01*
X251525Y89226D01*
X250824Y89413D01*
D02*
G37*
G36*
X257517D02*
X256791D01*
X256090Y89226D01*
X255462Y88863D01*
X254949Y88350D01*
X254586Y87721D01*
X254398Y87020D01*
Y86295D01*
X254586Y85594D01*
X254949Y84965D01*
X255462Y84452D01*
X256090Y84089D01*
X256757Y83911D01*
X256783Y83869D01*
X256676Y83372D01*
X256484Y83320D01*
X255855Y82957D01*
X255342Y82444D01*
X254979Y81816D01*
X254792Y81115D01*
Y80389D01*
X254979Y79688D01*
X255342Y79060D01*
X255855Y78547D01*
X256484Y78184D01*
X257185Y77996D01*
X257910D01*
X258611Y78184D01*
X259240Y78547D01*
X259753Y79060D01*
X260116Y79688D01*
X260303Y80389D01*
Y81115D01*
X260116Y81816D01*
X259753Y82444D01*
X259240Y82957D01*
X258611Y83320D01*
X257945Y83499D01*
X257919Y83541D01*
X258026Y84038D01*
X258218Y84089D01*
X258846Y84452D01*
X259359Y84965D01*
X259722Y85594D01*
X259910Y86295D01*
Y87020D01*
X259722Y87721D01*
X259359Y88350D01*
X258846Y88863D01*
X258218Y89226D01*
X257517Y89413D01*
D02*
G37*
G36*
X187012Y81081D02*
X186229D01*
X185505Y80781D01*
X184951Y80228D01*
X184652Y79504D01*
Y78721D01*
X184951Y77997D01*
X185505Y77444D01*
X186229Y77144D01*
X187012D01*
X187735Y77444D01*
X188289Y77997D01*
X188589Y78721D01*
Y79504D01*
X188289Y80228D01*
X187735Y80781D01*
X187012Y81081D01*
D02*
G37*
G36*
X94081Y79965D02*
X93298D01*
X92574Y79665D01*
X92020Y79111D01*
X91721Y78388D01*
Y77605D01*
X92020Y76881D01*
X92574Y76327D01*
X93298Y76028D01*
X94081D01*
X94804Y76327D01*
X95358Y76881D01*
X95658Y77605D01*
Y78388D01*
X95358Y79111D01*
X94804Y79665D01*
X94081Y79965D01*
D02*
G37*
G36*
X172900Y72878D02*
X172117D01*
X171393Y72578D01*
X170839Y72025D01*
X170540Y71301D01*
Y70518D01*
X170839Y69794D01*
X171393Y69241D01*
X172117Y68941D01*
X172900D01*
X173623Y69241D01*
X174177Y69794D01*
X174477Y70518D01*
Y71301D01*
X174177Y72025D01*
X173623Y72578D01*
X172900Y72878D01*
D02*
G37*
G36*
X252508Y63650D02*
X251725D01*
X251002Y63351D01*
X250448Y62797D01*
X250148Y62073D01*
Y61290D01*
X250448Y60567D01*
X251002Y60013D01*
X251725Y59713D01*
X252508D01*
X253232Y60013D01*
X253786Y60567D01*
X254085Y61290D01*
Y62073D01*
X253786Y62797D01*
X253232Y63351D01*
X252508Y63650D01*
D02*
G37*
G36*
X72112Y63036D02*
X71329D01*
X70606Y62736D01*
X70052Y62182D01*
X69752Y61459D01*
Y60675D01*
X70052Y59952D01*
X70606Y59398D01*
X71329Y59099D01*
X71367D01*
X71466Y58599D01*
X70999Y58405D01*
X70446Y57851D01*
X70146Y57128D01*
Y56345D01*
X70446Y55621D01*
X70999Y55067D01*
X71723Y54768D01*
X72506D01*
X73230Y55067D01*
X73783Y55621D01*
X74083Y56345D01*
Y57128D01*
X73783Y57851D01*
X73230Y58405D01*
X72506Y58705D01*
X72469D01*
X72369Y59205D01*
X72836Y59398D01*
X73390Y59952D01*
X73689Y60675D01*
Y61459D01*
X73390Y62182D01*
X72836Y62736D01*
X72112Y63036D01*
D02*
G37*
G36*
X102427Y55949D02*
X101644D01*
X100921Y55649D01*
X100367Y55095D01*
X100067Y54372D01*
Y53589D01*
X100367Y52865D01*
X100921Y52312D01*
X101644Y52012D01*
X102427D01*
X103151Y52312D01*
X103705Y52865D01*
X104004Y53589D01*
Y54372D01*
X103705Y55095D01*
X103151Y55649D01*
X102427Y55949D01*
D02*
G37*
G36*
X403872Y58396D02*
X402939D01*
X402038Y58154D01*
X401230Y57688D01*
X400570Y57028D01*
X400104Y56220D01*
X399862Y55319D01*
Y54386D01*
X400104Y53485D01*
X400570Y52677D01*
X401230Y52017D01*
X402038Y51551D01*
X402939Y51309D01*
X403872D01*
X404773Y51551D01*
X405581Y52017D01*
X406241Y52677D01*
X406707Y53485D01*
X406949Y54386D01*
Y55319D01*
X406707Y56220D01*
X406241Y57028D01*
X405581Y57688D01*
X404773Y58154D01*
X403872Y58396D01*
D02*
G37*
G36*
X393872D02*
X392939D01*
X392038Y58154D01*
X391230Y57688D01*
X390570Y57028D01*
X390104Y56220D01*
X389862Y55319D01*
Y54386D01*
X390104Y53485D01*
X390570Y52677D01*
X391230Y52017D01*
X392038Y51551D01*
X392939Y51309D01*
X393872D01*
X394773Y51551D01*
X395581Y52017D01*
X396241Y52677D01*
X396707Y53485D01*
X396949Y54386D01*
Y55319D01*
X396707Y56220D01*
X396241Y57028D01*
X395581Y57688D01*
X394773Y58154D01*
X393872Y58396D01*
D02*
G37*
G36*
X383872D02*
X382939D01*
X382038Y58154D01*
X381230Y57688D01*
X380570Y57028D01*
X380104Y56220D01*
X379862Y55319D01*
Y54386D01*
X380104Y53485D01*
X380570Y52677D01*
X381230Y52017D01*
X382038Y51551D01*
X382939Y51309D01*
X383872D01*
X384773Y51551D01*
X385581Y52017D01*
X386241Y52677D01*
X386707Y53485D01*
X386949Y54386D01*
Y55319D01*
X386707Y56220D01*
X386241Y57028D01*
X385581Y57688D01*
X384773Y58154D01*
X383872Y58396D01*
D02*
G37*
G36*
X373872D02*
X372939D01*
X372038Y58154D01*
X371230Y57688D01*
X370570Y57028D01*
X370104Y56220D01*
X369862Y55319D01*
Y54386D01*
X370104Y53485D01*
X370570Y52677D01*
X371230Y52017D01*
X372038Y51551D01*
X372939Y51309D01*
X373872D01*
X374773Y51551D01*
X375581Y52017D01*
X376241Y52677D01*
X376707Y53485D01*
X376949Y54386D01*
Y55319D01*
X376707Y56220D01*
X376241Y57028D01*
X375581Y57688D01*
X374773Y58154D01*
X373872Y58396D01*
D02*
G37*
G36*
X233530Y52799D02*
X232747D01*
X232023Y52500D01*
X231469Y51946D01*
X231170Y51222D01*
Y50439D01*
X231469Y49716D01*
X232023Y49162D01*
X232747Y48862D01*
X233530D01*
X234253Y49162D01*
X234807Y49716D01*
X235107Y50439D01*
Y51222D01*
X234807Y51946D01*
X234253Y52500D01*
X233530Y52799D01*
D02*
G37*
G36*
X223857Y52756D02*
X223074D01*
X222350Y52457D01*
X221797Y51903D01*
X221497Y51179D01*
Y50396D01*
X221797Y49673D01*
X222350Y49119D01*
X223074Y48819D01*
X223857D01*
X224581Y49119D01*
X225134Y49673D01*
X225434Y50396D01*
Y51179D01*
X225134Y51903D01*
X224581Y52457D01*
X223857Y52756D01*
D02*
G37*
G36*
X215350D02*
X214567D01*
X213843Y52457D01*
X213290Y51903D01*
X212990Y51179D01*
Y50396D01*
X213290Y49673D01*
X213843Y49119D01*
X214567Y48819D01*
X215350D01*
X216073Y49119D01*
X216627Y49673D01*
X216927Y50396D01*
Y51179D01*
X216627Y51903D01*
X216073Y52457D01*
X215350Y52756D01*
D02*
G37*
G36*
X206843D02*
X206060D01*
X205336Y52457D01*
X204783Y51903D01*
X204483Y51179D01*
Y50396D01*
X204783Y49673D01*
X205336Y49119D01*
X206060Y48819D01*
X206843D01*
X207566Y49119D01*
X208120Y49673D01*
X208420Y50396D01*
Y51179D01*
X208120Y51903D01*
X207566Y52457D01*
X206843Y52756D01*
D02*
G37*
G36*
X199054D02*
X198271D01*
X197547Y52457D01*
X196994Y51903D01*
X196694Y51179D01*
Y50396D01*
X196994Y49673D01*
X197547Y49119D01*
X198271Y48819D01*
X199054D01*
X199777Y49119D01*
X200331Y49673D01*
X200631Y50396D01*
Y51179D01*
X200331Y51903D01*
X199777Y52457D01*
X199054Y52756D01*
D02*
G37*
G36*
X190392D02*
X189609D01*
X188886Y52457D01*
X188332Y51903D01*
X188032Y51179D01*
Y50396D01*
X188332Y49673D01*
X188886Y49119D01*
X189609Y48819D01*
X190392D01*
X191116Y49119D01*
X191670Y49673D01*
X191969Y50396D01*
Y51179D01*
X191670Y51903D01*
X191116Y52457D01*
X190392Y52756D01*
D02*
G37*
G36*
X398872Y48396D02*
X397939D01*
X397038Y48154D01*
X396230Y47688D01*
X395570Y47028D01*
X395104Y46220D01*
X394862Y45319D01*
Y44386D01*
X395104Y43485D01*
X395570Y42677D01*
X396230Y42017D01*
X397038Y41550D01*
X397939Y41309D01*
X398872D01*
X399773Y41550D01*
X400581Y42017D01*
X401241Y42677D01*
X401707Y43485D01*
X401949Y44386D01*
Y45319D01*
X401707Y46220D01*
X401241Y47028D01*
X400581Y47688D01*
X399773Y48154D01*
X398872Y48396D01*
D02*
G37*
G36*
X388872D02*
X387939D01*
X387038Y48154D01*
X386230Y47688D01*
X385570Y47028D01*
X385104Y46220D01*
X384862Y45319D01*
Y44386D01*
X385104Y43485D01*
X385570Y42677D01*
X386230Y42017D01*
X387038Y41550D01*
X387939Y41309D01*
X388872D01*
X389773Y41550D01*
X390581Y42017D01*
X391241Y42677D01*
X391707Y43485D01*
X391949Y44386D01*
Y45319D01*
X391707Y46220D01*
X391241Y47028D01*
X390581Y47688D01*
X389773Y48154D01*
X388872Y48396D01*
D02*
G37*
G36*
X378872D02*
X377939D01*
X377038Y48154D01*
X376230Y47688D01*
X375570Y47028D01*
X375104Y46220D01*
X374862Y45319D01*
Y44386D01*
X375104Y43485D01*
X375570Y42677D01*
X376230Y42017D01*
X377038Y41550D01*
X377939Y41309D01*
X378872D01*
X379773Y41550D01*
X380581Y42017D01*
X381241Y42677D01*
X381707Y43485D01*
X381949Y44386D01*
Y45319D01*
X381707Y46220D01*
X381241Y47028D01*
X380581Y47688D01*
X379773Y48154D01*
X378872Y48396D01*
D02*
G37*
G36*
X368872D02*
X367939D01*
X367038Y48154D01*
X366230Y47688D01*
X365570Y47028D01*
X365104Y46220D01*
X364862Y45319D01*
Y44386D01*
X365104Y43485D01*
X365570Y42677D01*
X366230Y42017D01*
X367038Y41550D01*
X367939Y41309D01*
X368872D01*
X369773Y41550D01*
X370581Y42017D01*
X371241Y42677D01*
X371707Y43485D01*
X371949Y44386D01*
Y45319D01*
X371707Y46220D01*
X371241Y47028D01*
X370581Y47688D01*
X369773Y48154D01*
X368872Y48396D01*
D02*
G37*
G36*
X156305Y60488D02*
X155522D01*
X154798Y60188D01*
X154245Y59634D01*
X153945Y58911D01*
Y58128D01*
X154245Y57404D01*
X154798Y56850D01*
X154802Y56849D01*
Y52465D01*
X154802Y52465D01*
X154886Y52039D01*
X155127Y51679D01*
X164242Y42564D01*
X164241Y42561D01*
Y41778D01*
X164540Y41054D01*
X165094Y40501D01*
X165817Y40201D01*
X166601D01*
X167324Y40501D01*
X167878Y41054D01*
X168177Y41778D01*
Y42561D01*
X167878Y43284D01*
X167324Y43838D01*
X166601Y44138D01*
X165817D01*
X165814Y44137D01*
X157026Y52925D01*
Y56849D01*
X157029Y56850D01*
X157582Y57404D01*
X157882Y58128D01*
Y58911D01*
X157582Y59634D01*
X157029Y60188D01*
X156305Y60488D01*
D02*
G37*
G36*
X81561Y43350D02*
X80778D01*
X80055Y43051D01*
X79501Y42497D01*
X79201Y41774D01*
Y40990D01*
X79501Y40267D01*
X80055Y39713D01*
X80778Y39413D01*
X81561D01*
X82285Y39713D01*
X82838Y40267D01*
X83138Y40990D01*
Y41774D01*
X82838Y42497D01*
X82285Y43051D01*
X81561Y43350D01*
D02*
G37*
G36*
X40082Y20185D02*
X39029D01*
X38012Y19913D01*
X37099Y19386D01*
X37005Y19292D01*
X37807Y18490D01*
X37250Y17934D01*
X36449Y18735D01*
X36355Y18641D01*
X35828Y17729D01*
X35555Y16712D01*
Y15658D01*
X35828Y14641D01*
X36355Y13729D01*
X36449Y13635D01*
X37250Y14436D01*
X37807Y13880D01*
X37005Y13078D01*
X37099Y12984D01*
X38012Y12458D01*
X39029Y12185D01*
X40082D01*
X41099Y12458D01*
X42011Y12984D01*
X42105Y13078D01*
X41304Y13880D01*
X41861Y14436D01*
X42662Y13635D01*
X42756Y13729D01*
X43283Y14641D01*
X43556Y15658D01*
Y16712D01*
X43283Y17729D01*
X42756Y18641D01*
X42662Y18735D01*
X41861Y17934D01*
X41304Y18490D01*
X42105Y19292D01*
X42011Y19386D01*
X41099Y19913D01*
X40082Y20185D01*
D02*
G37*
G36*
X409133Y27037D02*
X407718D01*
X406329Y26761D01*
X405022Y26220D01*
X403845Y25433D01*
X402844Y24433D01*
X402058Y23256D01*
X401516Y21948D01*
X401240Y20560D01*
Y19145D01*
X401516Y17757D01*
X402058Y16449D01*
X402844Y15272D01*
X403845Y14271D01*
X405022Y13485D01*
X406329Y12943D01*
X407718Y12667D01*
X409133D01*
X410521Y12943D01*
X411829Y13485D01*
X413005Y14271D01*
X414006Y15272D01*
X414792Y16449D01*
X415334Y17757D01*
X415610Y19145D01*
Y20560D01*
X415334Y21948D01*
X414792Y23256D01*
X414006Y24433D01*
X413005Y25433D01*
X411829Y26220D01*
X410521Y26761D01*
X409133Y27037D01*
D02*
G37*
G36*
X364133D02*
X362718D01*
X361329Y26761D01*
X360022Y26220D01*
X358845Y25433D01*
X357844Y24433D01*
X357058Y23256D01*
X356516Y21948D01*
X356240Y20560D01*
Y19145D01*
X356516Y17757D01*
X357058Y16449D01*
X357844Y15272D01*
X358845Y14271D01*
X360022Y13485D01*
X361329Y12943D01*
X362718Y12667D01*
X364133D01*
X365521Y12943D01*
X366829Y13485D01*
X368005Y14271D01*
X369006Y15272D01*
X369793Y16449D01*
X370334Y17757D01*
X370610Y19145D01*
Y20560D01*
X370334Y21948D01*
X369793Y23256D01*
X369006Y24433D01*
X368005Y25433D01*
X366829Y26220D01*
X365521Y26761D01*
X364133Y27037D01*
D02*
G37*
G36*
X50054Y19973D02*
X49057D01*
X48094Y19714D01*
X47230Y19216D01*
X46525Y18511D01*
X46026Y17647D01*
X45768Y16684D01*
Y15687D01*
X46026Y14723D01*
X46525Y13860D01*
X47230Y13154D01*
X48094Y12656D01*
X49057Y12398D01*
X50054D01*
X51017Y12656D01*
X51881Y13154D01*
X52586Y13860D01*
X53085Y14723D01*
X53343Y15687D01*
Y16684D01*
X53085Y17647D01*
X52586Y18511D01*
X51881Y19216D01*
X51017Y19714D01*
X50054Y19973D01*
D02*
G37*
G36*
X417066Y13598D02*
X415611D01*
X414205Y13222D01*
X412945Y12494D01*
X412708Y12258D01*
X413504Y11463D01*
X412947Y10906D01*
X412152Y11701D01*
X411915Y11465D01*
X411188Y10204D01*
X410811Y8799D01*
Y7343D01*
X411188Y5937D01*
X411915Y4677D01*
X412152Y4441D01*
X412947Y5236D01*
X413504Y4679D01*
X412708Y3884D01*
X412945Y3648D01*
X414205Y2920D01*
X415611Y2543D01*
X417066D01*
X418472Y2920D01*
X419733Y3648D01*
X419969Y3884D01*
X419174Y4679D01*
X419730Y5236D01*
X420526Y4441D01*
X420762Y4677D01*
X421489Y5937D01*
X421866Y7343D01*
Y8799D01*
X421489Y10204D01*
X420762Y11465D01*
X420526Y11701D01*
X419730Y10906D01*
X419174Y11463D01*
X419969Y12258D01*
X419733Y12494D01*
X418472Y13222D01*
X417066Y13598D01*
D02*
G37*
G36*
X356141D02*
X354686D01*
X353280Y13222D01*
X352019Y12494D01*
X351783Y12258D01*
X352578Y11463D01*
X352022Y10906D01*
X351226Y11701D01*
X350990Y11465D01*
X350262Y10204D01*
X349886Y8799D01*
Y7343D01*
X350262Y5937D01*
X350990Y4677D01*
X351226Y4441D01*
X352022Y5236D01*
X352578Y4679D01*
X351783Y3884D01*
X352019Y3648D01*
X353280Y2920D01*
X354686Y2543D01*
X356141D01*
X357547Y2920D01*
X358807Y3648D01*
X359044Y3884D01*
X358248Y4679D01*
X358805Y5236D01*
X359600Y4441D01*
X359837Y4677D01*
X360564Y5937D01*
X360941Y7343D01*
Y8799D01*
X360564Y10204D01*
X359837Y11465D01*
X359600Y11701D01*
X358805Y10906D01*
X358248Y11463D01*
X359044Y12258D01*
X358807Y12494D01*
X357547Y13222D01*
X356141Y13598D01*
D02*
G37*
G36*
X616879Y21260D02*
X615405D01*
X613960Y20972D01*
X612599Y20409D01*
X611373Y19590D01*
X610331Y18548D01*
X609513Y17323D01*
X608949Y15961D01*
X608661Y14516D01*
Y13043D01*
X608949Y11598D01*
X609513Y10236D01*
X610331Y9011D01*
X611373Y7969D01*
X612599Y7151D01*
X613960Y6587D01*
X615405Y6299D01*
X616879D01*
X618324Y6587D01*
X619685Y7151D01*
X620910Y7969D01*
X621952Y9011D01*
X622771Y10236D01*
X623335Y11598D01*
X623622Y13043D01*
Y14516D01*
X623335Y15961D01*
X622771Y17323D01*
X621952Y18548D01*
X620910Y19590D01*
X619685Y20409D01*
X618324Y20972D01*
X616879Y21260D01*
D02*
G37*
G36*
X14516D02*
X13043D01*
X11598Y20972D01*
X10236Y20409D01*
X9011Y19590D01*
X7969Y18548D01*
X7151Y17323D01*
X6587Y15961D01*
X6299Y14516D01*
Y13043D01*
X6587Y11598D01*
X7151Y10236D01*
X7969Y9011D01*
X9011Y7969D01*
X10236Y7151D01*
X11598Y6587D01*
X13043Y6299D01*
X14516D01*
X15961Y6587D01*
X17323Y7151D01*
X18548Y7969D01*
X19590Y9011D01*
X20409Y10236D01*
X20972Y11598D01*
X21260Y13043D01*
Y14516D01*
X20972Y15961D01*
X20409Y17323D01*
X19590Y18548D01*
X18548Y19590D01*
X17323Y20409D01*
X15961Y20972D01*
X14516Y21260D01*
D02*
G37*
%LPD*%
D19*
X155914Y52465D02*
Y58519D01*
Y52465D02*
X166209Y42169D01*
D92*
X355413Y8071D02*
D03*
X416339D02*
D03*
D93*
X39555Y16185D02*
D03*
D97*
X186215Y53538D02*
D03*
X514629Y224995D02*
D03*
X356362Y225782D02*
D03*
X198881D02*
D03*
X106506Y224945D02*
D03*
X264380D02*
D03*
X421860D02*
D03*
X579734Y224551D02*
D03*
X590551Y143307D02*
D03*
X514173D02*
D03*
X433071Y144488D02*
D03*
X356693D02*
D03*
X199213Y144095D02*
D03*
X275590D02*
D03*
X523228Y189370D02*
D03*
X522783Y203543D02*
D03*
X366929Y190945D02*
D03*
X366483Y205118D02*
D03*
X209842Y188583D02*
D03*
X209397Y202755D02*
D03*
X198819Y210630D02*
D03*
X356299Y211024D02*
D03*
X514173Y210630D02*
D03*
X56299Y269291D02*
D03*
X214173Y269685D02*
D03*
X529528Y269291D02*
D03*
X372441Y269685D02*
D03*
X564567Y277953D02*
D03*
X407087Y278346D02*
D03*
X249606Y278740D02*
D03*
X91339D02*
D03*
X243307Y164173D02*
D03*
X401968Y164567D02*
D03*
X559055Y164173D02*
D03*
X394625Y193862D02*
D03*
X237145D02*
D03*
X569685Y167323D02*
D03*
X552360Y194095D02*
D03*
X557930Y168870D02*
D03*
X530709Y230315D02*
D03*
X559449Y274803D02*
D03*
X569685D02*
D03*
X398031Y172835D02*
D03*
X373228Y230709D02*
D03*
X401968Y275197D02*
D03*
X412205D02*
D03*
X240354Y172710D02*
D03*
X215551Y230584D02*
D03*
X244291Y275072D02*
D03*
X254527D02*
D03*
X82284Y172441D02*
D03*
X57480Y230315D02*
D03*
X86221Y274803D02*
D03*
X96457D02*
D03*
X564567Y224803D02*
D03*
X407480Y225590D02*
D03*
X249606Y224803D02*
D03*
X238032Y78741D02*
D03*
X199674Y78390D02*
D03*
Y72615D02*
D03*
X177196Y82952D02*
D03*
X157548Y77602D02*
D03*
X177233Y72878D02*
D03*
X149674Y75634D02*
D03*
X243150Y66142D02*
D03*
X273859Y56693D02*
D03*
X243150Y71260D02*
D03*
X199674Y61067D02*
D03*
Y66841D02*
D03*
X242757Y60237D02*
D03*
Y56693D02*
D03*
X258899Y38583D02*
D03*
X253781D02*
D03*
X222678Y33465D02*
D03*
X227984Y9724D02*
D03*
X205664Y33465D02*
D03*
X214171D02*
D03*
X197875D02*
D03*
X176516Y60956D02*
D03*
X172103Y56913D02*
D03*
X176516Y53279D02*
D03*
X167855D02*
D03*
Y60956D02*
D03*
X150818Y58149D02*
D03*
X174170Y42563D02*
D03*
X170626D02*
D03*
X189214Y33465D02*
D03*
X182745Y38232D02*
D03*
X160303Y35476D02*
D03*
X159516Y26421D02*
D03*
X154792Y31539D02*
D03*
X149213Y22835D02*
D03*
X159516Y21303D02*
D03*
X154129Y9762D02*
D03*
X91339Y225590D02*
D03*
X92913Y151969D02*
D03*
X89309Y163823D02*
D03*
X117186Y144332D02*
D03*
X115815Y68941D02*
D03*
X108335D02*
D03*
X112666D02*
D03*
X128020D02*
D03*
X131170D02*
D03*
X120540D02*
D03*
X123689D02*
D03*
X80323Y96019D02*
D03*
Y91689D02*
D03*
Y107092D02*
D03*
Y102761D02*
D03*
X94555Y72091D02*
D03*
X105185Y68941D02*
D03*
X79134Y192913D02*
D03*
X52429Y204374D02*
D03*
X64567Y151969D02*
D03*
X52875Y190201D02*
D03*
X40945Y210630D02*
D03*
X41732Y224410D02*
D03*
X42587Y143744D02*
D03*
X25606Y93646D02*
D03*
X31118D02*
D03*
X76051Y80752D02*
D03*
X29989Y72091D02*
D03*
X60638Y65704D02*
D03*
X16996Y88626D02*
D03*
X17390Y78784D02*
D03*
X24477Y72091D02*
D03*
X23355Y65583D02*
D03*
X146130Y63823D02*
D03*
X99637Y49487D02*
D03*
X96918Y43744D02*
D03*
Y39413D02*
D03*
X139831Y35476D02*
D03*
X145343Y31539D02*
D03*
X101642Y11461D02*
D03*
X129558Y5787D02*
D03*
X118141Y9724D02*
D03*
X96918Y21599D02*
D03*
Y32671D02*
D03*
Y28341D02*
D03*
Y17268D02*
D03*
X87329Y5738D02*
D03*
X72114Y51618D02*
D03*
X60638Y61374D02*
D03*
X60638Y54582D02*
D03*
Y50252D02*
D03*
Y43509D02*
D03*
X23355Y61252D02*
D03*
Y54510D02*
D03*
Y50180D02*
D03*
X71653Y35039D02*
D03*
X60638Y39179D02*
D03*
Y32437D02*
D03*
Y28106D02*
D03*
X23355Y43438D02*
D03*
Y39107D02*
D03*
X23355Y32315D02*
D03*
Y27985D02*
D03*
X37008Y6299D02*
D03*
X27590Y22716D02*
D03*
X166209Y42169D02*
D03*
X155914Y58519D02*
D03*
D98*
X32283Y113779D02*
D03*
X26772D02*
D03*
X20866D02*
D03*
X31890Y84646D02*
D03*
X22047D02*
D03*
X26772D02*
D03*
D99*
X89810Y60488D02*
D03*
X87555D02*
D03*
M02*
