G04*
G04 #@! TF.GenerationSoftware,Altium Limited,Altium Designer,25.8.1 (18)*
G04*
G04 Layer_Physical_Order=3*
G04 Layer_Color=16440176*
%FSLAX25Y25*%
%MOIN*%
G70*
G04*
G04 #@! TF.SameCoordinates,31BD0CA7-68FF-495C-AAF5-E67D81281D59*
G04*
G04*
G04 #@! TF.FilePolarity,Positive*
G04*
G01*
G75*
%ADD19C,0.01000*%
%ADD97C,0.02362*%
%ADD99C,0.01772*%
G36*
X573622Y228783D02*
X628900D01*
Y1020D01*
X1020Y1020D01*
X1020Y228783D01*
X55973D01*
X55973Y228783D01*
X56409Y228628D01*
X57089Y228346D01*
X57872D01*
X58595Y228646D01*
X59149Y229200D01*
X59449Y229923D01*
Y230707D01*
X59149Y231430D01*
X58595Y231984D01*
X57872Y232283D01*
X57089D01*
X56473Y232028D01*
X55973Y232245D01*
Y242169D01*
X101181D01*
Y228783D01*
X213386D01*
Y229360D01*
X213863Y229464D01*
X213886Y229465D01*
X214436Y228915D01*
X215159Y228615D01*
X215942D01*
X216666Y228915D01*
X217219Y229469D01*
X217519Y230192D01*
Y230975D01*
X217219Y231699D01*
X216666Y232253D01*
X215942Y232552D01*
X215159D01*
X214436Y232253D01*
X213886Y231703D01*
X213863Y231703D01*
X213386Y231808D01*
Y242169D01*
X258661D01*
Y228783D01*
X370866D01*
Y229961D01*
X371366Y230061D01*
X371560Y229594D01*
X372113Y229040D01*
X372837Y228740D01*
X373620D01*
X374343Y229040D01*
X374897Y229594D01*
X375197Y230317D01*
Y231100D01*
X374897Y231824D01*
X374343Y232378D01*
X373620Y232677D01*
X372837D01*
X372113Y232378D01*
X371560Y231824D01*
X371366Y231357D01*
X370866Y231456D01*
Y242169D01*
X416142D01*
Y228783D01*
X528346D01*
Y229567D01*
X528847Y229667D01*
X529040Y229200D01*
X529594Y228646D01*
X530317Y228346D01*
X531100D01*
X531824Y228646D01*
X532377Y229200D01*
X532677Y229923D01*
Y230707D01*
X532377Y231430D01*
X531824Y231984D01*
X531100Y232283D01*
X530317D01*
X529594Y231984D01*
X529040Y231430D01*
X528847Y230963D01*
X528346Y231063D01*
Y242169D01*
X573622D01*
Y228783D01*
D02*
G37*
%LPC*%
G36*
X387399Y228346D02*
X386616D01*
X385893Y228047D01*
X385339Y227493D01*
X385039Y226769D01*
Y225986D01*
X385339Y225263D01*
X385893Y224709D01*
X386616Y224410D01*
X387399D01*
X388123Y224709D01*
X388677Y225263D01*
X388976Y225986D01*
Y226769D01*
X388677Y227493D01*
X388123Y228047D01*
X387399Y228346D01*
D02*
G37*
G36*
X229722Y228222D02*
X228939D01*
X228215Y227922D01*
X227661Y227368D01*
X227362Y226644D01*
Y225861D01*
X227661Y225138D01*
X228215Y224584D01*
X228939Y224285D01*
X229722D01*
X230445Y224584D01*
X230999Y225138D01*
X231299Y225861D01*
Y226644D01*
X230999Y227368D01*
X230445Y227922D01*
X229722Y228222D01*
D02*
G37*
G36*
X544880Y227953D02*
X544097D01*
X543373Y227653D01*
X542819Y227099D01*
X542520Y226376D01*
Y225593D01*
X542819Y224869D01*
X543373Y224315D01*
X544097Y224016D01*
X544880D01*
X545603Y224315D01*
X546157Y224869D01*
X546457Y225593D01*
Y226376D01*
X546157Y227099D01*
X545603Y227653D01*
X544880Y227953D01*
D02*
G37*
G36*
X71651D02*
X70868D01*
X70145Y227653D01*
X69591Y227099D01*
X69291Y226376D01*
Y225593D01*
X69591Y224869D01*
X70145Y224315D01*
X70868Y224016D01*
X71651D01*
X72375Y224315D01*
X72929Y224869D01*
X73228Y225593D01*
Y226376D01*
X72929Y227099D01*
X72375Y227653D01*
X71651Y227953D01*
D02*
G37*
G36*
X356753Y227751D02*
X355970D01*
X355246Y227451D01*
X354693Y226898D01*
X354393Y226174D01*
Y225391D01*
X354693Y224667D01*
X355246Y224114D01*
X355970Y223814D01*
X356753D01*
X357477Y224114D01*
X358030Y224667D01*
X358330Y225391D01*
Y226174D01*
X358030Y226898D01*
X357477Y227451D01*
X356753Y227751D01*
D02*
G37*
G36*
X199273D02*
X198490D01*
X197766Y227451D01*
X197212Y226898D01*
X196913Y226174D01*
Y225391D01*
X197212Y224667D01*
X197766Y224114D01*
X198490Y223814D01*
X199273D01*
X199996Y224114D01*
X200550Y224667D01*
X200850Y225391D01*
Y226174D01*
X200550Y226898D01*
X199996Y227451D01*
X199273Y227751D01*
D02*
G37*
G36*
X407872Y227559D02*
X407089D01*
X406365Y227259D01*
X405812Y226706D01*
X405512Y225982D01*
Y225199D01*
X405812Y224476D01*
X406365Y223922D01*
X407089Y223622D01*
X407872D01*
X408595Y223922D01*
X409149Y224476D01*
X409449Y225199D01*
Y225982D01*
X409149Y226706D01*
X408595Y227259D01*
X407872Y227559D01*
D02*
G37*
G36*
X91730D02*
X90947D01*
X90223Y227259D01*
X89670Y226706D01*
X89370Y225982D01*
Y225199D01*
X89670Y224476D01*
X90223Y223922D01*
X90947Y223622D01*
X91730D01*
X92454Y223922D01*
X93007Y224476D01*
X93307Y225199D01*
Y225982D01*
X93007Y226706D01*
X92454Y227259D01*
X91730Y227559D01*
D02*
G37*
G36*
X515021Y226964D02*
X514238D01*
X513514Y226664D01*
X512960Y226110D01*
X512661Y225387D01*
Y224604D01*
X512960Y223880D01*
X513514Y223326D01*
X514238Y223027D01*
X515021D01*
X515744Y223326D01*
X516298Y223880D01*
X516598Y224604D01*
Y225387D01*
X516298Y226110D01*
X515744Y226664D01*
X515021Y226964D01*
D02*
G37*
G36*
X422252Y226913D02*
X421469D01*
X420745Y226613D01*
X420191Y226060D01*
X419892Y225336D01*
Y224553D01*
X420191Y223830D01*
X420745Y223276D01*
X421469Y222976D01*
X422252D01*
X422975Y223276D01*
X423529Y223830D01*
X423829Y224553D01*
Y225336D01*
X423529Y226060D01*
X422975Y226613D01*
X422252Y226913D01*
D02*
G37*
G36*
X264772D02*
X263988D01*
X263265Y226613D01*
X262711Y226060D01*
X262411Y225336D01*
Y224553D01*
X262711Y223830D01*
X263265Y223276D01*
X263988Y222976D01*
X264772D01*
X265495Y223276D01*
X266049Y223830D01*
X266348Y224553D01*
Y225336D01*
X266049Y226060D01*
X265495Y226613D01*
X264772Y226913D01*
D02*
G37*
G36*
X106897D02*
X106114D01*
X105391Y226613D01*
X104837Y226060D01*
X104537Y225336D01*
Y224553D01*
X104837Y223830D01*
X105391Y223276D01*
X106114Y222976D01*
X106897D01*
X107621Y223276D01*
X108175Y223830D01*
X108474Y224553D01*
Y225336D01*
X108175Y226060D01*
X107621Y226613D01*
X106897Y226913D01*
D02*
G37*
G36*
X564958Y226772D02*
X564175D01*
X563452Y226472D01*
X562898Y225918D01*
X562598Y225195D01*
Y224412D01*
X562898Y223688D01*
X563452Y223134D01*
X564175Y222835D01*
X564958D01*
X565682Y223134D01*
X566236Y223688D01*
X566535Y224412D01*
Y225195D01*
X566236Y225918D01*
X565682Y226472D01*
X564958Y226772D01*
D02*
G37*
G36*
X249998D02*
X249215D01*
X248491Y226472D01*
X247937Y225918D01*
X247638Y225195D01*
Y224412D01*
X247937Y223688D01*
X248491Y223134D01*
X249215Y222835D01*
X249998D01*
X250721Y223134D01*
X251275Y223688D01*
X251575Y224412D01*
Y225195D01*
X251275Y225918D01*
X250721Y226472D01*
X249998Y226772D01*
D02*
G37*
G36*
X580126Y226519D02*
X579343D01*
X578619Y226220D01*
X578065Y225666D01*
X577766Y224942D01*
Y224159D01*
X578065Y223436D01*
X578619Y222882D01*
X579343Y222582D01*
X580126D01*
X580849Y222882D01*
X581403Y223436D01*
X581703Y224159D01*
Y224942D01*
X581403Y225666D01*
X580849Y226220D01*
X580126Y226519D01*
D02*
G37*
G36*
X42124Y226378D02*
X41341D01*
X40617Y226078D01*
X40064Y225524D01*
X39764Y224801D01*
Y224018D01*
X40064Y223294D01*
X40617Y222741D01*
X41341Y222441D01*
X42124D01*
X42847Y222741D01*
X43401Y223294D01*
X43701Y224018D01*
Y224801D01*
X43401Y225524D01*
X42847Y226078D01*
X42124Y226378D01*
D02*
G37*
G36*
X616879Y225984D02*
X615405D01*
X613960Y225697D01*
X612599Y225133D01*
X611373Y224314D01*
X610331Y223272D01*
X609513Y222047D01*
X608949Y220686D01*
X608661Y219241D01*
Y217767D01*
X608949Y216322D01*
X609513Y214961D01*
X610331Y213736D01*
X611373Y212694D01*
X612599Y211875D01*
X613960Y211311D01*
X615405Y211024D01*
X616879D01*
X618324Y211311D01*
X619685Y211875D01*
X620910Y212694D01*
X621952Y213736D01*
X622771Y214961D01*
X623335Y216322D01*
X623622Y217767D01*
Y219241D01*
X623335Y220686D01*
X622771Y222047D01*
X621952Y223272D01*
X620910Y224314D01*
X619685Y225133D01*
X618324Y225697D01*
X616879Y225984D01*
D02*
G37*
G36*
X14516Y225984D02*
X13043D01*
X11598Y225697D01*
X10236Y225133D01*
X9011Y224314D01*
X7969Y223272D01*
X7151Y222047D01*
X6587Y220686D01*
X6299Y219241D01*
Y217767D01*
X6587Y216322D01*
X7151Y214961D01*
X7969Y213736D01*
X9011Y212694D01*
X10236Y211875D01*
X11598Y211311D01*
X13043Y211024D01*
X14516D01*
X15961Y211311D01*
X17323Y211875D01*
X18548Y212694D01*
X19590Y213736D01*
X20409Y214961D01*
X20972Y216322D01*
X21260Y217767D01*
Y219241D01*
X20972Y220686D01*
X20409Y222047D01*
X19590Y223272D01*
X18548Y224314D01*
X17323Y225133D01*
X15961Y225697D01*
X14516Y225984D01*
D02*
G37*
G36*
X356691Y212992D02*
X355908D01*
X355184Y212692D01*
X354630Y212139D01*
X354331Y211415D01*
Y210632D01*
X354630Y209909D01*
X355184Y209355D01*
X355908Y209055D01*
X356691D01*
X357414Y209355D01*
X357968Y209909D01*
X358268Y210632D01*
Y211415D01*
X357968Y212139D01*
X357414Y212692D01*
X356691Y212992D01*
D02*
G37*
G36*
X514565Y212598D02*
X513782D01*
X513058Y212299D01*
X512504Y211745D01*
X512205Y211021D01*
Y210238D01*
X512504Y209515D01*
X513058Y208961D01*
X513782Y208661D01*
X514565D01*
X515288Y208961D01*
X515842Y209515D01*
X516142Y210238D01*
Y211021D01*
X515842Y211745D01*
X515288Y212299D01*
X514565Y212598D01*
D02*
G37*
G36*
X199211D02*
X198427D01*
X197704Y212299D01*
X197150Y211745D01*
X196850Y211021D01*
Y210238D01*
X197150Y209515D01*
X197704Y208961D01*
X198427Y208661D01*
X199211D01*
X199934Y208961D01*
X200488Y209515D01*
X200787Y210238D01*
Y211021D01*
X200488Y211745D01*
X199934Y212299D01*
X199211Y212598D01*
D02*
G37*
G36*
X41336D02*
X40553D01*
X39830Y212299D01*
X39276Y211745D01*
X38976Y211021D01*
Y210238D01*
X39276Y209515D01*
X39830Y208961D01*
X40553Y208661D01*
X41336D01*
X42060Y208961D01*
X42614Y209515D01*
X42913Y210238D01*
Y211021D01*
X42614Y211745D01*
X42060Y212299D01*
X41336Y212598D01*
D02*
G37*
G36*
X366875Y207086D02*
X366092D01*
X365368Y206786D01*
X364814Y206233D01*
X364515Y205509D01*
Y204726D01*
X364814Y204003D01*
X365368Y203449D01*
X366092Y203149D01*
X366875D01*
X367598Y203449D01*
X368152Y204003D01*
X368452Y204726D01*
Y205509D01*
X368152Y206233D01*
X367598Y206786D01*
X366875Y207086D01*
D02*
G37*
G36*
X52821Y206343D02*
X52038D01*
X51314Y206043D01*
X50761Y205489D01*
X50461Y204766D01*
Y203982D01*
X50761Y203259D01*
X51314Y202705D01*
X52038Y202406D01*
X52821D01*
X53545Y202705D01*
X54098Y203259D01*
X54398Y203982D01*
Y204766D01*
X54098Y205489D01*
X53545Y206043D01*
X52821Y206343D01*
D02*
G37*
G36*
X523174Y205511D02*
X522391D01*
X521667Y205212D01*
X521114Y204658D01*
X520814Y203935D01*
Y203151D01*
X521114Y202428D01*
X521667Y201874D01*
X522391Y201574D01*
X523174D01*
X523898Y201874D01*
X524451Y202428D01*
X524751Y203151D01*
Y203935D01*
X524451Y204658D01*
X523898Y205212D01*
X523174Y205511D01*
D02*
G37*
G36*
X209788Y204724D02*
X209005D01*
X208282Y204424D01*
X207728Y203871D01*
X207428Y203147D01*
Y202364D01*
X207728Y201641D01*
X208282Y201087D01*
X209005Y200787D01*
X209788D01*
X210512Y201087D01*
X211066Y201641D01*
X211365Y202364D01*
Y203147D01*
X211066Y203871D01*
X210512Y204424D01*
X209788Y204724D01*
D02*
G37*
G36*
X407152Y204374D02*
X406369D01*
X405645Y204074D01*
X405091Y203521D01*
X404792Y202797D01*
Y202014D01*
X405091Y201290D01*
X405645Y200737D01*
X406369Y200437D01*
X407152D01*
X407875Y200737D01*
X408429Y201290D01*
X408729Y202014D01*
Y202797D01*
X408429Y203521D01*
X407875Y204074D01*
X407152Y204374D01*
D02*
G37*
G36*
X249474Y204249D02*
X248691D01*
X247968Y203949D01*
X247414Y203396D01*
X247114Y202672D01*
Y201889D01*
X247414Y201166D01*
X247968Y200612D01*
X248691Y200312D01*
X249474D01*
X250198Y200612D01*
X250751Y201166D01*
X251051Y201889D01*
Y202672D01*
X250751Y203396D01*
X250198Y203949D01*
X249474Y204249D01*
D02*
G37*
G36*
X564632Y203980D02*
X563849D01*
X563126Y203681D01*
X562572Y203127D01*
X562272Y202403D01*
Y201620D01*
X562572Y200897D01*
X563126Y200343D01*
X563849Y200043D01*
X564632D01*
X565356Y200343D01*
X565909Y200897D01*
X566209Y201620D01*
Y202403D01*
X565909Y203127D01*
X565356Y203681D01*
X564632Y203980D01*
D02*
G37*
G36*
X91404D02*
X90621D01*
X89897Y203681D01*
X89343Y203127D01*
X89044Y202403D01*
Y201620D01*
X89343Y200897D01*
X89897Y200343D01*
X90621Y200043D01*
X91404D01*
X92127Y200343D01*
X92681Y200897D01*
X92981Y201620D01*
Y202403D01*
X92681Y203127D01*
X92127Y203681D01*
X91404Y203980D01*
D02*
G37*
G36*
X552752Y196063D02*
X551968D01*
X551245Y195763D01*
X550691Y195210D01*
X550392Y194486D01*
Y193703D01*
X550691Y192979D01*
X551245Y192426D01*
X551968Y192126D01*
X552752D01*
X553475Y192426D01*
X554029Y192979D01*
X554329Y193703D01*
Y194486D01*
X554029Y195210D01*
X553475Y195763D01*
X552752Y196063D01*
D02*
G37*
G36*
X547242D02*
X546459D01*
X545735Y195763D01*
X545182Y195210D01*
X544882Y194486D01*
Y193703D01*
X545182Y192979D01*
X545735Y192426D01*
X546459Y192126D01*
X547242D01*
X547965Y192426D01*
X548519Y192979D01*
X548819Y193703D01*
Y194486D01*
X548519Y195210D01*
X547965Y195763D01*
X547242Y196063D01*
D02*
G37*
G36*
X395017Y195830D02*
X394234D01*
X393510Y195530D01*
X392956Y194977D01*
X392657Y194253D01*
Y193470D01*
X392956Y192747D01*
X393510Y192193D01*
X394234Y191893D01*
X395017D01*
X395740Y192193D01*
X396294Y192747D01*
X396594Y193470D01*
Y194253D01*
X396294Y194977D01*
X395740Y195530D01*
X395017Y195830D01*
D02*
G37*
G36*
X237537D02*
X236753D01*
X236030Y195530D01*
X235476Y194977D01*
X235176Y194253D01*
Y193470D01*
X235476Y192747D01*
X236030Y192193D01*
X236753Y191893D01*
X237537D01*
X238260Y192193D01*
X238814Y192747D01*
X239113Y193470D01*
Y194253D01*
X238814Y194977D01*
X238260Y195530D01*
X237537Y195830D01*
D02*
G37*
G36*
X389762Y195276D02*
X388979D01*
X388255Y194976D01*
X387701Y194422D01*
X387402Y193699D01*
Y192915D01*
X387701Y192192D01*
X388255Y191638D01*
X388979Y191339D01*
X389762D01*
X390485Y191638D01*
X391039Y192192D01*
X391339Y192915D01*
Y193699D01*
X391039Y194422D01*
X390485Y194976D01*
X389762Y195276D01*
D02*
G37*
G36*
X232084Y195151D02*
X231301D01*
X230577Y194851D01*
X230024Y194297D01*
X229724Y193574D01*
Y192791D01*
X230024Y192067D01*
X230577Y191513D01*
X231301Y191214D01*
X232084D01*
X232807Y191513D01*
X233361Y192067D01*
X233661Y192791D01*
Y193574D01*
X233361Y194297D01*
X232807Y194851D01*
X232084Y195151D01*
D02*
G37*
G36*
X79525Y194882D02*
X78742D01*
X78019Y194582D01*
X77465Y194028D01*
X77165Y193305D01*
Y192522D01*
X77465Y191798D01*
X78019Y191245D01*
X78742Y190945D01*
X79525D01*
X80249Y191245D01*
X80803Y191798D01*
X81102Y192522D01*
Y193305D01*
X80803Y194028D01*
X80249Y194582D01*
X79525Y194882D01*
D02*
G37*
G36*
X74014D02*
X73230D01*
X72507Y194582D01*
X71953Y194028D01*
X71653Y193305D01*
Y192522D01*
X71953Y191798D01*
X72507Y191245D01*
X73230Y190945D01*
X74014D01*
X74737Y191245D01*
X75291Y191798D01*
X75590Y192522D01*
Y193305D01*
X75291Y194028D01*
X74737Y194582D01*
X74014Y194882D01*
D02*
G37*
G36*
X367321Y192913D02*
X366538D01*
X365814Y192614D01*
X365260Y192060D01*
X364961Y191336D01*
Y190553D01*
X365260Y189830D01*
X365814Y189276D01*
X366538Y188976D01*
X367321D01*
X368044Y189276D01*
X368598Y189830D01*
X368898Y190553D01*
Y191336D01*
X368598Y192060D01*
X368044Y192614D01*
X367321Y192913D01*
D02*
G37*
G36*
X53267Y192170D02*
X52484D01*
X51760Y191870D01*
X51207Y191316D01*
X50907Y190593D01*
Y189810D01*
X51207Y189086D01*
X51760Y188532D01*
X52484Y188233D01*
X53267D01*
X53991Y188532D01*
X54544Y189086D01*
X54844Y189810D01*
Y190593D01*
X54544Y191316D01*
X53991Y191870D01*
X53267Y192170D01*
D02*
G37*
G36*
X523620Y191339D02*
X522837D01*
X522113Y191039D01*
X521559Y190485D01*
X521260Y189762D01*
Y188979D01*
X521559Y188255D01*
X522113Y187701D01*
X522837Y187402D01*
X523620D01*
X524343Y187701D01*
X524897Y188255D01*
X525197Y188979D01*
Y189762D01*
X524897Y190485D01*
X524343Y191039D01*
X523620Y191339D01*
D02*
G37*
G36*
X210234Y190551D02*
X209451D01*
X208727Y190252D01*
X208174Y189698D01*
X207874Y188974D01*
Y188191D01*
X208174Y187468D01*
X208727Y186914D01*
X209451Y186614D01*
X210234D01*
X210958Y186914D01*
X211511Y187468D01*
X211811Y188191D01*
Y188974D01*
X211511Y189698D01*
X210958Y190252D01*
X210234Y190551D01*
D02*
G37*
G36*
X398423Y174803D02*
X397640D01*
X396916Y174504D01*
X396363Y173950D01*
X396063Y173226D01*
Y172443D01*
X396363Y171720D01*
X396916Y171166D01*
X397640Y170866D01*
X398423D01*
X399147Y171166D01*
X399700Y171720D01*
X400000Y172443D01*
Y173226D01*
X399700Y173950D01*
X399147Y174504D01*
X398423Y174803D01*
D02*
G37*
G36*
X240745Y174678D02*
X239962D01*
X239239Y174379D01*
X238685Y173825D01*
X238385Y173101D01*
Y172318D01*
X238685Y171595D01*
X239239Y171041D01*
X239962Y170741D01*
X240745D01*
X241469Y171041D01*
X242023Y171595D01*
X242322Y172318D01*
Y173101D01*
X242023Y173825D01*
X241469Y174379D01*
X240745Y174678D01*
D02*
G37*
G36*
X82675Y174409D02*
X81892D01*
X81168Y174110D01*
X80615Y173556D01*
X80315Y172833D01*
Y172049D01*
X80615Y171326D01*
X81168Y170772D01*
X81892Y170473D01*
X82675D01*
X83398Y170772D01*
X83952Y171326D01*
X84252Y172049D01*
Y172833D01*
X83952Y173556D01*
X83398Y174110D01*
X82675Y174409D01*
D02*
G37*
G36*
X564031Y171751D02*
X563248D01*
X562524Y171451D01*
X561971Y170898D01*
X561671Y170174D01*
Y169391D01*
X561971Y168667D01*
X562524Y168114D01*
X563248Y167814D01*
X564031D01*
X564754Y168114D01*
X565308Y168667D01*
X565608Y169391D01*
Y170174D01*
X565308Y170898D01*
X564754Y171451D01*
X564031Y171751D01*
D02*
G37*
G36*
X558322Y170839D02*
X557539D01*
X556815Y170539D01*
X556261Y169985D01*
X555962Y169262D01*
Y168479D01*
X556261Y167755D01*
X556815Y167201D01*
X557539Y166902D01*
X558322D01*
X559045Y167201D01*
X559599Y167755D01*
X559899Y168479D01*
Y169262D01*
X559599Y169985D01*
X559045Y170539D01*
X558322Y170839D01*
D02*
G37*
G36*
X570077Y169291D02*
X569293D01*
X568570Y168992D01*
X568016Y168438D01*
X567717Y167714D01*
Y166931D01*
X568016Y166208D01*
X568570Y165654D01*
X569293Y165354D01*
X570077D01*
X570800Y165654D01*
X571354Y166208D01*
X571654Y166931D01*
Y167714D01*
X571354Y168438D01*
X570800Y168992D01*
X570077Y169291D01*
D02*
G37*
G36*
X402360Y166535D02*
X401577D01*
X400853Y166236D01*
X400300Y165682D01*
X400000Y164959D01*
Y164175D01*
X400300Y163452D01*
X400853Y162898D01*
X401577Y162598D01*
X402360D01*
X403084Y162898D01*
X403637Y163452D01*
X403937Y164175D01*
Y164959D01*
X403637Y165682D01*
X403084Y166236D01*
X402360Y166535D01*
D02*
G37*
G36*
X559447Y166142D02*
X558664D01*
X557940Y165842D01*
X557386Y165288D01*
X557087Y164565D01*
Y163782D01*
X557386Y163058D01*
X557940Y162504D01*
X558664Y162205D01*
X559447D01*
X560170Y162504D01*
X560724Y163058D01*
X561024Y163782D01*
Y164565D01*
X560724Y165288D01*
X560170Y165842D01*
X559447Y166142D01*
D02*
G37*
G36*
X243699D02*
X242916D01*
X242192Y165842D01*
X241638Y165288D01*
X241339Y164565D01*
Y163782D01*
X241638Y163058D01*
X242192Y162504D01*
X242916Y162205D01*
X243699D01*
X244422Y162504D01*
X244976Y163058D01*
X245276Y163782D01*
Y164565D01*
X244976Y165288D01*
X244422Y165842D01*
X243699Y166142D01*
D02*
G37*
G36*
X89701Y165791D02*
X88918D01*
X88194Y165492D01*
X87640Y164938D01*
X87341Y164215D01*
Y163431D01*
X87640Y162708D01*
X88194Y162154D01*
X88918Y161854D01*
X89701D01*
X90424Y162154D01*
X90978Y162708D01*
X91278Y163431D01*
Y164215D01*
X90978Y164938D01*
X90424Y165492D01*
X89701Y165791D01*
D02*
G37*
G36*
X93305Y153937D02*
X92522D01*
X91798Y153637D01*
X91245Y153084D01*
X90945Y152360D01*
Y151577D01*
X91245Y150853D01*
X91798Y150300D01*
X92522Y150000D01*
X93305D01*
X94029Y150300D01*
X94582Y150853D01*
X94882Y151577D01*
Y152360D01*
X94582Y153084D01*
X94029Y153637D01*
X93305Y153937D01*
D02*
G37*
G36*
X64959D02*
X64175D01*
X63452Y153637D01*
X62898Y153084D01*
X62598Y152360D01*
Y151577D01*
X62898Y150853D01*
X63452Y150300D01*
X64175Y150000D01*
X64959D01*
X65682Y150300D01*
X66236Y150853D01*
X66535Y151577D01*
Y152360D01*
X66236Y153084D01*
X65682Y153637D01*
X64959Y153937D01*
D02*
G37*
G36*
X433462Y146457D02*
X432679D01*
X431956Y146157D01*
X431402Y145603D01*
X431102Y144880D01*
Y144097D01*
X431402Y143373D01*
X431956Y142819D01*
X432679Y142520D01*
X433462D01*
X434186Y142819D01*
X434740Y143373D01*
X435039Y144097D01*
Y144880D01*
X434740Y145603D01*
X434186Y146157D01*
X433462Y146457D01*
D02*
G37*
G36*
X357084D02*
X356301D01*
X355578Y146157D01*
X355024Y145603D01*
X354724Y144880D01*
Y144097D01*
X355024Y143373D01*
X355578Y142819D01*
X356301Y142520D01*
X357084D01*
X357808Y142819D01*
X358362Y143373D01*
X358661Y144097D01*
Y144880D01*
X358362Y145603D01*
X357808Y146157D01*
X357084Y146457D01*
D02*
G37*
G36*
X117578Y146300D02*
X116794D01*
X116071Y146000D01*
X115517Y145447D01*
X115217Y144723D01*
Y143940D01*
X115517Y143217D01*
X116071Y142663D01*
X116794Y142363D01*
X117578D01*
X118301Y142663D01*
X118855Y143217D01*
X119155Y143940D01*
Y144723D01*
X118855Y145447D01*
X118301Y146000D01*
X117578Y146300D01*
D02*
G37*
G36*
X275982Y146063D02*
X275199D01*
X274476Y145763D01*
X273922Y145210D01*
X273622Y144486D01*
Y143703D01*
X273922Y142979D01*
X274476Y142426D01*
X275199Y142126D01*
X275982D01*
X276706Y142426D01*
X277259Y142979D01*
X277559Y143703D01*
Y144486D01*
X277259Y145210D01*
X276706Y145763D01*
X275982Y146063D01*
D02*
G37*
G36*
X199604D02*
X198821D01*
X198098Y145763D01*
X197544Y145210D01*
X197244Y144486D01*
Y143703D01*
X197544Y142979D01*
X198098Y142426D01*
X198821Y142126D01*
X199604D01*
X200328Y142426D01*
X200881Y142979D01*
X201181Y143703D01*
Y144486D01*
X200881Y145210D01*
X200328Y145763D01*
X199604Y146063D01*
D02*
G37*
G36*
X42979Y145713D02*
X42195D01*
X41472Y145413D01*
X40918Y144859D01*
X40619Y144136D01*
Y143353D01*
X40918Y142629D01*
X41472Y142075D01*
X42195Y141776D01*
X42979D01*
X43702Y142075D01*
X44256Y142629D01*
X44556Y143353D01*
Y144136D01*
X44256Y144859D01*
X43702Y145413D01*
X42979Y145713D01*
D02*
G37*
G36*
X590943Y145276D02*
X590160D01*
X589436Y144976D01*
X588882Y144422D01*
X588583Y143699D01*
Y142915D01*
X588882Y142192D01*
X589436Y141638D01*
X590160Y141339D01*
X590943D01*
X591666Y141638D01*
X592220Y142192D01*
X592520Y142915D01*
Y143699D01*
X592220Y144422D01*
X591666Y144976D01*
X590943Y145276D01*
D02*
G37*
G36*
X514565D02*
X513782D01*
X513058Y144976D01*
X512504Y144422D01*
X512205Y143699D01*
Y142915D01*
X512504Y142192D01*
X513058Y141638D01*
X513782Y141339D01*
X514565D01*
X515288Y141638D01*
X515842Y142192D01*
X516142Y142915D01*
Y143699D01*
X515842Y144422D01*
X515288Y144976D01*
X514565Y145276D01*
D02*
G37*
G36*
X32753Y116142D02*
X31814D01*
X30945Y115782D01*
X30281Y115118D01*
X29921Y114249D01*
Y113310D01*
X30281Y112442D01*
X30945Y111777D01*
X31814Y111417D01*
X32753D01*
X33621Y111777D01*
X34286Y112442D01*
X34646Y113310D01*
Y114249D01*
X34286Y115118D01*
X33621Y115782D01*
X32753Y116142D01*
D02*
G37*
G36*
X27242D02*
X26302D01*
X25434Y115782D01*
X24769Y115118D01*
X24409Y114249D01*
Y113310D01*
X24769Y112442D01*
X25434Y111777D01*
X26302Y111417D01*
X27242D01*
X28110Y111777D01*
X28774Y112442D01*
X29134Y113310D01*
Y114249D01*
X28774Y115118D01*
X28110Y115782D01*
X27242Y116142D01*
D02*
G37*
G36*
X21336D02*
X20396D01*
X19528Y115782D01*
X18864Y115118D01*
X18504Y114249D01*
Y113310D01*
X18864Y112442D01*
X19528Y111777D01*
X20396Y111417D01*
X21336D01*
X22204Y111777D01*
X22869Y112442D01*
X23228Y113310D01*
Y114249D01*
X22869Y115118D01*
X22204Y115782D01*
X21336Y116142D01*
D02*
G37*
G36*
X80714Y109061D02*
X79931D01*
X79208Y108761D01*
X78654Y108207D01*
X78355Y107484D01*
Y106701D01*
X78654Y105977D01*
X79208Y105423D01*
X79767Y105192D01*
Y104662D01*
X79208Y104430D01*
X78654Y103876D01*
X78355Y103153D01*
Y102370D01*
X78654Y101646D01*
X79208Y101093D01*
X79931Y100793D01*
X80714D01*
X81438Y101093D01*
X81992Y101646D01*
X82292Y102370D01*
Y103153D01*
X81992Y103876D01*
X81438Y104430D01*
X80879Y104662D01*
Y105192D01*
X81438Y105423D01*
X81992Y105977D01*
X82292Y106701D01*
Y107484D01*
X81992Y108207D01*
X81438Y108761D01*
X80714Y109061D01*
D02*
G37*
G36*
X31509Y95614D02*
X30726D01*
X30002Y95315D01*
X29449Y94761D01*
X29149Y94037D01*
Y93254D01*
X29449Y92531D01*
X30002Y91977D01*
X30726Y91677D01*
X31509D01*
X32233Y91977D01*
X32786Y92531D01*
X33086Y93254D01*
Y94037D01*
X32786Y94761D01*
X32233Y95315D01*
X31509Y95614D01*
D02*
G37*
G36*
X25997D02*
X25214D01*
X24491Y95315D01*
X23937Y94761D01*
X23637Y94037D01*
Y93254D01*
X23937Y92531D01*
X24491Y91977D01*
X25214Y91677D01*
X25997D01*
X26721Y91977D01*
X27275Y92531D01*
X27574Y93254D01*
Y94037D01*
X27275Y94761D01*
X26721Y95315D01*
X25997Y95614D01*
D02*
G37*
G36*
X80714Y97988D02*
X79931D01*
X79208Y97688D01*
X78654Y97134D01*
X78355Y96411D01*
Y95628D01*
X78654Y94904D01*
X79208Y94350D01*
X79767Y94119D01*
Y93589D01*
X79208Y93357D01*
X78654Y92804D01*
X78355Y92080D01*
Y91297D01*
X78654Y90574D01*
X79208Y90020D01*
X79931Y89720D01*
X80714D01*
X81438Y90020D01*
X81992Y90574D01*
X82292Y91297D01*
Y92080D01*
X81992Y92804D01*
X81438Y93357D01*
X80879Y93589D01*
Y94119D01*
X81438Y94350D01*
X81992Y94904D01*
X82292Y95628D01*
Y96411D01*
X81992Y97134D01*
X81438Y97688D01*
X80714Y97988D01*
D02*
G37*
G36*
X17388Y90595D02*
X16605D01*
X15881Y90295D01*
X15328Y89741D01*
X15028Y89018D01*
Y88235D01*
X15328Y87511D01*
X15881Y86957D01*
X16605Y86658D01*
X17388D01*
X18112Y86957D01*
X18665Y87511D01*
X18965Y88235D01*
Y89018D01*
X18665Y89741D01*
X18112Y90295D01*
X17388Y90595D01*
D02*
G37*
G36*
X32360Y87008D02*
X31420D01*
X30552Y86648D01*
X29887Y85984D01*
X29596Y85280D01*
X29066D01*
X28774Y85984D01*
X28110Y86648D01*
X27242Y87008D01*
X26302D01*
X25434Y86648D01*
X24769Y85984D01*
X24680Y85769D01*
X24139D01*
X24050Y85984D01*
X23385Y86648D01*
X22517Y87008D01*
X21577D01*
X20709Y86648D01*
X20045Y85984D01*
X19685Y85115D01*
Y84176D01*
X20045Y83308D01*
X20709Y82643D01*
X21577Y82284D01*
X22517D01*
X23385Y82643D01*
X24050Y83308D01*
X24139Y83522D01*
X24680D01*
X24769Y83308D01*
X25434Y82643D01*
X26302Y82284D01*
X27242D01*
X28110Y82643D01*
X28774Y83308D01*
X29066Y84011D01*
X29596D01*
X29887Y83308D01*
X30552Y82643D01*
X31420Y82284D01*
X32360D01*
X33228Y82643D01*
X33892Y83308D01*
X34252Y84176D01*
Y85115D01*
X33892Y85984D01*
X33228Y86648D01*
X32360Y87008D01*
D02*
G37*
G36*
X250824Y89413D02*
X250098D01*
X249397Y89226D01*
X248769Y88863D01*
X248256Y88350D01*
X247893Y87721D01*
X247705Y87020D01*
Y86295D01*
X247893Y85594D01*
X248256Y84965D01*
X248769Y84452D01*
X249397Y84089D01*
X250098Y83902D01*
X250824D01*
X251525Y84089D01*
X252153Y84452D01*
X252666Y84965D01*
X253029Y85594D01*
X253217Y86295D01*
Y87020D01*
X253029Y87721D01*
X252666Y88350D01*
X252153Y88863D01*
X251525Y89226D01*
X250824Y89413D01*
D02*
G37*
G36*
X177588Y84920D02*
X176805D01*
X176081Y84621D01*
X175527Y84067D01*
X175228Y83343D01*
Y82560D01*
X175527Y81837D01*
X176081Y81283D01*
X176805Y80983D01*
X177588D01*
X178311Y81283D01*
X178865Y81837D01*
X179165Y82560D01*
Y83343D01*
X178865Y84067D01*
X178311Y84621D01*
X177588Y84920D01*
D02*
G37*
G36*
X187012Y81081D02*
X186229D01*
X185505Y80781D01*
X184951Y80228D01*
X184950Y80224D01*
X178436D01*
X178436Y80225D01*
X178010Y80140D01*
X177649Y79899D01*
X177649Y79899D01*
X171480Y73729D01*
X171239Y73369D01*
X171154Y72943D01*
X171154Y72943D01*
Y72339D01*
X170839Y72025D01*
X170540Y71301D01*
Y70518D01*
X170839Y69794D01*
X171393Y69241D01*
X172117Y68941D01*
X172485D01*
X172912Y68865D01*
X172973Y68479D01*
Y64232D01*
X165508D01*
X165201Y64171D01*
X164941Y63997D01*
X164767Y63736D01*
X164706Y63429D01*
X164705Y50479D01*
X164767Y50172D01*
X164941Y49912D01*
X165201Y49738D01*
X165508Y49676D01*
X167515D01*
Y44300D01*
X167015Y43966D01*
X166601Y44138D01*
X165817D01*
X165094Y43838D01*
X164540Y43284D01*
X164241Y42561D01*
Y41778D01*
X164540Y41054D01*
X165094Y40501D01*
X165817Y40201D01*
X166601D01*
X167324Y40501D01*
X167750Y40420D01*
X168011Y40246D01*
X168318Y40185D01*
X178427D01*
X178734Y40246D01*
X178994Y40420D01*
X179168Y40681D01*
X179229Y40988D01*
Y50479D01*
Y52858D01*
X183225D01*
X183532Y52919D01*
X183774Y53080D01*
X183820Y53087D01*
X184316Y52977D01*
X184546Y52423D01*
X185100Y51869D01*
X185823Y51569D01*
X186606D01*
X187330Y51869D01*
X187884Y52423D01*
X188183Y53146D01*
Y53929D01*
X187884Y54653D01*
X187330Y55207D01*
X186606Y55506D01*
X185823D01*
X185100Y55207D01*
X184546Y54653D01*
X184528Y54608D01*
X184028Y54708D01*
Y55161D01*
X183967Y55469D01*
X183792Y55729D01*
X183532Y55903D01*
X183225Y55964D01*
X179303Y55964D01*
Y63429D01*
X179242Y63736D01*
X179068Y63997D01*
X178808Y64171D01*
X178500Y64232D01*
X176367D01*
Y68853D01*
X176306Y69161D01*
X176132Y69421D01*
X175872Y69595D01*
X175565Y69656D01*
X174661D01*
X174327Y70156D01*
X174477Y70518D01*
Y71301D01*
X174177Y72025D01*
X173623Y72578D01*
X173599Y72703D01*
X175188Y74292D01*
X175564Y73993D01*
X175264Y73270D01*
Y72487D01*
X175564Y71763D01*
X176118Y71209D01*
X176841Y70910D01*
X177624D01*
X178348Y71209D01*
X178902Y71763D01*
X179201Y72487D01*
Y73270D01*
X178902Y73993D01*
X178348Y74547D01*
X177624Y74847D01*
X176841D01*
X176118Y74547D01*
X175819Y74923D01*
X178896Y78001D01*
X184950D01*
X184951Y77997D01*
X185505Y77444D01*
X186229Y77144D01*
X187012D01*
X187735Y77444D01*
X188289Y77997D01*
X188589Y78721D01*
Y79504D01*
X188289Y80228D01*
X187735Y80781D01*
X187012Y81081D01*
D02*
G37*
G36*
X94081Y79965D02*
X93298D01*
X92574Y79665D01*
X92020Y79111D01*
X92019Y79108D01*
X79201D01*
X79201Y79108D01*
X78776Y79023D01*
X78415Y78782D01*
X78415Y78782D01*
X67785Y68152D01*
X67544Y67792D01*
X67459Y67366D01*
X67459Y67366D01*
Y57917D01*
X67459Y57917D01*
X67544Y57492D01*
X67785Y57131D01*
X68705Y56211D01*
X69066Y55970D01*
X69492Y55885D01*
X70337D01*
X70446Y55621D01*
X70999Y55067D01*
X71723Y54768D01*
X72506D01*
X73230Y55067D01*
X73783Y55621D01*
X74083Y56345D01*
Y57128D01*
X73783Y57851D01*
X73230Y58405D01*
X72506Y58705D01*
X72469D01*
X72369Y59205D01*
X72836Y59398D01*
X73390Y59952D01*
X73391Y59955D01*
X78827D01*
X85588Y53194D01*
X85949Y52953D01*
X86374Y52868D01*
X86374Y52868D01*
X90430D01*
X90622Y52407D01*
X81564Y43349D01*
X81561Y43350D01*
X80778D01*
X80055Y43051D01*
X79501Y42497D01*
X79201Y41774D01*
Y40990D01*
X79501Y40267D01*
X80055Y39713D01*
X80778Y39413D01*
X81561D01*
X82285Y39713D01*
X82838Y40267D01*
X83138Y40990D01*
Y41774D01*
X83137Y41777D01*
X94229Y52868D01*
X100366D01*
X100367Y52865D01*
X100921Y52312D01*
X101644Y52012D01*
X102427D01*
X103151Y52312D01*
X103705Y52865D01*
X104004Y53589D01*
Y54372D01*
X103705Y55095D01*
X103151Y55649D01*
X102427Y55949D01*
X101644D01*
X100921Y55649D01*
X100367Y55095D01*
X100366Y55092D01*
X93768D01*
X93768Y55092D01*
X93768Y55092D01*
X86835D01*
X80074Y61853D01*
X79713Y62094D01*
X79288Y62179D01*
X79288Y62179D01*
X73391D01*
X73390Y62182D01*
X72836Y62736D01*
X72112Y63036D01*
X71329D01*
X70606Y62736D01*
X70183Y62313D01*
X69683Y62499D01*
Y66906D01*
X79662Y76884D01*
X92019D01*
X92020Y76881D01*
X92574Y76327D01*
X93298Y76028D01*
X94081D01*
X94804Y76327D01*
X95358Y76881D01*
X95658Y77605D01*
Y78388D01*
X95358Y79111D01*
X94804Y79665D01*
X94081Y79965D01*
D02*
G37*
G36*
X76443Y82721D02*
X75660D01*
X74936Y82421D01*
X74383Y81867D01*
X74083Y81144D01*
Y80361D01*
X74383Y79637D01*
X74936Y79083D01*
X75660Y78784D01*
X76443D01*
X77167Y79083D01*
X77720Y79637D01*
X78020Y80361D01*
Y81144D01*
X77720Y81867D01*
X77167Y82421D01*
X76443Y82721D01*
D02*
G37*
G36*
X257517Y89413D02*
X256791D01*
X256090Y89226D01*
X255462Y88863D01*
X254949Y88350D01*
X254586Y87721D01*
X254398Y87020D01*
Y86295D01*
X254586Y85594D01*
X254949Y84965D01*
X255462Y84452D01*
X256090Y84089D01*
X256757Y83911D01*
X256783Y83869D01*
X256676Y83372D01*
X256484Y83320D01*
X255855Y82957D01*
X255342Y82444D01*
X254979Y81816D01*
X254792Y81115D01*
Y80389D01*
X254979Y79688D01*
X255342Y79060D01*
X255855Y78547D01*
X256484Y78184D01*
X257185Y77996D01*
X257910D01*
X258611Y78184D01*
X259240Y78547D01*
X259753Y79060D01*
X260116Y79688D01*
X260303Y80389D01*
Y81115D01*
X260116Y81816D01*
X259753Y82444D01*
X259240Y82957D01*
X258611Y83320D01*
X257945Y83499D01*
X257919Y83541D01*
X258026Y84038D01*
X258218Y84089D01*
X258846Y84452D01*
X259359Y84965D01*
X259722Y85594D01*
X259910Y86295D01*
Y87020D01*
X259722Y87721D01*
X259359Y88350D01*
X258846Y88863D01*
X258218Y89226D01*
X257517Y89413D01*
D02*
G37*
G36*
X17782Y80752D02*
X16999D01*
X16275Y80452D01*
X15721Y79899D01*
X15422Y79175D01*
Y78392D01*
X15721Y77668D01*
X16275Y77115D01*
X16999Y76815D01*
X17782D01*
X18505Y77115D01*
X19059Y77668D01*
X19359Y78392D01*
Y79175D01*
X19059Y79899D01*
X18505Y80452D01*
X17782Y80752D01*
D02*
G37*
G36*
X238424Y80709D02*
X237641D01*
X236917Y80409D01*
X236364Y79856D01*
X236064Y79132D01*
Y78349D01*
X236364Y77625D01*
X236917Y77072D01*
X237641Y76772D01*
X238424D01*
X239147Y77072D01*
X239701Y77625D01*
X240001Y78349D01*
Y79132D01*
X239701Y79856D01*
X239147Y80409D01*
X238424Y80709D01*
D02*
G37*
G36*
X200065Y80358D02*
X199282D01*
X198558Y80059D01*
X198005Y79505D01*
X197705Y78781D01*
Y77998D01*
X198005Y77275D01*
X198558Y76721D01*
X199282Y76421D01*
X200065D01*
X200789Y76721D01*
X201342Y77275D01*
X201642Y77998D01*
Y78781D01*
X201342Y79505D01*
X200789Y80059D01*
X200065Y80358D01*
D02*
G37*
G36*
X157939Y79571D02*
X157156D01*
X156432Y79271D01*
X155879Y78717D01*
X155579Y77994D01*
Y77211D01*
X155879Y76487D01*
X156432Y75934D01*
X157156Y75634D01*
X157939D01*
X158663Y75934D01*
X159216Y76487D01*
X159516Y77211D01*
Y77994D01*
X159216Y78717D01*
X158663Y79271D01*
X157939Y79571D01*
D02*
G37*
G36*
X150065Y77602D02*
X149282D01*
X148558Y77303D01*
X148005Y76749D01*
X147705Y76025D01*
Y75242D01*
X148005Y74519D01*
X148558Y73965D01*
X149282Y73665D01*
X150065D01*
X150789Y73965D01*
X151342Y74519D01*
X151642Y75242D01*
Y76025D01*
X151342Y76749D01*
X150789Y77303D01*
X150065Y77602D01*
D02*
G37*
G36*
X200065Y74584D02*
X199282D01*
X198558Y74284D01*
X198005Y73731D01*
X197705Y73007D01*
Y72224D01*
X198005Y71500D01*
X198558Y70947D01*
X199282Y70647D01*
X200065D01*
X200789Y70947D01*
X201342Y71500D01*
X201642Y72224D01*
Y73007D01*
X201342Y73731D01*
X200789Y74284D01*
X200065Y74584D01*
D02*
G37*
G36*
X30380Y74059D02*
X29597D01*
X28874Y73759D01*
X28320Y73206D01*
X28020Y72482D01*
Y71699D01*
X28320Y70976D01*
X28874Y70422D01*
X29597Y70122D01*
X30380D01*
X31104Y70422D01*
X31657Y70976D01*
X31957Y71699D01*
Y72482D01*
X31657Y73206D01*
X31104Y73759D01*
X30380Y74059D01*
D02*
G37*
G36*
X24868D02*
X24085D01*
X23362Y73759D01*
X22808Y73206D01*
X22508Y72482D01*
Y71699D01*
X22808Y70976D01*
X23362Y70422D01*
X24085Y70122D01*
X24868D01*
X25592Y70422D01*
X26146Y70976D01*
X26445Y71699D01*
Y72482D01*
X26146Y73206D01*
X25592Y73759D01*
X24868Y74059D01*
D02*
G37*
G36*
X243542Y73229D02*
X242759D01*
X242036Y72929D01*
X241482Y72375D01*
X241182Y71652D01*
Y70869D01*
X241482Y70145D01*
X242036Y69591D01*
X242759Y69292D01*
X243542D01*
X244266Y69591D01*
X244819Y70145D01*
X245119Y70869D01*
Y71652D01*
X244819Y72375D01*
X244266Y72929D01*
X243542Y73229D01*
D02*
G37*
G36*
X200065Y68810D02*
X199282D01*
X198558Y68510D01*
X198005Y67956D01*
X197705Y67233D01*
Y66450D01*
X198005Y65726D01*
X198558Y65172D01*
X199282Y64873D01*
X200065D01*
X200789Y65172D01*
X201342Y65726D01*
X201642Y66450D01*
Y67233D01*
X201342Y67956D01*
X200789Y68510D01*
X200065Y68810D01*
D02*
G37*
G36*
X243542Y68111D02*
X242759D01*
X242036Y67811D01*
X241482Y67257D01*
X241182Y66534D01*
Y65750D01*
X241482Y65027D01*
X242036Y64473D01*
X242759Y64174D01*
X243542D01*
X244266Y64473D01*
X244819Y65027D01*
X245119Y65750D01*
Y66534D01*
X244819Y67257D01*
X244266Y67811D01*
X243542Y68111D01*
D02*
G37*
G36*
X146522Y65791D02*
X145739D01*
X145015Y65492D01*
X144462Y64938D01*
X144162Y64214D01*
Y63431D01*
X144462Y62708D01*
X145015Y62154D01*
X145739Y61854D01*
X146522D01*
X147245Y62154D01*
X147799Y62708D01*
X148099Y63431D01*
Y64214D01*
X147799Y64938D01*
X147245Y65492D01*
X146522Y65791D01*
D02*
G37*
G36*
X252508Y63650D02*
X251725D01*
X251002Y63351D01*
X250448Y62797D01*
X250148Y62073D01*
Y61290D01*
X250448Y60567D01*
X251002Y60013D01*
X251725Y59713D01*
X252508D01*
X253232Y60013D01*
X253786Y60567D01*
X254085Y61290D01*
Y62073D01*
X253786Y62797D01*
X253232Y63351D01*
X252508Y63650D01*
D02*
G37*
G36*
X61029Y67673D02*
X60246D01*
X59523Y67373D01*
X58969Y66819D01*
X58669Y66096D01*
Y65313D01*
X58969Y64589D01*
X59523Y64035D01*
X60082Y63804D01*
Y63274D01*
X59523Y63042D01*
X58969Y62489D01*
X58669Y61765D01*
Y60982D01*
X58969Y60259D01*
X59523Y59705D01*
X60246Y59405D01*
X61029D01*
X61753Y59705D01*
X62307Y60259D01*
X62606Y60982D01*
Y61765D01*
X62307Y62489D01*
X61753Y63042D01*
X61194Y63274D01*
Y63804D01*
X61753Y64035D01*
X62307Y64589D01*
X62606Y65313D01*
Y66096D01*
X62307Y66819D01*
X61753Y67373D01*
X61029Y67673D01*
D02*
G37*
G36*
X23746Y67552D02*
X22963D01*
X22240Y67252D01*
X21686Y66698D01*
X21386Y65975D01*
Y65192D01*
X21686Y64468D01*
X22240Y63914D01*
X22799Y63683D01*
Y63153D01*
X22240Y62921D01*
X21686Y62368D01*
X21386Y61644D01*
Y60861D01*
X21686Y60137D01*
X22240Y59584D01*
X22963Y59284D01*
X23746D01*
X24470Y59584D01*
X25024Y60137D01*
X25323Y60861D01*
Y61644D01*
X25024Y62368D01*
X24470Y62921D01*
X23911Y63153D01*
Y63683D01*
X24470Y63914D01*
X25024Y64468D01*
X25323Y65192D01*
Y65975D01*
X25024Y66698D01*
X24470Y67252D01*
X23746Y67552D01*
D02*
G37*
G36*
X200065Y63036D02*
X199282D01*
X198558Y62736D01*
X198005Y62182D01*
X197705Y61459D01*
Y60675D01*
X198005Y59952D01*
X198558Y59398D01*
X199282Y59099D01*
X200065D01*
X200789Y59398D01*
X201342Y59952D01*
X201642Y60675D01*
Y61459D01*
X201342Y62182D01*
X200789Y62736D01*
X200065Y63036D01*
D02*
G37*
G36*
X133225Y74862D02*
X85587D01*
X85280Y74801D01*
X85019Y74627D01*
X84845Y74366D01*
X84784Y74059D01*
Y58705D01*
X84845Y58398D01*
X85019Y58137D01*
X85280Y57963D01*
X85587Y57902D01*
X133225D01*
X133532Y57963D01*
X133792Y58137D01*
X133967Y58398D01*
X134028Y58705D01*
Y74059D01*
X133967Y74366D01*
X133792Y74627D01*
X133532Y74801D01*
X133225Y74862D01*
D02*
G37*
G36*
X156305Y60488D02*
X155522D01*
X154798Y60188D01*
X154245Y59634D01*
X153945Y58911D01*
Y58128D01*
X154245Y57404D01*
X154798Y56850D01*
X155522Y56551D01*
X156305D01*
X157029Y56850D01*
X157582Y57404D01*
X157882Y58128D01*
Y58911D01*
X157582Y59634D01*
X157029Y60188D01*
X156305Y60488D01*
D02*
G37*
G36*
X151210Y60117D02*
X150427D01*
X149703Y59818D01*
X149149Y59264D01*
X148850Y58540D01*
Y57757D01*
X149149Y57034D01*
X149703Y56480D01*
X150427Y56180D01*
X151210D01*
X151933Y56480D01*
X152487Y57034D01*
X152787Y57757D01*
Y58540D01*
X152487Y59264D01*
X151933Y59818D01*
X151210Y60117D01*
D02*
G37*
G36*
X274251Y58662D02*
X273468D01*
X272744Y58362D01*
X272190Y57808D01*
X271891Y57085D01*
Y56302D01*
X272190Y55578D01*
X272744Y55024D01*
X273468Y54725D01*
X274251D01*
X274974Y55024D01*
X275528Y55578D01*
X275828Y56302D01*
Y57085D01*
X275528Y57808D01*
X274974Y58362D01*
X274251Y58662D01*
D02*
G37*
G36*
X243148Y62205D02*
X242365D01*
X241642Y61905D01*
X241088Y61352D01*
X240788Y60628D01*
Y59845D01*
X241088Y59122D01*
X241418Y58792D01*
X241588Y58465D01*
X241418Y58138D01*
X241088Y57808D01*
X240788Y57085D01*
Y56302D01*
X241088Y55578D01*
X241642Y55024D01*
X242365Y54725D01*
X243148D01*
X243872Y55024D01*
X244426Y55578D01*
X244725Y56302D01*
Y57085D01*
X244426Y57808D01*
X244096Y58138D01*
X243925Y58465D01*
X244096Y58792D01*
X244426Y59122D01*
X244725Y59845D01*
Y60628D01*
X244426Y61352D01*
X243872Y61905D01*
X243148Y62205D01*
D02*
G37*
G36*
X403872Y58396D02*
X402939D01*
X402038Y58154D01*
X401230Y57688D01*
X400570Y57028D01*
X400104Y56220D01*
X399862Y55319D01*
Y54386D01*
X400104Y53485D01*
X400570Y52677D01*
X401230Y52017D01*
X402038Y51551D01*
X402939Y51309D01*
X403872D01*
X404773Y51551D01*
X405581Y52017D01*
X406241Y52677D01*
X406707Y53485D01*
X406949Y54386D01*
Y55319D01*
X406707Y56220D01*
X406241Y57028D01*
X405581Y57688D01*
X404773Y58154D01*
X403872Y58396D01*
D02*
G37*
G36*
X393872D02*
X392939D01*
X392038Y58154D01*
X391230Y57688D01*
X390570Y57028D01*
X390104Y56220D01*
X389862Y55319D01*
Y54386D01*
X390104Y53485D01*
X390570Y52677D01*
X391230Y52017D01*
X392038Y51551D01*
X392939Y51309D01*
X393872D01*
X394773Y51551D01*
X395581Y52017D01*
X396241Y52677D01*
X396707Y53485D01*
X396949Y54386D01*
Y55319D01*
X396707Y56220D01*
X396241Y57028D01*
X395581Y57688D01*
X394773Y58154D01*
X393872Y58396D01*
D02*
G37*
G36*
X383872D02*
X382939D01*
X382038Y58154D01*
X381230Y57688D01*
X380570Y57028D01*
X380104Y56220D01*
X379862Y55319D01*
Y54386D01*
X380104Y53485D01*
X380570Y52677D01*
X381230Y52017D01*
X382038Y51551D01*
X382939Y51309D01*
X383872D01*
X384773Y51551D01*
X385581Y52017D01*
X386241Y52677D01*
X386707Y53485D01*
X386949Y54386D01*
Y55319D01*
X386707Y56220D01*
X386241Y57028D01*
X385581Y57688D01*
X384773Y58154D01*
X383872Y58396D01*
D02*
G37*
G36*
X373872D02*
X372939D01*
X372038Y58154D01*
X371230Y57688D01*
X370570Y57028D01*
X370104Y56220D01*
X369862Y55319D01*
Y54386D01*
X370104Y53485D01*
X370570Y52677D01*
X371230Y52017D01*
X372038Y51551D01*
X372939Y51309D01*
X373872D01*
X374773Y51551D01*
X375581Y52017D01*
X376241Y52677D01*
X376707Y53485D01*
X376949Y54386D01*
Y55319D01*
X376707Y56220D01*
X376241Y57028D01*
X375581Y57688D01*
X374773Y58154D01*
X373872Y58396D01*
D02*
G37*
G36*
X72506Y53587D02*
X71723D01*
X70999Y53287D01*
X70446Y52733D01*
X70146Y52010D01*
Y51227D01*
X70446Y50503D01*
X70999Y49949D01*
X71723Y49650D01*
X72506D01*
X73230Y49949D01*
X73783Y50503D01*
X74083Y51227D01*
Y52010D01*
X73783Y52733D01*
X73230Y53287D01*
X72506Y53587D01*
D02*
G37*
G36*
X61029Y56551D02*
X60246D01*
X59523Y56251D01*
X58969Y55697D01*
X58669Y54974D01*
Y54191D01*
X58969Y53467D01*
X59523Y52913D01*
X60082Y52682D01*
Y52152D01*
X59523Y51920D01*
X58969Y51367D01*
X58669Y50643D01*
Y49860D01*
X58969Y49136D01*
X59523Y48583D01*
X60246Y48283D01*
X61029D01*
X61753Y48583D01*
X62307Y49136D01*
X62606Y49860D01*
Y50643D01*
X62307Y51367D01*
X61753Y51920D01*
X61194Y52152D01*
Y52682D01*
X61753Y52913D01*
X62307Y53467D01*
X62606Y54191D01*
Y54974D01*
X62307Y55697D01*
X61753Y56251D01*
X61029Y56551D01*
D02*
G37*
G36*
X23746Y56479D02*
X22963D01*
X22240Y56179D01*
X21686Y55625D01*
X21386Y54902D01*
Y54119D01*
X21686Y53395D01*
X22240Y52842D01*
X22799Y52610D01*
Y52080D01*
X22240Y51849D01*
X21686Y51295D01*
X21386Y50571D01*
Y49788D01*
X21686Y49065D01*
X22240Y48511D01*
X22963Y48211D01*
X23746D01*
X24470Y48511D01*
X25024Y49065D01*
X25323Y49788D01*
Y50571D01*
X25024Y51295D01*
X24470Y51849D01*
X23911Y52080D01*
Y52610D01*
X24470Y52842D01*
X25024Y53395D01*
X25323Y54119D01*
Y54902D01*
X25024Y55625D01*
X24470Y56179D01*
X23746Y56479D01*
D02*
G37*
G36*
X100029Y51456D02*
X99246D01*
X98522Y51156D01*
X97968Y50602D01*
X97669Y49879D01*
Y49096D01*
X97968Y48372D01*
X98522Y47818D01*
X99246Y47519D01*
X100029D01*
X100752Y47818D01*
X101306Y48372D01*
X101606Y49096D01*
Y49879D01*
X101306Y50602D01*
X100752Y51156D01*
X100029Y51456D01*
D02*
G37*
G36*
X398872Y48396D02*
X397939D01*
X397038Y48154D01*
X396230Y47688D01*
X395570Y47028D01*
X395104Y46220D01*
X394862Y45319D01*
Y44386D01*
X395104Y43485D01*
X395570Y42677D01*
X396230Y42017D01*
X397038Y41550D01*
X397939Y41309D01*
X398872D01*
X399773Y41550D01*
X400581Y42017D01*
X401241Y42677D01*
X401707Y43485D01*
X401949Y44386D01*
Y45319D01*
X401707Y46220D01*
X401241Y47028D01*
X400581Y47688D01*
X399773Y48154D01*
X398872Y48396D01*
D02*
G37*
G36*
X388872D02*
X387939D01*
X387038Y48154D01*
X386230Y47688D01*
X385570Y47028D01*
X385104Y46220D01*
X384862Y45319D01*
Y44386D01*
X385104Y43485D01*
X385570Y42677D01*
X386230Y42017D01*
X387038Y41550D01*
X387939Y41309D01*
X388872D01*
X389773Y41550D01*
X390581Y42017D01*
X391241Y42677D01*
X391707Y43485D01*
X391949Y44386D01*
Y45319D01*
X391707Y46220D01*
X391241Y47028D01*
X390581Y47688D01*
X389773Y48154D01*
X388872Y48396D01*
D02*
G37*
G36*
X378872D02*
X377939D01*
X377038Y48154D01*
X376230Y47688D01*
X375570Y47028D01*
X375104Y46220D01*
X374862Y45319D01*
Y44386D01*
X375104Y43485D01*
X375570Y42677D01*
X376230Y42017D01*
X377038Y41550D01*
X377939Y41309D01*
X378872D01*
X379773Y41550D01*
X380581Y42017D01*
X381241Y42677D01*
X381707Y43485D01*
X381949Y44386D01*
Y45319D01*
X381707Y46220D01*
X381241Y47028D01*
X380581Y47688D01*
X379773Y48154D01*
X378872Y48396D01*
D02*
G37*
G36*
X368872D02*
X367939D01*
X367038Y48154D01*
X366230Y47688D01*
X365570Y47028D01*
X365104Y46220D01*
X364862Y45319D01*
Y44386D01*
X365104Y43485D01*
X365570Y42677D01*
X366230Y42017D01*
X367038Y41550D01*
X367939Y41309D01*
X368872D01*
X369773Y41550D01*
X370581Y42017D01*
X371241Y42677D01*
X371707Y43485D01*
X371949Y44386D01*
Y45319D01*
X371707Y46220D01*
X371241Y47028D01*
X370581Y47688D01*
X369773Y48154D01*
X368872Y48396D01*
D02*
G37*
G36*
X97309Y45713D02*
X96526D01*
X95803Y45413D01*
X95249Y44859D01*
X94949Y44136D01*
Y43353D01*
X95249Y42629D01*
X95803Y42075D01*
X96361Y41844D01*
Y41314D01*
X95803Y41082D01*
X95249Y40529D01*
X94949Y39805D01*
Y39022D01*
X95249Y38298D01*
X95803Y37745D01*
X96526Y37445D01*
X97309D01*
X98033Y37745D01*
X98586Y38298D01*
X98886Y39022D01*
Y39805D01*
X98586Y40529D01*
X98033Y41082D01*
X97474Y41314D01*
Y41844D01*
X98033Y42075D01*
X98586Y42629D01*
X98886Y43353D01*
Y44136D01*
X98586Y44859D01*
X98033Y45413D01*
X97309Y45713D01*
D02*
G37*
G36*
X61029Y45478D02*
X60246D01*
X59523Y45178D01*
X58969Y44625D01*
X58669Y43901D01*
Y43118D01*
X58969Y42394D01*
X59523Y41841D01*
X60082Y41609D01*
Y41079D01*
X59523Y40848D01*
X58969Y40294D01*
X58669Y39570D01*
Y38787D01*
X58969Y38064D01*
X59523Y37510D01*
X60246Y37210D01*
X61029D01*
X61753Y37510D01*
X62307Y38064D01*
X62606Y38787D01*
Y39570D01*
X62307Y40294D01*
X61753Y40848D01*
X61194Y41079D01*
Y41609D01*
X61753Y41841D01*
X62307Y42394D01*
X62606Y43118D01*
Y43901D01*
X62307Y44625D01*
X61753Y45178D01*
X61029Y45478D01*
D02*
G37*
G36*
X23746Y45406D02*
X22963D01*
X22240Y45106D01*
X21686Y44553D01*
X21386Y43829D01*
Y43046D01*
X21686Y42322D01*
X22240Y41769D01*
X22799Y41537D01*
Y41007D01*
X22240Y40776D01*
X21686Y40222D01*
X21386Y39498D01*
Y38715D01*
X21686Y37992D01*
X22240Y37438D01*
X22963Y37138D01*
X23746D01*
X24470Y37438D01*
X25024Y37992D01*
X25323Y38715D01*
Y39498D01*
X25024Y40222D01*
X24470Y40776D01*
X23911Y41007D01*
Y41537D01*
X24470Y41769D01*
X25024Y42322D01*
X25323Y43046D01*
Y43829D01*
X25024Y44553D01*
X24470Y45106D01*
X23746Y45406D01*
D02*
G37*
G36*
X259290Y40551D02*
X258507D01*
X257784Y40252D01*
X257230Y39698D01*
X256930Y38975D01*
Y38192D01*
X257230Y37468D01*
X257784Y36914D01*
X258507Y36615D01*
X259290D01*
X260014Y36914D01*
X260567Y37468D01*
X260867Y38192D01*
Y38975D01*
X260567Y39698D01*
X260014Y40252D01*
X259290Y40551D01*
D02*
G37*
G36*
X254172D02*
X253389D01*
X252665Y40252D01*
X252112Y39698D01*
X251812Y38975D01*
Y38192D01*
X252112Y37468D01*
X252665Y36914D01*
X253389Y36615D01*
X254172D01*
X254895Y36914D01*
X255449Y37468D01*
X255749Y38192D01*
Y38975D01*
X255449Y39698D01*
X254895Y40252D01*
X254172Y40551D01*
D02*
G37*
G36*
X183136Y40201D02*
X182353D01*
X181629Y39901D01*
X181076Y39347D01*
X180776Y38624D01*
Y37841D01*
X181076Y37117D01*
X181629Y36564D01*
X182353Y36264D01*
X183136D01*
X183860Y36564D01*
X184413Y37117D01*
X184713Y37841D01*
Y38624D01*
X184413Y39347D01*
X183860Y39901D01*
X183136Y40201D01*
D02*
G37*
G36*
X160695Y37445D02*
X159912D01*
X159188Y37145D01*
X158635Y36592D01*
X158335Y35868D01*
Y35085D01*
X158635Y34361D01*
X159188Y33808D01*
X159912Y33508D01*
X160695D01*
X161419Y33808D01*
X161972Y34361D01*
X162272Y35085D01*
Y35868D01*
X161972Y36592D01*
X161419Y37145D01*
X160695Y37445D01*
D02*
G37*
G36*
X140223D02*
X139439D01*
X138716Y37145D01*
X138162Y36592D01*
X137863Y35868D01*
Y35085D01*
X138162Y34361D01*
X138716Y33808D01*
X139439Y33508D01*
X140223D01*
X140946Y33808D01*
X141500Y34361D01*
X141800Y35085D01*
Y35868D01*
X141500Y36592D01*
X140946Y37145D01*
X140223Y37445D01*
D02*
G37*
G36*
X72045Y37008D02*
X71262D01*
X70539Y36708D01*
X69985Y36154D01*
X69685Y35431D01*
Y34648D01*
X69985Y33924D01*
X70539Y33371D01*
X71262Y33071D01*
X72045D01*
X72769Y33371D01*
X73322Y33924D01*
X73622Y34648D01*
Y35431D01*
X73322Y36154D01*
X72769Y36708D01*
X72045Y37008D01*
D02*
G37*
G36*
X223070Y35433D02*
X222287D01*
X221563Y35134D01*
X221009Y34580D01*
X220710Y33856D01*
Y33073D01*
X221009Y32350D01*
X221563Y31796D01*
X222287Y31496D01*
X223070D01*
X223793Y31796D01*
X224347Y32350D01*
X224647Y33073D01*
Y33856D01*
X224347Y34580D01*
X223793Y35134D01*
X223070Y35433D01*
D02*
G37*
G36*
X214563D02*
X213779D01*
X213056Y35134D01*
X212502Y34580D01*
X212203Y33856D01*
Y33073D01*
X212502Y32350D01*
X213056Y31796D01*
X213779Y31496D01*
X214563D01*
X215286Y31796D01*
X215840Y32350D01*
X216140Y33073D01*
Y33856D01*
X215840Y34580D01*
X215286Y35134D01*
X214563Y35433D01*
D02*
G37*
G36*
X206056D02*
X205273D01*
X204549Y35134D01*
X203995Y34580D01*
X203696Y33856D01*
Y33073D01*
X203995Y32350D01*
X204549Y31796D01*
X205273Y31496D01*
X206056D01*
X206779Y31796D01*
X207333Y32350D01*
X207632Y33073D01*
Y33856D01*
X207333Y34580D01*
X206779Y35134D01*
X206056Y35433D01*
D02*
G37*
G36*
X198266D02*
X197483D01*
X196760Y35134D01*
X196206Y34580D01*
X195906Y33856D01*
Y33073D01*
X196206Y32350D01*
X196760Y31796D01*
X197483Y31496D01*
X198266D01*
X198990Y31796D01*
X199544Y32350D01*
X199844Y33073D01*
Y33856D01*
X199544Y34580D01*
X198990Y35134D01*
X198266Y35433D01*
D02*
G37*
G36*
X189605D02*
X188822D01*
X188099Y35134D01*
X187545Y34580D01*
X187245Y33856D01*
Y33073D01*
X187545Y32350D01*
X188099Y31796D01*
X188822Y31496D01*
X189605D01*
X190329Y31796D01*
X190882Y32350D01*
X191182Y33073D01*
Y33856D01*
X190882Y34580D01*
X190329Y35134D01*
X189605Y35433D01*
D02*
G37*
G36*
X155183Y33508D02*
X154400D01*
X153677Y33208D01*
X153123Y32655D01*
X152823Y31931D01*
Y31148D01*
X153123Y30424D01*
X153677Y29871D01*
X154400Y29571D01*
X155183D01*
X155907Y29871D01*
X156460Y30424D01*
X156760Y31148D01*
Y31931D01*
X156460Y32655D01*
X155907Y33208D01*
X155183Y33508D01*
D02*
G37*
G36*
X145734D02*
X144951D01*
X144228Y33208D01*
X143674Y32655D01*
X143374Y31931D01*
Y31148D01*
X143674Y30424D01*
X144228Y29871D01*
X144951Y29571D01*
X145734D01*
X146458Y29871D01*
X147012Y30424D01*
X147311Y31148D01*
Y31931D01*
X147012Y32655D01*
X146458Y33208D01*
X145734Y33508D01*
D02*
G37*
G36*
X97309Y34640D02*
X96526D01*
X95803Y34340D01*
X95249Y33786D01*
X94949Y33063D01*
Y32280D01*
X95249Y31556D01*
X95803Y31003D01*
X96361Y30771D01*
Y30241D01*
X95803Y30009D01*
X95249Y29456D01*
X94949Y28732D01*
Y27949D01*
X95249Y27226D01*
X95803Y26672D01*
X96526Y26372D01*
X97309D01*
X98033Y26672D01*
X98586Y27226D01*
X98886Y27949D01*
Y28732D01*
X98586Y29456D01*
X98033Y30009D01*
X97474Y30241D01*
Y30771D01*
X98033Y31003D01*
X98586Y31556D01*
X98886Y32280D01*
Y33063D01*
X98586Y33786D01*
X98033Y34340D01*
X97309Y34640D01*
D02*
G37*
G36*
X61029Y34405D02*
X60246D01*
X59523Y34105D01*
X58969Y33552D01*
X58669Y32828D01*
Y32045D01*
X58969Y31321D01*
X59523Y30768D01*
X60082Y30536D01*
Y30006D01*
X59523Y29775D01*
X58969Y29221D01*
X58669Y28497D01*
Y27714D01*
X58969Y26991D01*
X59523Y26437D01*
X60246Y26137D01*
X61029D01*
X61753Y26437D01*
X62307Y26991D01*
X62606Y27714D01*
Y28497D01*
X62307Y29221D01*
X61753Y29775D01*
X61194Y30006D01*
Y30536D01*
X61753Y30768D01*
X62307Y31321D01*
X62606Y32045D01*
Y32828D01*
X62307Y33552D01*
X61753Y34105D01*
X61029Y34405D01*
D02*
G37*
G36*
X23746Y34284D02*
X22963D01*
X22240Y33984D01*
X21686Y33431D01*
X21386Y32707D01*
Y31924D01*
X21686Y31201D01*
X22240Y30647D01*
X22799Y30415D01*
Y29885D01*
X22240Y29654D01*
X21686Y29100D01*
X21386Y28376D01*
Y27593D01*
X21686Y26870D01*
X22240Y26316D01*
X22963Y26016D01*
X23746D01*
X24470Y26316D01*
X25024Y26870D01*
X25323Y27593D01*
Y28376D01*
X25024Y29100D01*
X24470Y29654D01*
X23911Y29885D01*
Y30415D01*
X24470Y30647D01*
X25024Y31201D01*
X25323Y31924D01*
Y32707D01*
X25024Y33431D01*
X24470Y33984D01*
X23746Y34284D01*
D02*
G37*
G36*
X159908Y28390D02*
X159125D01*
X158401Y28090D01*
X157847Y27536D01*
X157548Y26813D01*
Y26030D01*
X157847Y25306D01*
X158401Y24753D01*
X159125Y24453D01*
X159908D01*
X160631Y24753D01*
X161185Y25306D01*
X161485Y26030D01*
Y26813D01*
X161185Y27536D01*
X160631Y28090D01*
X159908Y28390D01*
D02*
G37*
G36*
X149604Y24803D02*
X148821D01*
X148098Y24503D01*
X147544Y23950D01*
X147244Y23226D01*
Y22443D01*
X147544Y21720D01*
X148098Y21166D01*
X148821Y20866D01*
X149604D01*
X150328Y21166D01*
X150881Y21720D01*
X151181Y22443D01*
Y23226D01*
X150881Y23950D01*
X150328Y24503D01*
X149604Y24803D01*
D02*
G37*
G36*
X27981Y24684D02*
X27198D01*
X26475Y24385D01*
X25921Y23831D01*
X25621Y23107D01*
Y22324D01*
X25921Y21601D01*
X26475Y21047D01*
X27198Y20747D01*
X27981D01*
X28705Y21047D01*
X29259Y21601D01*
X29558Y22324D01*
Y23107D01*
X29259Y23831D01*
X28705Y24385D01*
X27981Y24684D01*
D02*
G37*
G36*
X159908Y23272D02*
X159125D01*
X158401Y22972D01*
X157847Y22418D01*
X157548Y21695D01*
Y20912D01*
X157847Y20188D01*
X158401Y19634D01*
X159125Y19335D01*
X159908D01*
X160631Y19634D01*
X161185Y20188D01*
X161485Y20912D01*
Y21695D01*
X161185Y22418D01*
X160631Y22972D01*
X159908Y23272D01*
D02*
G37*
G36*
X97309Y23567D02*
X96526D01*
X95803Y23267D01*
X95249Y22714D01*
X94949Y21990D01*
Y21207D01*
X95249Y20483D01*
X95803Y19930D01*
X96361Y19698D01*
Y19168D01*
X95803Y18937D01*
X95249Y18383D01*
X94949Y17659D01*
Y16876D01*
X95249Y16153D01*
X95803Y15599D01*
X96526Y15299D01*
X97309D01*
X98033Y15599D01*
X98586Y16153D01*
X98886Y16876D01*
Y17659D01*
X98586Y18383D01*
X98033Y18937D01*
X97474Y19168D01*
Y19698D01*
X98033Y19930D01*
X98586Y20483D01*
X98886Y21207D01*
Y21990D01*
X98586Y22714D01*
X98033Y23267D01*
X97309Y23567D01*
D02*
G37*
G36*
X409133Y27037D02*
X407718D01*
X406329Y26761D01*
X405022Y26220D01*
X403845Y25433D01*
X402844Y24433D01*
X402058Y23256D01*
X401516Y21948D01*
X401240Y20560D01*
Y19145D01*
X401516Y17757D01*
X402058Y16449D01*
X402844Y15272D01*
X403845Y14271D01*
X405022Y13485D01*
X406329Y12943D01*
X407718Y12667D01*
X409133D01*
X410521Y12943D01*
X411829Y13485D01*
X413005Y14271D01*
X414006Y15272D01*
X414792Y16449D01*
X415334Y17757D01*
X415610Y19145D01*
Y20560D01*
X415334Y21948D01*
X414792Y23256D01*
X414006Y24433D01*
X413005Y25433D01*
X411829Y26220D01*
X410521Y26761D01*
X409133Y27037D01*
D02*
G37*
G36*
X364133D02*
X362718D01*
X361329Y26761D01*
X360022Y26220D01*
X358845Y25433D01*
X357844Y24433D01*
X357058Y23256D01*
X356516Y21948D01*
X356240Y20560D01*
Y19145D01*
X356516Y17757D01*
X357058Y16449D01*
X357844Y15272D01*
X358845Y14271D01*
X360022Y13485D01*
X361329Y12943D01*
X362718Y12667D01*
X364133D01*
X365521Y12943D01*
X366829Y13485D01*
X368005Y14271D01*
X369006Y15272D01*
X369793Y16449D01*
X370334Y17757D01*
X370610Y19145D01*
Y20560D01*
X370334Y21948D01*
X369793Y23256D01*
X369006Y24433D01*
X368005Y25433D01*
X366829Y26220D01*
X365521Y26761D01*
X364133Y27037D01*
D02*
G37*
G36*
X50054Y19973D02*
X49057D01*
X48094Y19714D01*
X47230Y19216D01*
X46525Y18511D01*
X46026Y17647D01*
X45768Y16684D01*
Y15687D01*
X46026Y14723D01*
X46525Y13860D01*
X47230Y13154D01*
X48094Y12656D01*
X49057Y12398D01*
X50054D01*
X51017Y12656D01*
X51881Y13154D01*
X52586Y13860D01*
X53085Y14723D01*
X53343Y15687D01*
Y16684D01*
X53085Y17647D01*
X52586Y18511D01*
X51881Y19216D01*
X51017Y19714D01*
X50054Y19973D01*
D02*
G37*
G36*
X40054D02*
X39057D01*
X38094Y19714D01*
X37230Y19216D01*
X36525Y18511D01*
X36026Y17647D01*
X35768Y16684D01*
Y15687D01*
X36026Y14723D01*
X36525Y13860D01*
X37230Y13154D01*
X38094Y12656D01*
X39057Y12398D01*
X40054D01*
X41017Y12656D01*
X41881Y13154D01*
X42586Y13860D01*
X43085Y14723D01*
X43343Y15687D01*
Y16684D01*
X43085Y17647D01*
X42586Y18511D01*
X41881Y19216D01*
X41017Y19714D01*
X40054Y19973D01*
D02*
G37*
G36*
X102034Y13429D02*
X101251D01*
X100527Y13129D01*
X99973Y12576D01*
X99674Y11852D01*
Y11069D01*
X99973Y10346D01*
X100527Y9792D01*
X101251Y9492D01*
X102034D01*
X102757Y9792D01*
X103311Y10346D01*
X103611Y11069D01*
Y11852D01*
X103311Y12576D01*
X102757Y13129D01*
X102034Y13429D01*
D02*
G37*
G36*
X154521Y11730D02*
X153738D01*
X153014Y11431D01*
X152461Y10877D01*
X152161Y10153D01*
Y9370D01*
X152461Y8647D01*
X153014Y8093D01*
X153738Y7793D01*
X154521D01*
X155245Y8093D01*
X155798Y8647D01*
X156098Y9370D01*
Y10153D01*
X155798Y10877D01*
X155245Y11431D01*
X154521Y11730D01*
D02*
G37*
G36*
X228375Y11692D02*
X227592D01*
X226869Y11392D01*
X226315Y10839D01*
X226015Y10115D01*
Y9332D01*
X226315Y8608D01*
X226869Y8055D01*
X227592Y7755D01*
X228375D01*
X229099Y8055D01*
X229652Y8608D01*
X229952Y9332D01*
Y10115D01*
X229652Y10839D01*
X229099Y11392D01*
X228375Y11692D01*
D02*
G37*
G36*
X118533D02*
X117750D01*
X117026Y11392D01*
X116472Y10839D01*
X116173Y10115D01*
Y9332D01*
X116472Y8608D01*
X117026Y8055D01*
X117750Y7755D01*
X118533D01*
X119256Y8055D01*
X119810Y8608D01*
X120109Y9332D01*
Y10115D01*
X119810Y10839D01*
X119256Y11392D01*
X118533Y11692D01*
D02*
G37*
G36*
X616879Y21260D02*
X615405D01*
X613960Y20972D01*
X612599Y20409D01*
X611373Y19590D01*
X610331Y18548D01*
X609513Y17323D01*
X608949Y15961D01*
X608661Y14516D01*
Y13043D01*
X608949Y11598D01*
X609513Y10236D01*
X610331Y9011D01*
X611373Y7969D01*
X612599Y7151D01*
X613960Y6587D01*
X615405Y6299D01*
X616879D01*
X618324Y6587D01*
X619685Y7151D01*
X620910Y7969D01*
X621952Y9011D01*
X622771Y10236D01*
X623335Y11598D01*
X623622Y13043D01*
Y14516D01*
X623335Y15961D01*
X622771Y17323D01*
X621952Y18548D01*
X620910Y19590D01*
X619685Y20409D01*
X618324Y20972D01*
X616879Y21260D01*
D02*
G37*
G36*
X14516D02*
X13043D01*
X11598Y20972D01*
X10236Y20409D01*
X9011Y19590D01*
X7969Y18548D01*
X7151Y17323D01*
X6587Y15961D01*
X6299Y14516D01*
Y13043D01*
X6587Y11598D01*
X7151Y10236D01*
X7969Y9011D01*
X9011Y7969D01*
X10236Y7151D01*
X11598Y6587D01*
X13043Y6299D01*
X14516D01*
X15961Y6587D01*
X17323Y7151D01*
X18548Y7969D01*
X19590Y9011D01*
X20409Y10236D01*
X20972Y11598D01*
X21260Y13043D01*
Y14516D01*
X20972Y15961D01*
X20409Y17323D01*
X19590Y18548D01*
X18548Y19590D01*
X17323Y20409D01*
X15961Y20972D01*
X14516Y21260D01*
D02*
G37*
G36*
X37399Y8268D02*
X36616D01*
X35893Y7968D01*
X35339Y7414D01*
X35039Y6691D01*
Y5908D01*
X35339Y5184D01*
X35893Y4630D01*
X36616Y4331D01*
X37399D01*
X38123Y4630D01*
X38677Y5184D01*
X38976Y5908D01*
Y6691D01*
X38677Y7414D01*
X38123Y7968D01*
X37399Y8268D01*
D02*
G37*
G36*
X129950Y7755D02*
X129167D01*
X128443Y7455D01*
X127890Y6902D01*
X127590Y6178D01*
Y5395D01*
X127890Y4671D01*
X128443Y4118D01*
X129167Y3818D01*
X129950D01*
X130673Y4118D01*
X131227Y4671D01*
X131527Y5395D01*
Y6178D01*
X131227Y6902D01*
X130673Y7455D01*
X129950Y7755D01*
D02*
G37*
G36*
X87720Y7707D02*
X86937D01*
X86214Y7407D01*
X85660Y6853D01*
X85360Y6130D01*
Y5347D01*
X85660Y4623D01*
X86214Y4069D01*
X86937Y3770D01*
X87720D01*
X88444Y4069D01*
X88998Y4623D01*
X89297Y5347D01*
Y6130D01*
X88998Y6853D01*
X88444Y7407D01*
X87720Y7707D01*
D02*
G37*
G36*
X417038Y13386D02*
X415639D01*
X414287Y13024D01*
X413075Y12324D01*
X412086Y11334D01*
X411386Y10122D01*
X411024Y8771D01*
Y7371D01*
X411386Y6019D01*
X412086Y4807D01*
X413075Y3818D01*
X414287Y3118D01*
X415639Y2756D01*
X417038D01*
X418390Y3118D01*
X419602Y3818D01*
X420592Y4807D01*
X421291Y6019D01*
X421654Y7371D01*
Y8771D01*
X421291Y10122D01*
X420592Y11334D01*
X419602Y12324D01*
X418390Y13024D01*
X417038Y13386D01*
D02*
G37*
G36*
X356113D02*
X354714D01*
X353362Y13024D01*
X352150Y12324D01*
X351160Y11334D01*
X350461Y10122D01*
X350098Y8771D01*
Y7371D01*
X350461Y6019D01*
X351160Y4807D01*
X352150Y3818D01*
X353362Y3118D01*
X354714Y2756D01*
X356113D01*
X357465Y3118D01*
X358677Y3818D01*
X359666Y4807D01*
X360366Y6019D01*
X360728Y7371D01*
Y8771D01*
X360366Y10122D01*
X359666Y11334D01*
X358677Y12324D01*
X357465Y13024D01*
X356113Y13386D01*
D02*
G37*
%LPD*%
G36*
X175565Y63429D02*
X178500D01*
Y55161D01*
X183225Y55161D01*
Y53661D01*
X178427D01*
Y51221D01*
Y50479D01*
Y40988D01*
X168318D01*
Y50479D01*
X165508D01*
X165508Y63429D01*
X173776D01*
Y68853D01*
X175565D01*
Y63429D01*
D02*
G37*
G36*
X133225Y58705D02*
X85587D01*
Y74059D01*
X133225D01*
Y58705D01*
D02*
G37*
D19*
X86374Y53980D02*
X93768D01*
X71721Y61067D02*
X79288D01*
X86374Y53980D01*
X178436Y79112D02*
X186620D01*
X172266Y72943D02*
X178436Y79112D01*
X172266Y71151D02*
X172508Y70910D01*
X172266Y71151D02*
Y72943D01*
X93768Y53980D02*
X102036D01*
X79201Y77996D02*
X93689D01*
X68571Y67366D02*
X79201Y77996D01*
X68571Y57917D02*
Y67366D01*
Y57917D02*
X69492Y56997D01*
X71854D01*
X72114Y56736D01*
X81170Y41382D02*
X93768Y53980D01*
D97*
X551642Y174846D02*
D03*
X550067Y169335D02*
D03*
X549998Y223016D02*
D03*
X528282Y210423D02*
D03*
X394162Y175240D02*
D03*
X392587Y169728D02*
D03*
X392517Y223410D02*
D03*
X370801Y210816D02*
D03*
X236484Y175115D02*
D03*
X234909Y169603D02*
D03*
X234840Y223285D02*
D03*
X213124Y210691D02*
D03*
X76770Y223016D02*
D03*
X78414Y174846D02*
D03*
X76839Y169335D02*
D03*
X55054Y210423D02*
D03*
X233138Y50831D02*
D03*
X214959Y50788D02*
D03*
X223465D02*
D03*
X206451D02*
D03*
X198662D02*
D03*
X190001D02*
D03*
X176516Y60956D02*
D03*
X172103Y56913D02*
D03*
X176516Y53279D02*
D03*
X167855D02*
D03*
Y60956D02*
D03*
X174170Y42563D02*
D03*
X170626D02*
D03*
X115815Y68941D02*
D03*
X108335D02*
D03*
X112666D02*
D03*
X128020D02*
D03*
X131170D02*
D03*
X120540D02*
D03*
X123689D02*
D03*
X94555Y72091D02*
D03*
X105185Y68941D02*
D03*
X102036Y53980D02*
D03*
X93689Y77996D02*
D03*
X72114Y56736D02*
D03*
X71721Y61067D02*
D03*
X81170Y41382D02*
D03*
X172508Y70910D02*
D03*
X186620Y79112D02*
D03*
D99*
X89810Y60488D02*
D03*
X87555D02*
D03*
M02*
