G04*
G04 #@! TF.GenerationSoftware,Altium Limited,Altium Designer,25.8.1 (18)*
G04*
G04 Layer_Color=8388736*
%FSLAX25Y25*%
%MOIN*%
G70*
G04*
G04 #@! TF.SameCoordinates,31BD0CA7-68FF-495C-AAF5-E67D81281D59*
G04*
G04*
G04 #@! TF.FilePolarity,Negative*
G04*
G01*
G75*
%ADD26R,0.15512X0.05000*%
%ADD27R,0.02362X0.04134*%
%ADD31R,0.02197X0.07378*%
%ADD48R,0.06299X0.10630*%
%ADD52C,0.04737*%
%ADD53R,0.04540X0.04147*%
G04:AMPARAMS|DCode=54|XSize=35.95mil|YSize=42.65mil|CornerRadius=8.61mil|HoleSize=0mil|Usage=FLASHONLY|Rotation=270.000|XOffset=0mil|YOffset=0mil|HoleType=Round|Shape=RoundedRectangle|*
%AMROUNDEDRECTD54*
21,1,0.03595,0.02542,0,0,270.0*
21,1,0.01873,0.04265,0,0,270.0*
1,1,0.01722,-0.01271,-0.00936*
1,1,0.01722,-0.01271,0.00936*
1,1,0.01722,0.01271,0.00936*
1,1,0.01722,0.01271,-0.00936*
%
%ADD54ROUNDEDRECTD54*%
%ADD55R,0.04343X0.03556*%
%ADD56R,0.03556X0.04343*%
%ADD57R,0.15761X0.08792*%
G04:AMPARAMS|DCode=58|XSize=35.95mil|YSize=42.65mil|CornerRadius=8.61mil|HoleSize=0mil|Usage=FLASHONLY|Rotation=180.000|XOffset=0mil|YOffset=0mil|HoleType=Round|Shape=RoundedRectangle|*
%AMROUNDEDRECTD58*
21,1,0.03595,0.02542,0,0,180.0*
21,1,0.01873,0.04265,0,0,180.0*
1,1,0.01722,-0.00936,0.01271*
1,1,0.01722,0.00936,0.01271*
1,1,0.01722,0.00936,-0.01271*
1,1,0.01722,-0.00936,-0.01271*
%
%ADD58ROUNDEDRECTD58*%
%ADD59R,0.05603X0.03410*%
%ADD60O,0.05603X0.03410*%
G04:AMPARAMS|DCode=61|XSize=47.37mil|YSize=65.87mil|CornerRadius=10.5mil|HoleSize=0mil|Usage=FLASHONLY|Rotation=180.000|XOffset=0mil|YOffset=0mil|HoleType=Round|Shape=RoundedRectangle|*
%AMROUNDEDRECTD61*
21,1,0.04737,0.04488,0,0,180.0*
21,1,0.02638,0.06587,0,0,180.0*
1,1,0.02099,-0.01319,0.02244*
1,1,0.02099,0.01319,0.02244*
1,1,0.02099,0.01319,-0.02244*
1,1,0.02099,-0.01319,-0.02244*
%
%ADD61ROUNDEDRECTD61*%
G04:AMPARAMS|DCode=62|XSize=55.64mil|YSize=79.65mil|CornerRadius=11.86mil|HoleSize=0mil|Usage=FLASHONLY|Rotation=270.000|XOffset=0mil|YOffset=0mil|HoleType=Round|Shape=RoundedRectangle|*
%AMROUNDEDRECTD62*
21,1,0.05564,0.05593,0,0,270.0*
21,1,0.03192,0.07965,0,0,270.0*
1,1,0.02372,-0.02797,-0.01596*
1,1,0.02372,-0.02797,0.01596*
1,1,0.02372,0.02797,0.01596*
1,1,0.02372,0.02797,-0.01596*
%
%ADD62ROUNDEDRECTD62*%
%ADD63R,0.04147X0.04540*%
%ADD64R,0.06902X0.06115*%
%ADD65R,0.06312X0.04737*%
%ADD66R,0.04934X0.02178*%
%ADD67R,0.02178X0.04934*%
%ADD68R,0.06115X0.06902*%
G04:AMPARAMS|DCode=69|XSize=31.62mil|YSize=47.37mil|CornerRadius=6.01mil|HoleSize=0mil|Usage=FLASHONLY|Rotation=90.000|XOffset=0mil|YOffset=0mil|HoleType=Round|Shape=RoundedRectangle|*
%AMROUNDEDRECTD69*
21,1,0.03162,0.03535,0,0,90.0*
21,1,0.01961,0.04737,0,0,90.0*
1,1,0.01202,0.01768,0.00980*
1,1,0.01202,0.01768,-0.00980*
1,1,0.01202,-0.01768,-0.00980*
1,1,0.01202,-0.01768,0.00980*
%
%ADD69ROUNDEDRECTD69*%
%ADD70R,0.03950X0.03950*%
%ADD71R,0.13595X0.13595*%
G04:AMPARAMS|DCode=72|XSize=53.67mil|YSize=115.09mil|CornerRadius=11.54mil|HoleSize=0mil|Usage=FLASHONLY|Rotation=0.000|XOffset=0mil|YOffset=0mil|HoleType=Round|Shape=RoundedRectangle|*
%AMROUNDEDRECTD72*
21,1,0.05367,0.09202,0,0,0.0*
21,1,0.03060,0.11509,0,0,0.0*
1,1,0.02307,0.01530,-0.04601*
1,1,0.02307,-0.01530,-0.04601*
1,1,0.02307,-0.01530,0.04601*
1,1,0.02307,0.01530,0.04601*
%
%ADD72ROUNDEDRECTD72*%
%ADD73R,0.03950X0.03950*%
G04:AMPARAMS|DCode=74|XSize=27.69mil|YSize=43.43mil|CornerRadius=7.25mil|HoleSize=0mil|Usage=FLASHONLY|Rotation=270.000|XOffset=0mil|YOffset=0mil|HoleType=Round|Shape=RoundedRectangle|*
%AMROUNDEDRECTD74*
21,1,0.02769,0.02894,0,0,270.0*
21,1,0.01319,0.04343,0,0,270.0*
1,1,0.01450,-0.01447,-0.00659*
1,1,0.01450,-0.01447,0.00659*
1,1,0.01450,0.01447,0.00659*
1,1,0.01450,0.01447,-0.00659*
%
%ADD74ROUNDEDRECTD74*%
%ADD75C,0.14087*%
%ADD76C,0.08450*%
%ADD77C,0.09855*%
%ADD78C,0.06600*%
%ADD79C,0.06312*%
%ADD80C,0.13005*%
%ADD81C,0.04993*%
%ADD82C,0.03162*%
%ADD83C,0.02572*%
G36*
X99713Y68165D02*
X99752D01*
X99824Y68135D01*
X99880Y68080D01*
X99910Y68007D01*
Y67968D01*
X99910Y66885D01*
X99913Y66847D01*
X99943Y66776D01*
X99997Y66722D01*
X100068Y66692D01*
X100106Y66689D01*
X100146Y66689D01*
X100218Y66659D01*
X100273Y66603D01*
X100303Y66531D01*
Y66492D01*
Y62456D01*
X100303Y62417D01*
X100273Y62345D01*
X100218Y62289D01*
X100146Y62260D01*
X100106Y62260D01*
X100106Y62260D01*
X92429Y62260D01*
X92390D01*
X92318Y62289D01*
X92262Y62345D01*
X92232Y62417D01*
X92233Y62456D01*
X92232D01*
X92232Y66492D01*
X92232Y66531D01*
X92262Y66603D01*
X92318Y66659D01*
X92390Y66689D01*
X92429Y66689D01*
Y66689D01*
X92823Y66689D01*
X92861Y66692D01*
X92932Y66722D01*
X92987Y66776D01*
X93016Y66847D01*
X93020Y66885D01*
X93020Y67968D01*
X93020Y68007D01*
X93050Y68080D01*
X93105Y68135D01*
X93177Y68165D01*
X93217D01*
Y68165D01*
X93807Y68165D01*
X93846D01*
X93919Y68135D01*
X93974Y68080D01*
X94004Y68007D01*
Y67968D01*
X94004Y66885D01*
X94008Y66847D01*
X94037Y66776D01*
X94091Y66722D01*
X94162Y66692D01*
X94201Y66689D01*
X94792D01*
X94830Y66692D01*
X94901Y66722D01*
X94955Y66776D01*
X94985Y66847D01*
X94988Y66886D01*
X94988Y67968D01*
X94988Y68007D01*
X95018Y68080D01*
X95074Y68135D01*
X95146Y68165D01*
X95185Y68165D01*
X95185Y68165D01*
X95776Y68165D01*
X95815D01*
X95887Y68135D01*
X95943Y68080D01*
X95973Y68007D01*
Y67968D01*
X95973Y66885D01*
X95976Y66847D01*
X96006Y66776D01*
X96060Y66722D01*
X96131Y66692D01*
X96169Y66689D01*
X96169Y66689D01*
X96760D01*
X96798Y66692D01*
X96869Y66722D01*
X96924Y66776D01*
X96953Y66847D01*
X96957Y66886D01*
X96957D01*
X96957Y67968D01*
X96957Y68007D01*
X96987Y68080D01*
X97042Y68135D01*
X97114Y68165D01*
X97154Y68165D01*
X97154Y68165D01*
X97744Y68165D01*
X97783Y68165D01*
X97856Y68135D01*
X97911Y68080D01*
X97941Y68007D01*
X97941Y67968D01*
X97941D01*
Y66886D01*
X97945Y66847D01*
X97974Y66776D01*
X98029Y66722D01*
X98099Y66692D01*
X98138Y66689D01*
X98729D01*
X98767Y66692D01*
X98838Y66722D01*
X98892Y66776D01*
X98922Y66847D01*
X98925Y66886D01*
X98925Y67968D01*
X98925Y68007D01*
X98955Y68080D01*
X99011Y68135D01*
X99083Y68165D01*
X99122Y68165D01*
X99122Y68165D01*
X99713Y68165D01*
D02*
G37*
G36*
X90179Y68135D02*
X90234Y68080D01*
X90264Y68007D01*
Y67968D01*
Y64031D01*
Y63992D01*
X90234Y63920D01*
X90179Y63864D01*
X90106Y63834D01*
X89437D01*
X89365Y63864D01*
X89310Y63920D01*
X89280Y63992D01*
X89280Y64031D01*
Y64031D01*
Y67968D01*
Y68007D01*
X89310Y68080D01*
X89365Y68135D01*
X89437Y68165D01*
X90106D01*
X90179Y68135D01*
D02*
G37*
G36*
X88099Y68165D02*
X88138D01*
X88210Y68135D01*
X88266Y68080D01*
X88295Y68007D01*
Y67968D01*
Y64031D01*
Y63992D01*
X88266Y63920D01*
X88210Y63864D01*
X88138Y63834D01*
X87469D01*
X87397Y63864D01*
X87341Y63920D01*
X87311Y63992D01*
Y64031D01*
X87311D01*
X87311Y67968D01*
Y68007D01*
X87341Y68080D01*
X87397Y68135D01*
X87469Y68165D01*
X87508D01*
Y68165D01*
X88099Y68165D01*
D02*
G37*
G36*
X85148D02*
X85187D01*
X85259Y68135D01*
X85315Y68080D01*
X85345Y68007D01*
Y67968D01*
Y64031D01*
Y63992D01*
X85315Y63920D01*
X85259Y63864D01*
X85187Y63834D01*
X84026D01*
X83954Y63864D01*
X83898Y63920D01*
X83868Y63992D01*
Y64031D01*
Y67968D01*
Y68007D01*
X83898Y68080D01*
X83954Y68135D01*
X84026Y68165D01*
X84065D01*
Y68165D01*
X85148Y68165D01*
D02*
G37*
G36*
X85750Y62919D02*
X85805Y62863D01*
X85835Y62791D01*
X85835Y62752D01*
Y62161D01*
Y62122D01*
X85805Y62050D01*
X85750Y61994D01*
X85677Y61964D01*
X82843D01*
X82771Y61994D01*
X82715Y62050D01*
X82685Y62122D01*
Y62161D01*
Y62752D01*
Y62791D01*
X82715Y62863D01*
X82771Y62919D01*
X82843Y62948D01*
X85677D01*
X85750Y62919D01*
D02*
G37*
G36*
X88606Y61048D02*
X88661Y60993D01*
X88691Y60921D01*
Y60882D01*
Y60094D01*
Y60055D01*
X88661Y59983D01*
X88606Y59927D01*
X88533Y59897D01*
X82845D01*
X82772Y59927D01*
X82717Y59983D01*
X82687Y60055D01*
Y60094D01*
Y60882D01*
Y60921D01*
X82717Y60993D01*
X82772Y61048D01*
X82845Y61078D01*
X88533D01*
X88606Y61048D01*
D02*
G37*
G36*
X100106Y58716D02*
X100146Y58716D01*
X100218Y58686D01*
X100273Y58631D01*
X100303Y58558D01*
Y58519D01*
Y54484D01*
Y54484D01*
Y54445D01*
X100273Y54372D01*
X100218Y54317D01*
X100146Y54287D01*
X100106D01*
Y54287D01*
X100068Y54283D01*
X99997Y54254D01*
X99943Y54199D01*
X99913Y54129D01*
X99910Y54090D01*
X99910Y53008D01*
X99910Y52968D01*
X99880Y52896D01*
X99824Y52841D01*
X99752Y52811D01*
X99713Y52811D01*
X99122Y52811D01*
X99122D01*
X99083Y52811D01*
X99011Y52841D01*
X98955Y52896D01*
X98925Y52968D01*
X98925Y53008D01*
X98925Y54090D01*
Y54090D01*
X98922Y54129D01*
X98892Y54199D01*
X98838Y54254D01*
X98767Y54283D01*
X98729Y54287D01*
X98138Y54287D01*
Y54287D01*
X98099Y54283D01*
X98029Y54254D01*
X97974Y54199D01*
X97945Y54129D01*
X97941Y54090D01*
X97941Y53008D01*
X97941Y53008D01*
X97941Y52968D01*
X97911Y52896D01*
X97856Y52841D01*
X97783Y52811D01*
X97744Y52811D01*
X97154Y52811D01*
X97154D01*
X97114Y52811D01*
X97042Y52841D01*
X96987Y52896D01*
X96957Y52968D01*
X96957Y53008D01*
X96957Y54090D01*
X96957Y54090D01*
X96953Y54129D01*
X96924Y54199D01*
X96869Y54254D01*
X96798Y54283D01*
X96760Y54287D01*
X96169Y54287D01*
X96169Y54287D01*
X96131Y54283D01*
X96060Y54254D01*
X96006Y54200D01*
X95976Y54129D01*
X95973Y54090D01*
X95973Y53008D01*
X95973Y52968D01*
X95943Y52896D01*
X95887Y52841D01*
X95815Y52811D01*
X95776Y52811D01*
X95185Y52811D01*
X95185D01*
X95146Y52811D01*
X95074Y52841D01*
X95018Y52896D01*
X94988Y52968D01*
X94988Y53008D01*
X94988Y54090D01*
Y54090D01*
X94985Y54129D01*
X94955Y54199D01*
X94901Y54254D01*
X94830Y54283D01*
X94792Y54287D01*
X94201Y54287D01*
X94201Y54287D01*
X94162Y54283D01*
X94091Y54254D01*
X94037Y54200D01*
X94008Y54129D01*
X94004Y54090D01*
X94004Y53008D01*
Y52968D01*
X93974Y52896D01*
X93919Y52841D01*
X93846Y52811D01*
X93807D01*
X93217Y52811D01*
X93177D01*
X93105Y52841D01*
X93050Y52896D01*
X93020Y52968D01*
X93020Y53008D01*
X93020Y54090D01*
Y54090D01*
X93016Y54129D01*
X92987Y54199D01*
X92932Y54254D01*
X92861Y54283D01*
X92823Y54287D01*
X92429Y54287D01*
X92390Y54287D01*
X92318Y54317D01*
X92262Y54372D01*
X92232Y54445D01*
Y54484D01*
X92233Y58519D01*
X92233Y58519D01*
X92233Y58558D01*
X92262Y58631D01*
X92318Y58686D01*
X92390Y58716D01*
X92429D01*
X100106Y58716D01*
X100106Y58716D01*
D02*
G37*
G36*
X85750Y58982D02*
X85805Y58926D01*
X85835Y58854D01*
Y58815D01*
Y58224D01*
Y58185D01*
X85805Y58113D01*
X85750Y58057D01*
X85677Y58027D01*
X82843D01*
X82771Y58057D01*
X82715Y58113D01*
X82685Y58185D01*
Y58224D01*
X82685D01*
X82685Y58815D01*
Y58854D01*
X82715Y58926D01*
X82771Y58982D01*
X82843Y59011D01*
X85677D01*
X85750Y58982D01*
D02*
G37*
G36*
X90179Y57111D02*
X90234Y57056D01*
X90264Y56984D01*
Y56945D01*
Y53008D01*
Y52968D01*
X90234Y52896D01*
X90179Y52841D01*
X90106Y52811D01*
X89437D01*
X89365Y52841D01*
X89310Y52896D01*
X89280Y52968D01*
Y53008D01*
X89280Y56945D01*
Y56984D01*
X89310Y57056D01*
X89365Y57111D01*
X89437Y57141D01*
X90106D01*
X90179Y57111D01*
D02*
G37*
G36*
X88210D02*
X88266Y57056D01*
X88295Y56984D01*
Y56945D01*
Y53008D01*
Y52968D01*
X88266Y52896D01*
X88210Y52841D01*
X88138Y52811D01*
X88099D01*
Y52811D01*
X87508Y52811D01*
X87469D01*
X87397Y52841D01*
X87341Y52896D01*
X87311Y52968D01*
Y53008D01*
X87311D01*
X87311Y56945D01*
Y56984D01*
X87341Y57056D01*
X87397Y57111D01*
X87469Y57141D01*
X88138D01*
X88210Y57111D01*
D02*
G37*
G36*
X85259D02*
X85315Y57056D01*
X85345Y56984D01*
Y56945D01*
Y53008D01*
Y52968D01*
X85315Y52896D01*
X85259Y52841D01*
X85187Y52811D01*
X85148D01*
Y52811D01*
X84065Y52811D01*
X84026D01*
X83954Y52841D01*
X83898Y52896D01*
X83868Y52968D01*
Y53008D01*
Y56945D01*
Y56984D01*
X83898Y57056D01*
X83954Y57111D01*
X84026Y57141D01*
X85187D01*
X85259Y57111D01*
D02*
G37*
D26*
X27126Y118780D02*
D03*
Y108780D02*
D03*
X51614Y118780D02*
D03*
Y108780D02*
D03*
Y79646D02*
D03*
Y89646D02*
D03*
X27126Y79646D02*
D03*
Y89646D02*
D03*
D27*
X382677Y305906D02*
D03*
X228937Y305781D02*
D03*
X540158Y305512D02*
D03*
Y295079D02*
D03*
X544095D02*
D03*
Y305512D02*
D03*
X382677Y295472D02*
D03*
X386614D02*
D03*
Y305906D02*
D03*
X228937Y295347D02*
D03*
X225000D02*
D03*
Y305781D02*
D03*
X70866Y295079D02*
D03*
X66929D02*
D03*
Y305512D02*
D03*
X70866D02*
D03*
D31*
X559469Y232148D02*
D03*
X544468D02*
D03*
X539468D02*
D03*
X554468Y269426D02*
D03*
X549469Y232148D02*
D03*
Y269426D02*
D03*
X569468D02*
D03*
X559469D02*
D03*
X554468Y232148D02*
D03*
X569468D02*
D03*
X544468Y269426D02*
D03*
X564468D02*
D03*
X539468D02*
D03*
X534469D02*
D03*
Y232148D02*
D03*
X564468D02*
D03*
X391988Y232542D02*
D03*
X234311Y232417D02*
D03*
X76240Y232148D02*
D03*
X406988Y232542D02*
D03*
X376988D02*
D03*
X249311Y232417D02*
D03*
X219311D02*
D03*
X91240Y232148D02*
D03*
X61240D02*
D03*
X411988Y269820D02*
D03*
X406988D02*
D03*
X401988D02*
D03*
X396988D02*
D03*
X391988D02*
D03*
X386988D02*
D03*
X381988D02*
D03*
X376988D02*
D03*
X381988Y232542D02*
D03*
X386988D02*
D03*
X396988D02*
D03*
X401988D02*
D03*
X411988D02*
D03*
X244311Y232417D02*
D03*
X239311Y269695D02*
D03*
X244311D02*
D03*
X254311D02*
D03*
X219311D02*
D03*
X224311D02*
D03*
X249311D02*
D03*
X229311Y232417D02*
D03*
X224311D02*
D03*
X229311Y269695D02*
D03*
X239311Y232417D02*
D03*
X254311D02*
D03*
X234311Y269695D02*
D03*
X71240Y232148D02*
D03*
X81240Y269426D02*
D03*
X66240Y232148D02*
D03*
X86240D02*
D03*
X76240Y269426D02*
D03*
X96240D02*
D03*
X86240D02*
D03*
X81240Y232148D02*
D03*
X96240D02*
D03*
X71240Y269426D02*
D03*
X66240D02*
D03*
X61240D02*
D03*
X91240D02*
D03*
D48*
X154398Y22878D02*
D03*
X166209D02*
D03*
D52*
X257855Y71511D02*
D03*
X586221Y278346D02*
D03*
X233532Y34689D02*
D03*
X129339Y10488D02*
D03*
X112992Y278346D02*
D03*
X428740Y278740D02*
D03*
X271063Y278615D02*
D03*
X69359Y45713D02*
D03*
X118571Y35476D02*
D03*
X257154Y86658D02*
D03*
X257548Y80752D02*
D03*
X250461Y86658D02*
D03*
D53*
X575984Y175000D02*
D03*
Y180118D02*
D03*
X528339Y179749D02*
D03*
Y174631D02*
D03*
X539831Y192760D02*
D03*
Y197878D02*
D03*
X564241Y192760D02*
D03*
Y197878D02*
D03*
X235502Y28193D02*
D03*
X230776Y28193D02*
D03*
X76189Y76433D02*
D03*
Y51630D02*
D03*
X91012Y197878D02*
D03*
X102945Y174631D02*
D03*
Y179749D02*
D03*
X91012Y192760D02*
D03*
X66603Y197878D02*
D03*
Y192760D02*
D03*
X55110Y174631D02*
D03*
Y179749D02*
D03*
X382351Y198272D02*
D03*
X406760D02*
D03*
X418693Y180143D02*
D03*
X406760Y193154D02*
D03*
X418693Y175025D02*
D03*
X382351Y193154D02*
D03*
X370858Y180143D02*
D03*
Y175025D02*
D03*
X224673Y198147D02*
D03*
X249083D02*
D03*
X261015Y174900D02*
D03*
Y180018D02*
D03*
X249083Y193029D02*
D03*
X213181Y174900D02*
D03*
X224673Y193029D02*
D03*
X213181Y180018D02*
D03*
X235502Y23075D02*
D03*
X230776Y23075D02*
D03*
X124872Y28981D02*
D03*
Y23863D02*
D03*
X120146Y28980D02*
D03*
Y23862D02*
D03*
X60697Y10870D02*
D03*
Y5752D02*
D03*
X76189Y46511D02*
D03*
Y41393D02*
D03*
Y56748D02*
D03*
X81701Y29189D02*
D03*
Y24070D02*
D03*
X76189Y71315D02*
D03*
D54*
X549213Y283740D02*
D03*
Y277677D02*
D03*
X575197Y278465D02*
D03*
Y284528D02*
D03*
X570086Y174355D02*
D03*
Y180418D02*
D03*
X534638D02*
D03*
Y174355D02*
D03*
X417717Y278858D02*
D03*
Y284921D02*
D03*
X391732Y284134D02*
D03*
Y278071D02*
D03*
X260039Y284796D02*
D03*
Y278733D02*
D03*
X234055Y284009D02*
D03*
Y277946D02*
D03*
X101969Y284528D02*
D03*
Y278465D02*
D03*
X75984Y283740D02*
D03*
Y277677D02*
D03*
X61409Y174355D02*
D03*
Y180418D02*
D03*
X96858Y174355D02*
D03*
Y180418D02*
D03*
X412606Y180812D02*
D03*
Y174749D02*
D03*
X377157Y180812D02*
D03*
Y174749D02*
D03*
X254929Y174624D02*
D03*
Y180687D02*
D03*
X219480Y174624D02*
D03*
Y180687D02*
D03*
D55*
X570472Y278740D02*
D03*
Y284252D02*
D03*
X554724Y277953D02*
D03*
Y283465D02*
D03*
X579528Y278740D02*
D03*
Y284252D02*
D03*
X253551Y41984D02*
D03*
X258669D02*
D03*
X397244Y278346D02*
D03*
Y283858D02*
D03*
X412992Y279134D02*
D03*
Y284646D02*
D03*
X239566Y278222D02*
D03*
Y283733D02*
D03*
X255314Y279009D02*
D03*
Y284521D02*
D03*
X97244Y278740D02*
D03*
Y284252D02*
D03*
X81496Y277953D02*
D03*
Y283465D02*
D03*
X106299Y278740D02*
D03*
Y284252D02*
D03*
X422047Y284646D02*
D03*
X264370Y284521D02*
D03*
X422047Y279134D02*
D03*
X264370Y279009D02*
D03*
X253551Y47496D02*
D03*
X258669D02*
D03*
D56*
X575197Y224803D02*
D03*
X569685D02*
D03*
X552362Y190551D02*
D03*
X546850D02*
D03*
X523615Y210625D02*
D03*
X518103D02*
D03*
X366135Y211018D02*
D03*
X208457Y210893D02*
D03*
X50386Y210625D02*
D03*
X417717Y225197D02*
D03*
X394919Y189891D02*
D03*
X260039Y225072D02*
D03*
X360623Y211018D02*
D03*
X202945Y210893D02*
D03*
X237242Y189766D02*
D03*
X246858Y66393D02*
D03*
Y71511D02*
D03*
X270480Y56551D02*
D03*
X150795Y53795D02*
D03*
X101969Y224803D02*
D03*
X79171Y189497D02*
D03*
X90756Y71905D02*
D03*
X44875Y210625D02*
D03*
X95874Y49464D02*
D03*
X40157Y6299D02*
D03*
X389407Y189891D02*
D03*
X252370Y66393D02*
D03*
X231730Y189766D02*
D03*
X73659Y189497D02*
D03*
X252370Y71511D02*
D03*
X412205Y225197D02*
D03*
X254527Y225072D02*
D03*
X96457Y224803D02*
D03*
X85244Y71905D02*
D03*
X45669Y6299D02*
D03*
X264969Y56551D02*
D03*
X156307Y53795D02*
D03*
X90362Y49464D02*
D03*
D57*
X567717Y213779D02*
D03*
X579981Y144036D02*
D03*
X525650Y144036D02*
D03*
X543532D02*
D03*
X561414D02*
D03*
X542913Y213779D02*
D03*
X422501Y144430D02*
D03*
X368169Y144430D02*
D03*
X264823Y144305D02*
D03*
X210492Y144305D02*
D03*
X106753Y144036D02*
D03*
X52421Y144036D02*
D03*
X410236Y214173D02*
D03*
X252559Y214048D02*
D03*
X94488Y213779D02*
D03*
X70303Y144036D02*
D03*
X88186D02*
D03*
X69685Y213779D02*
D03*
X385433Y214173D02*
D03*
X403934Y144430D02*
D03*
X386052D02*
D03*
X227755Y214048D02*
D03*
X246256Y144305D02*
D03*
X228374D02*
D03*
D58*
X545157Y288976D02*
D03*
X539094D02*
D03*
X555630Y151969D02*
D03*
X561693D02*
D03*
X542638D02*
D03*
X548701D02*
D03*
X385157Y152362D02*
D03*
X404213D02*
D03*
X246535Y152237D02*
D03*
X227480D02*
D03*
X88465Y151969D02*
D03*
X69409D02*
D03*
X381614Y289370D02*
D03*
X387677D02*
D03*
X223937Y289245D02*
D03*
X230000D02*
D03*
X71929Y288976D02*
D03*
X65866D02*
D03*
X82402Y151969D02*
D03*
X75472D02*
D03*
X240472Y152237D02*
D03*
X398150Y152362D02*
D03*
X233543Y152237D02*
D03*
X391220Y152362D02*
D03*
D59*
X540390Y184623D02*
D03*
X67161D02*
D03*
X382909Y185017D02*
D03*
X225232Y184892D02*
D03*
D60*
X540390Y169623D02*
D03*
X564012D02*
D03*
Y184623D02*
D03*
X540390Y174623D02*
D03*
X564012Y179623D02*
D03*
Y174623D02*
D03*
X540390Y179623D02*
D03*
X406531Y180017D02*
D03*
X248854Y179892D02*
D03*
X382909Y175017D02*
D03*
X90783Y179623D02*
D03*
X225232Y174892D02*
D03*
X67161Y174623D02*
D03*
X406531Y175017D02*
D03*
X248854Y174892D02*
D03*
X90783Y174623D02*
D03*
X382909Y180017D02*
D03*
X225232Y179892D02*
D03*
X67161Y179623D02*
D03*
Y169623D02*
D03*
X90783D02*
D03*
Y184623D02*
D03*
X406531Y185017D02*
D03*
Y170017D02*
D03*
X382909D02*
D03*
X248854Y169892D02*
D03*
Y184892D02*
D03*
X225232Y169892D02*
D03*
D61*
X548689Y158311D02*
D03*
X555776D02*
D03*
X82547D02*
D03*
X75461D02*
D03*
X398295Y158704D02*
D03*
X391209D02*
D03*
X240618Y158580D02*
D03*
X233531D02*
D03*
D62*
X521031Y228064D02*
D03*
Y216647D02*
D03*
X363551Y217040D02*
D03*
X205873Y216915D02*
D03*
X47803Y216647D02*
D03*
X363551Y228458D02*
D03*
X205873Y228333D02*
D03*
X47803Y228064D02*
D03*
D63*
X560303Y158311D02*
D03*
X565422D02*
D03*
X544162Y158311D02*
D03*
X539044D02*
D03*
X195874Y78598D02*
D03*
X177173Y77811D02*
D03*
X161425Y77811D02*
D03*
X195874Y66787D02*
D03*
Y61275D02*
D03*
X195874Y72693D02*
D03*
X149811Y70724D02*
D03*
X149811Y64031D02*
D03*
X75590Y35039D02*
D03*
X87075Y158311D02*
D03*
X92193D02*
D03*
X70933Y158311D02*
D03*
X65815D02*
D03*
X402823Y158705D02*
D03*
X386682Y158705D02*
D03*
X407941Y158705D02*
D03*
X381563Y158705D02*
D03*
X245146Y158580D02*
D03*
X229004Y158580D02*
D03*
X250264Y158580D02*
D03*
X223886Y158580D02*
D03*
X66012Y5949D02*
D03*
X71130D02*
D03*
X190756Y78598D02*
D03*
Y61275D02*
D03*
Y66787D02*
D03*
X190756Y72693D02*
D03*
X172055Y77811D02*
D03*
X80709Y35039D02*
D03*
X90166Y77811D02*
D03*
X85047D02*
D03*
X154929Y64031D02*
D03*
X166543Y77811D02*
D03*
X154929Y70724D02*
D03*
D64*
X206701Y46314D02*
D03*
X214969D02*
D03*
X223236D02*
D03*
X198433D02*
D03*
X190165D02*
D03*
X214969Y38440D02*
D03*
X223236D02*
D03*
X198433D02*
D03*
X206701D02*
D03*
X190165D02*
D03*
X153697Y36078D02*
D03*
X122252Y63637D02*
D03*
X106898D02*
D03*
X114378D02*
D03*
X129732D02*
D03*
X145677Y36078D02*
D03*
Y43952D02*
D03*
X153697D02*
D03*
X122252Y55763D02*
D03*
X129732D02*
D03*
X114378D02*
D03*
X106898D02*
D03*
D65*
X233079Y46708D02*
D03*
X243315D02*
D03*
X124811Y46708D02*
D03*
X135047D02*
D03*
X69103Y16787D02*
D03*
X79339D02*
D03*
D66*
X181306Y56944D02*
D03*
Y51826D02*
D03*
Y54385D02*
D03*
Y59503D02*
D03*
Y62062D02*
D03*
X162802D02*
D03*
Y59503D02*
D03*
Y56944D02*
D03*
Y54385D02*
D03*
Y51826D02*
D03*
D67*
X177172Y47692D02*
D03*
X174613Y66196D02*
D03*
X169495Y47692D02*
D03*
X174613D02*
D03*
X172054D02*
D03*
X177172Y66196D02*
D03*
X172054D02*
D03*
X169495D02*
D03*
X166936D02*
D03*
Y47692D02*
D03*
D68*
X242921Y78598D02*
D03*
X250795D02*
D03*
D69*
X246957Y60291D02*
D03*
Y56551D02*
D03*
X257784Y60291D02*
D03*
Y56551D02*
D03*
Y52811D02*
D03*
X246957D02*
D03*
D70*
X233413Y9886D02*
D03*
X122884Y10094D02*
D03*
X233413Y16185D02*
D03*
X122884Y16393D02*
D03*
D71*
X172054Y56944D02*
D03*
D72*
X75953Y104965D02*
D03*
Y94236D02*
D03*
X101287Y41196D02*
D03*
Y19051D02*
D03*
Y30124D02*
D03*
X56268Y52406D02*
D03*
X56268Y41776D02*
D03*
X27725Y63036D02*
D03*
X56268Y63036D02*
D03*
X27725Y52406D02*
D03*
Y41776D02*
D03*
X56268Y30654D02*
D03*
X27725Y30654D02*
D03*
X64339Y94236D02*
D03*
Y104965D02*
D03*
X39339Y52406D02*
D03*
X44654Y30654D02*
D03*
X39339Y63036D02*
D03*
Y41776D02*
D03*
X44654Y41776D02*
D03*
X44654Y52406D02*
D03*
X44654Y63036D02*
D03*
X39339Y30654D02*
D03*
X89673Y30124D02*
D03*
Y19051D02*
D03*
Y41196D02*
D03*
D73*
X82744Y5949D02*
D03*
X76445D02*
D03*
D74*
X76189Y66905D02*
D03*
Y61157D02*
D03*
D75*
X355455Y340360D02*
D03*
X274466D02*
D03*
X598425D02*
D03*
X517435D02*
D03*
X436445D02*
D03*
X193476D02*
D03*
X112484D02*
D03*
X31496D02*
D03*
D76*
X618425Y365400D02*
D03*
Y325400D02*
D03*
X578425D02*
D03*
Y365400D02*
D03*
X537435D02*
D03*
Y325400D02*
D03*
X497435D02*
D03*
Y365400D02*
D03*
X456445D02*
D03*
Y325400D02*
D03*
X416445D02*
D03*
Y365400D02*
D03*
X375455D02*
D03*
Y325400D02*
D03*
X335455D02*
D03*
Y365400D02*
D03*
X294466D02*
D03*
Y325400D02*
D03*
X254466D02*
D03*
Y365400D02*
D03*
X213476D02*
D03*
Y325400D02*
D03*
X173476D02*
D03*
Y365400D02*
D03*
X92484D02*
D03*
Y325400D02*
D03*
X132484D02*
D03*
Y365400D02*
D03*
X11496D02*
D03*
Y325400D02*
D03*
X51496D02*
D03*
Y365400D02*
D03*
D77*
X355413Y8071D02*
D03*
X416339D02*
D03*
D78*
X39555Y16185D02*
D03*
X49556D02*
D03*
D79*
X373406Y54852D02*
D03*
X368406Y44852D02*
D03*
X388405D02*
D03*
X383405Y54852D02*
D03*
X393406D02*
D03*
X378405Y44852D02*
D03*
X403406Y54852D02*
D03*
X398406Y44852D02*
D03*
D80*
X13780Y218504D02*
D03*
X616142Y13780D02*
D03*
Y218504D02*
D03*
X13780Y13780D02*
D03*
D81*
X408425Y19852D02*
D03*
X363425D02*
D03*
D82*
X514629Y224995D02*
D03*
X356362Y225782D02*
D03*
X198881D02*
D03*
X106506Y224945D02*
D03*
X264380D02*
D03*
X421860D02*
D03*
X579734Y224551D02*
D03*
X590551Y143307D02*
D03*
X514173D02*
D03*
X433071Y144488D02*
D03*
X356693D02*
D03*
X199213Y144095D02*
D03*
X275590D02*
D03*
X523228Y189370D02*
D03*
X522783Y203543D02*
D03*
X366929Y190945D02*
D03*
X366483Y205118D02*
D03*
X209842Y188583D02*
D03*
X209397Y202755D02*
D03*
X198819Y210630D02*
D03*
X356299Y211024D02*
D03*
X514173Y210630D02*
D03*
X56299Y269291D02*
D03*
X214173Y269685D02*
D03*
X529528Y269291D02*
D03*
X372441Y269685D02*
D03*
X229134Y310630D02*
D03*
X387008Y311024D02*
D03*
X382087Y310755D02*
D03*
X564567Y277953D02*
D03*
X407087Y278346D02*
D03*
X249606Y278740D02*
D03*
X91339D02*
D03*
X545079Y310361D02*
D03*
X539567D02*
D03*
X71851D02*
D03*
X66339D02*
D03*
X224410Y310630D02*
D03*
X243307Y164173D02*
D03*
X401968Y164567D02*
D03*
X559055Y164173D02*
D03*
X394625Y193862D02*
D03*
X237145D02*
D03*
X563639Y169783D02*
D03*
X569685Y167323D02*
D03*
X552360Y194095D02*
D03*
X557930Y168870D02*
D03*
X546850Y194095D02*
D03*
X551642Y174846D02*
D03*
X550067Y169335D02*
D03*
X564241Y202012D02*
D03*
X544488Y225984D02*
D03*
X530709Y230315D02*
D03*
X549998Y223016D02*
D03*
X528282Y210423D02*
D03*
X559449Y274803D02*
D03*
X569685D02*
D03*
X389370Y193307D02*
D03*
X398031Y172835D02*
D03*
X394162Y175240D02*
D03*
X392587Y169728D02*
D03*
X406760Y202406D02*
D03*
X387008Y226378D02*
D03*
X373228Y230709D02*
D03*
X392517Y223410D02*
D03*
X370801Y210816D02*
D03*
X401968Y275197D02*
D03*
X412205D02*
D03*
X231693Y193182D02*
D03*
X240354Y172710D02*
D03*
X236484Y175115D02*
D03*
X234909Y169603D02*
D03*
X249083Y202281D02*
D03*
X229330Y226253D02*
D03*
X215551Y230584D02*
D03*
X234840Y223285D02*
D03*
X213124Y210691D02*
D03*
X244291Y275072D02*
D03*
X254527D02*
D03*
X76770Y223016D02*
D03*
X73622Y192913D02*
D03*
X82284Y172441D02*
D03*
X78414Y174846D02*
D03*
X76839Y169335D02*
D03*
X91012Y202012D02*
D03*
X71260Y225984D02*
D03*
X57480Y230315D02*
D03*
X55054Y210423D02*
D03*
X86221Y274803D02*
D03*
X96457D02*
D03*
X233138Y50831D02*
D03*
X214959Y50788D02*
D03*
X223465D02*
D03*
X206451D02*
D03*
X198662D02*
D03*
X190001D02*
D03*
X564567Y224803D02*
D03*
X407480Y225590D02*
D03*
X249606Y224803D02*
D03*
X238032Y78741D02*
D03*
X199674Y78390D02*
D03*
Y72615D02*
D03*
X177196Y82952D02*
D03*
X157548Y77602D02*
D03*
X177233Y72878D02*
D03*
X149674Y75634D02*
D03*
X243150Y66142D02*
D03*
X273859Y56693D02*
D03*
X243150Y71260D02*
D03*
X199674Y61067D02*
D03*
Y66841D02*
D03*
X242757Y60237D02*
D03*
Y56693D02*
D03*
X258899Y38583D02*
D03*
X253781D02*
D03*
X222678Y33465D02*
D03*
X227984Y9724D02*
D03*
X205664Y33465D02*
D03*
X214171D02*
D03*
X197875D02*
D03*
X176516Y60956D02*
D03*
X172103Y56913D02*
D03*
X176516Y53279D02*
D03*
X167855D02*
D03*
Y60956D02*
D03*
X150818Y58149D02*
D03*
X174170Y42563D02*
D03*
X170626D02*
D03*
X189214Y33465D02*
D03*
X182745Y38232D02*
D03*
X160303Y35476D02*
D03*
X159516Y26421D02*
D03*
X154792Y31539D02*
D03*
X149213Y22835D02*
D03*
X159516Y21303D02*
D03*
X154129Y9762D02*
D03*
X91339Y225590D02*
D03*
X92913Y151969D02*
D03*
X89309Y163823D02*
D03*
X117186Y144332D02*
D03*
X115815Y68941D02*
D03*
X108335D02*
D03*
X112666D02*
D03*
X128020D02*
D03*
X131170D02*
D03*
X120540D02*
D03*
X123689D02*
D03*
X80323Y96019D02*
D03*
Y91689D02*
D03*
Y107092D02*
D03*
Y102761D02*
D03*
X94555Y72091D02*
D03*
X105185Y68941D02*
D03*
X79134Y192913D02*
D03*
X52429Y204374D02*
D03*
X64567Y151969D02*
D03*
X52875Y190201D02*
D03*
X40945Y210630D02*
D03*
X41732Y224410D02*
D03*
X42587Y143744D02*
D03*
X25606Y93646D02*
D03*
X31118D02*
D03*
X76051Y80752D02*
D03*
X29989Y72091D02*
D03*
X60638Y65704D02*
D03*
X16996Y88626D02*
D03*
X17390Y78784D02*
D03*
X24477Y72091D02*
D03*
X23355Y65583D02*
D03*
X146130Y63823D02*
D03*
X99637Y49487D02*
D03*
X96918Y43744D02*
D03*
Y39413D02*
D03*
X139831Y35476D02*
D03*
X145343Y31539D02*
D03*
X101642Y11461D02*
D03*
X129558Y5787D02*
D03*
X118141Y9724D02*
D03*
X96918Y21599D02*
D03*
Y32671D02*
D03*
Y28341D02*
D03*
Y17268D02*
D03*
X87329Y5738D02*
D03*
X72114Y51618D02*
D03*
X60638Y61374D02*
D03*
X60638Y54582D02*
D03*
Y50252D02*
D03*
Y43509D02*
D03*
X23355Y61252D02*
D03*
Y54510D02*
D03*
Y50180D02*
D03*
X71653Y35039D02*
D03*
X60638Y39179D02*
D03*
Y32437D02*
D03*
Y28106D02*
D03*
X23355Y43438D02*
D03*
Y39107D02*
D03*
X23355Y32315D02*
D03*
Y27985D02*
D03*
X37008Y6299D02*
D03*
X27590Y22716D02*
D03*
X252117Y61682D02*
D03*
X166209Y42169D02*
D03*
X102036Y53980D02*
D03*
X93689Y77996D02*
D03*
X72114Y56736D02*
D03*
X71721Y61067D02*
D03*
X81170Y41382D02*
D03*
X186620Y79112D02*
D03*
D83*
X89810Y60488D02*
D03*
X87555D02*
D03*
M02*
