G04*
G04 #@! TF.GenerationSoftware,Altium Limited,Altium Designer,25.8.1 (18)*
G04*
G04 Layer_Physical_Order=1*
G04 Layer_Color=255*
%FSLAX25Y25*%
%MOIN*%
G70*
G04*
G04 #@! TF.SameCoordinates,31BD0CA7-68FF-495C-AAF5-E67D81281D59*
G04*
G04*
G04 #@! TF.FilePolarity,Positive*
G04*
G01*
G75*
%ADD10C,0.00787*%
%ADD15C,0.00500*%
%ADD19C,0.01000*%
%ADD20C,0.01575*%
%ADD21C,0.01968*%
%ADD26R,0.15512X0.05000*%
%ADD27R,0.02362X0.04134*%
%ADD28R,0.03740X0.03347*%
G04:AMPARAMS|DCode=29|XSize=27.95mil|YSize=34.65mil|CornerRadius=4.61mil|HoleSize=0mil|Usage=FLASHONLY|Rotation=270.000|XOffset=0mil|YOffset=0mil|HoleType=Round|Shape=RoundedRectangle|*
%AMROUNDEDRECTD29*
21,1,0.02795,0.02542,0,0,270.0*
21,1,0.01873,0.03465,0,0,270.0*
1,1,0.00922,-0.01271,-0.00936*
1,1,0.00922,-0.01271,0.00936*
1,1,0.00922,0.01271,0.00936*
1,1,0.00922,0.01271,-0.00936*
%
%ADD29ROUNDEDRECTD29*%
%ADD30R,0.03543X0.02756*%
%ADD31R,0.02197X0.07378*%
%ADD32R,0.02756X0.03543*%
%ADD33R,0.14961X0.07992*%
G04:AMPARAMS|DCode=34|XSize=27.95mil|YSize=34.65mil|CornerRadius=4.61mil|HoleSize=0mil|Usage=FLASHONLY|Rotation=180.000|XOffset=0mil|YOffset=0mil|HoleType=Round|Shape=RoundedRectangle|*
%AMROUNDEDRECTD34*
21,1,0.02795,0.02542,0,0,180.0*
21,1,0.01873,0.03465,0,0,180.0*
1,1,0.00922,-0.00936,0.01271*
1,1,0.00922,0.00936,0.01271*
1,1,0.00922,0.00936,-0.01271*
1,1,0.00922,-0.00936,-0.01271*
%
%ADD34ROUNDEDRECTD34*%
%ADD35R,0.04803X0.02610*%
%ADD36O,0.04803X0.02610*%
G04:AMPARAMS|DCode=37|XSize=39.37mil|YSize=57.87mil|CornerRadius=6.5mil|HoleSize=0mil|Usage=FLASHONLY|Rotation=180.000|XOffset=0mil|YOffset=0mil|HoleType=Round|Shape=RoundedRectangle|*
%AMROUNDEDRECTD37*
21,1,0.03937,0.04488,0,0,180.0*
21,1,0.02638,0.05787,0,0,180.0*
1,1,0.01299,-0.01319,0.02244*
1,1,0.01299,0.01319,0.02244*
1,1,0.01299,0.01319,-0.02244*
1,1,0.01299,-0.01319,-0.02244*
%
%ADD37ROUNDEDRECTD37*%
G04:AMPARAMS|DCode=38|XSize=47.64mil|YSize=71.65mil|CornerRadius=7.86mil|HoleSize=0mil|Usage=FLASHONLY|Rotation=270.000|XOffset=0mil|YOffset=0mil|HoleType=Round|Shape=RoundedRectangle|*
%AMROUNDEDRECTD38*
21,1,0.04764,0.05593,0,0,270.0*
21,1,0.03192,0.07165,0,0,270.0*
1,1,0.01572,-0.02797,-0.01596*
1,1,0.01572,-0.02797,0.01596*
1,1,0.01572,0.02797,0.01596*
1,1,0.01572,0.02797,-0.01596*
%
%ADD38ROUNDEDRECTD38*%
%ADD39R,0.03347X0.03740*%
%ADD40R,0.06102X0.05315*%
%ADD41R,0.05512X0.03937*%
%ADD42R,0.04134X0.01378*%
%ADD43R,0.01378X0.04134*%
%ADD44R,0.05315X0.06102*%
G04:AMPARAMS|DCode=45|XSize=23.62mil|YSize=39.37mil|CornerRadius=2.01mil|HoleSize=0mil|Usage=FLASHONLY|Rotation=90.000|XOffset=0mil|YOffset=0mil|HoleType=Round|Shape=RoundedRectangle|*
%AMROUNDEDRECTD45*
21,1,0.02362,0.03535,0,0,90.0*
21,1,0.01961,0.03937,0,0,90.0*
1,1,0.00402,0.01768,0.00980*
1,1,0.00402,0.01768,-0.00980*
1,1,0.00402,-0.01768,-0.00980*
1,1,0.00402,-0.01768,0.00980*
%
%ADD45ROUNDEDRECTD45*%
%ADD46R,0.03150X0.03150*%
%ADD47R,0.12795X0.12795*%
%ADD48R,0.06299X0.10630*%
G04:AMPARAMS|DCode=49|XSize=45.67mil|YSize=107.09mil|CornerRadius=7.54mil|HoleSize=0mil|Usage=FLASHONLY|Rotation=0.000|XOffset=0mil|YOffset=0mil|HoleType=Round|Shape=RoundedRectangle|*
%AMROUNDEDRECTD49*
21,1,0.04567,0.09202,0,0,0.0*
21,1,0.03060,0.10709,0,0,0.0*
1,1,0.01507,0.01530,-0.04601*
1,1,0.01507,-0.01530,-0.04601*
1,1,0.01507,-0.01530,0.04601*
1,1,0.01507,0.01530,0.04601*
%
%ADD49ROUNDEDRECTD49*%
%ADD50R,0.03150X0.03150*%
G04:AMPARAMS|DCode=51|XSize=19.68mil|YSize=35.43mil|CornerRadius=3.25mil|HoleSize=0mil|Usage=FLASHONLY|Rotation=270.000|XOffset=0mil|YOffset=0mil|HoleType=Round|Shape=RoundedRectangle|*
%AMROUNDEDRECTD51*
21,1,0.01968,0.02894,0,0,270.0*
21,1,0.01319,0.03543,0,0,270.0*
1,1,0.00650,-0.01447,-0.00659*
1,1,0.00650,-0.01447,0.00659*
1,1,0.00650,0.01447,0.00659*
1,1,0.00650,0.01447,-0.00659*
%
%ADD51ROUNDEDRECTD51*%
%ADD84C,0.03937*%
G04:AMPARAMS|DCode=85|XSize=13.78mil|YSize=35.43mil|CornerRadius=3.93mil|HoleSize=0mil|Usage=FLASHONLY|Rotation=90.000|XOffset=0mil|YOffset=0mil|HoleType=Round|Shape=RoundedRectangle|*
%AMROUNDEDRECTD85*
21,1,0.01378,0.02758,0,0,90.0*
21,1,0.00593,0.03543,0,0,90.0*
1,1,0.00785,0.01379,0.00296*
1,1,0.00785,0.01379,-0.00296*
1,1,0.00785,-0.01379,-0.00296*
1,1,0.00785,-0.01379,0.00296*
%
%ADD85ROUNDEDRECTD85*%
G04:AMPARAMS|DCode=86|XSize=47.24mil|YSize=18.7mil|CornerRadius=3.93mil|HoleSize=0mil|Usage=FLASHONLY|Rotation=90.000|XOffset=0mil|YOffset=0mil|HoleType=Round|Shape=RoundedRectangle|*
%AMROUNDEDRECTD86*
21,1,0.04724,0.01085,0,0,90.0*
21,1,0.03939,0.01870,0,0,90.0*
1,1,0.00785,0.00542,0.01970*
1,1,0.00785,0.00542,-0.01970*
1,1,0.00785,-0.00542,-0.01970*
1,1,0.00785,-0.00542,0.01970*
%
%ADD86ROUNDEDRECTD86*%
G04:AMPARAMS|DCode=87|XSize=47.24mil|YSize=13.78mil|CornerRadius=3.93mil|HoleSize=0mil|Usage=FLASHONLY|Rotation=90.000|XOffset=0mil|YOffset=0mil|HoleType=Round|Shape=RoundedRectangle|*
%AMROUNDEDRECTD87*
21,1,0.04724,0.00593,0,0,90.0*
21,1,0.03939,0.01378,0,0,90.0*
1,1,0.00785,0.00296,0.01970*
1,1,0.00785,0.00296,-0.01970*
1,1,0.00785,-0.00296,-0.01970*
1,1,0.00785,-0.00296,0.01970*
%
%ADD87ROUNDEDRECTD87*%
G04:AMPARAMS|DCode=88|XSize=62.99mil|YSize=84.65mil|CornerRadius=4.1mil|HoleSize=0mil|Usage=FLASHONLY|Rotation=90.000|XOffset=0mil|YOffset=0mil|HoleType=Round|Shape=RoundedRectangle|*
%AMROUNDEDRECTD88*
21,1,0.06299,0.07646,0,0,90.0*
21,1,0.05480,0.08465,0,0,90.0*
1,1,0.00819,0.03823,0.02740*
1,1,0.00819,0.03823,-0.02740*
1,1,0.00819,-0.03823,-0.02740*
1,1,0.00819,-0.03823,0.02740*
%
%ADD88ROUNDEDRECTD88*%
%ADD89C,0.01378*%
%ADD90C,0.13287*%
%ADD91C,0.07650*%
%ADD92C,0.09055*%
%ADD93C,0.06000*%
%ADD94C,0.05512*%
%ADD95C,0.12205*%
%ADD96C,0.04193*%
%ADD97C,0.02362*%
%ADD98C,0.03150*%
%ADD99C,0.01772*%
G36*
X407283Y228263D02*
X408677D01*
Y232283D01*
X410496D01*
Y228460D01*
X411005D01*
Y227362D01*
X410433D01*
Y223031D01*
X411093D01*
Y222508D01*
X410957Y222372D01*
X406141D01*
X400553Y227959D01*
X400760Y228460D01*
X403480D01*
Y232283D01*
X405299D01*
Y228263D01*
X406693D01*
Y232542D01*
X407283D01*
Y228263D01*
D02*
G37*
G36*
X377284D02*
X378677D01*
Y232283D01*
X380496D01*
Y228460D01*
X380876D01*
Y218563D01*
X377559D01*
Y209784D01*
X381239D01*
Y200339D01*
X380087D01*
Y196205D01*
X384615D01*
Y200339D01*
X383463D01*
Y209784D01*
X393307D01*
Y218563D01*
X383100D01*
Y228460D01*
X383480D01*
Y232283D01*
X385496D01*
Y228460D01*
X385691D01*
X385806Y227959D01*
X385339Y227493D01*
X385039Y226769D01*
Y225986D01*
X385339Y225263D01*
X385893Y224709D01*
X385896Y224708D01*
Y222633D01*
X385896Y222633D01*
X385981Y222207D01*
X386222Y221847D01*
X388126Y219942D01*
X388126Y219942D01*
X388487Y219701D01*
X388913Y219616D01*
X397768D01*
X402362Y215022D01*
Y209784D01*
X405648D01*
Y204076D01*
X405645Y204074D01*
X405091Y203521D01*
X404792Y202797D01*
Y202014D01*
X405091Y201290D01*
X405543Y200839D01*
X405407Y200365D01*
X405390Y200339D01*
X404496D01*
Y196205D01*
X409024D01*
Y200339D01*
X408131D01*
X408114Y200365D01*
X407977Y200839D01*
X408429Y201290D01*
X408729Y202014D01*
Y202797D01*
X408429Y203521D01*
X407875Y204074D01*
X407872Y204076D01*
Y209784D01*
X418110D01*
Y218563D01*
X402362D01*
Y218563D01*
X402082Y218447D01*
X399015Y221515D01*
X398654Y221756D01*
X398228Y221840D01*
X398228Y221840D01*
X394386D01*
X394205Y222340D01*
X394486Y223018D01*
Y223801D01*
X394186Y224524D01*
X393633Y225078D01*
X393169Y225270D01*
Y228460D01*
X393480D01*
Y232283D01*
X395496D01*
Y228460D01*
X396908D01*
X404894Y220474D01*
X404894Y220474D01*
X405254Y220233D01*
X405680Y220148D01*
X411417D01*
X411417Y220148D01*
X411843Y220233D01*
X412204Y220474D01*
X412991Y221261D01*
X412991Y221261D01*
X413232Y221622D01*
X413317Y222047D01*
X413317Y222047D01*
Y223031D01*
X413976D01*
Y227362D01*
X413229D01*
Y228460D01*
X413480D01*
Y232283D01*
X416142D01*
Y228783D01*
X516831D01*
Y228359D01*
X521031D01*
X525231D01*
Y228783D01*
X528346D01*
Y232283D01*
X532780D01*
Y227869D01*
X534173D01*
Y232148D01*
X534764D01*
Y227869D01*
X536158D01*
Y232283D01*
X537976D01*
Y228066D01*
X538357D01*
Y218169D01*
X535039D01*
Y209390D01*
X538719D01*
Y199945D01*
X537567D01*
Y195819D01*
X537567Y195811D01*
X537549Y195319D01*
X536629D01*
Y183648D01*
X535702Y182720D01*
X525212D01*
X524818Y171696D01*
X533873D01*
X536629Y168941D01*
Y167366D01*
X537932D01*
Y160575D01*
X536977D01*
Y156047D01*
X541111D01*
Y160575D01*
X540156D01*
Y167366D01*
X564310D01*
Y160575D01*
X563355D01*
Y156047D01*
X567489D01*
Y160575D01*
X566534D01*
Y167743D01*
X570094Y171303D01*
X579543D01*
Y182720D01*
X578362Y183901D01*
X567403D01*
X566814Y184490D01*
X566840Y184623D01*
X566709Y185286D01*
X566551Y185522D01*
Y195319D01*
X566522D01*
X566504Y195811D01*
X566504Y195819D01*
Y199945D01*
X565611D01*
X565594Y199971D01*
X565457Y200445D01*
X565909Y200897D01*
X566209Y201620D01*
Y202403D01*
X565909Y203127D01*
X565356Y203681D01*
X565352Y203682D01*
Y209390D01*
X575591D01*
Y218169D01*
X559842D01*
Y218169D01*
X559562Y218053D01*
X556495Y221121D01*
X556134Y221362D01*
X555709Y221447D01*
X555709Y221447D01*
X551866D01*
X551686Y221947D01*
X551966Y222624D01*
Y223407D01*
X551667Y224131D01*
X551113Y224685D01*
X550649Y224877D01*
Y228066D01*
X550961D01*
Y232283D01*
X552976D01*
Y228066D01*
X554388D01*
X562374Y220080D01*
X562374Y220080D01*
X562735Y219839D01*
X563160Y219754D01*
X568898D01*
X568898Y219754D01*
X569323Y219839D01*
X569684Y220080D01*
X570471Y220867D01*
X570471Y220867D01*
X570712Y221228D01*
X570797Y221654D01*
X570797Y221654D01*
Y222638D01*
X571457D01*
Y226969D01*
X570709D01*
Y228066D01*
X570961D01*
Y232283D01*
X573622D01*
Y228783D01*
X628900D01*
Y1020D01*
X1020Y1020D01*
X1020Y228783D01*
X43602D01*
Y228359D01*
X47803D01*
X52003D01*
Y228783D01*
X55973D01*
Y232283D01*
X59551D01*
Y227869D01*
X60945D01*
Y232148D01*
X61535D01*
Y227869D01*
X62929D01*
Y232283D01*
X64748D01*
Y228066D01*
X65128D01*
Y218169D01*
X61811D01*
Y209390D01*
X65491D01*
Y199945D01*
X64339D01*
Y195819D01*
X64339Y195811D01*
X64320Y195319D01*
X63847D01*
Y184094D01*
X62474Y182720D01*
X52429D01*
X52036Y171697D01*
X61091D01*
X63847Y168941D01*
Y167366D01*
X64703D01*
Y160575D01*
X63748D01*
Y156047D01*
X67882D01*
Y160575D01*
X66927D01*
Y167366D01*
X76996D01*
X77237Y167318D01*
X77479Y167366D01*
X91081D01*
Y160575D01*
X90126D01*
Y156047D01*
X94260D01*
Y160575D01*
X93305D01*
Y167366D01*
X93374D01*
X97311Y171303D01*
X106760D01*
Y182720D01*
X105579Y183902D01*
X94174D01*
X93768Y184307D01*
Y195319D01*
X93295D01*
X93276Y195811D01*
X93276Y195819D01*
Y199945D01*
X92382D01*
X92366Y199971D01*
X92229Y200445D01*
X92681Y200897D01*
X92981Y201620D01*
Y202403D01*
X92681Y203127D01*
X92127Y203681D01*
X92124Y203682D01*
Y209390D01*
X102362D01*
Y218169D01*
X86614D01*
Y218169D01*
X86334Y218053D01*
X83267Y221121D01*
X82906Y221362D01*
X82480Y221447D01*
X82480Y221447D01*
X78637D01*
X78457Y221947D01*
X78738Y222624D01*
Y223407D01*
X78438Y224131D01*
X77885Y224685D01*
X77421Y224877D01*
Y228066D01*
X77732D01*
Y232283D01*
X79748D01*
Y228066D01*
X81160D01*
X89146Y220080D01*
X89146Y220080D01*
X89506Y219839D01*
X89932Y219754D01*
X95669D01*
X95669Y219754D01*
X96095Y219839D01*
X96456Y220080D01*
X97243Y220867D01*
X97243Y220867D01*
X97484Y221228D01*
X97569Y221654D01*
X97569Y221654D01*
Y222638D01*
X98228D01*
Y226969D01*
X97480D01*
Y228066D01*
X97732D01*
Y232283D01*
X101181D01*
Y228783D01*
X201673D01*
Y228628D01*
X205873D01*
X210073D01*
Y228783D01*
X213386D01*
Y232283D01*
X217622D01*
Y228138D01*
X219015D01*
Y232417D01*
X219606D01*
Y228138D01*
X221000D01*
Y232283D01*
X222818D01*
Y228334D01*
X223199D01*
Y218438D01*
X219881D01*
Y209659D01*
X223561D01*
Y200214D01*
X222409D01*
Y196080D01*
X226937D01*
Y200214D01*
X225785D01*
Y209659D01*
X235630D01*
Y218438D01*
X225423D01*
Y228334D01*
X225803D01*
Y232283D01*
X227818D01*
Y228334D01*
X228014D01*
X228128Y227835D01*
X227661Y227368D01*
X227362Y226644D01*
Y225861D01*
X227661Y225138D01*
X228215Y224584D01*
X228218Y224583D01*
Y222508D01*
X228218Y222508D01*
X228303Y222082D01*
X228544Y221722D01*
X230449Y219817D01*
X230449Y219817D01*
X230809Y219576D01*
X231235Y219492D01*
X240090D01*
X244685Y214897D01*
Y209659D01*
X247971D01*
Y203951D01*
X247968Y203949D01*
X247414Y203396D01*
X247114Y202672D01*
Y201889D01*
X247414Y201166D01*
X247866Y200714D01*
X247729Y200240D01*
X247712Y200214D01*
X246819D01*
Y196080D01*
X251346D01*
Y200214D01*
X250453D01*
X250436Y200240D01*
X250300Y200714D01*
X250751Y201166D01*
X251051Y201889D01*
Y202672D01*
X250751Y203396D01*
X250198Y203949D01*
X250195Y203951D01*
Y209659D01*
X260433D01*
Y218438D01*
X244685D01*
Y218438D01*
X244405Y218322D01*
X241337Y221390D01*
X240976Y221631D01*
X240551Y221715D01*
X240551Y221715D01*
X236708D01*
X236528Y222215D01*
X236808Y222893D01*
Y223676D01*
X236509Y224400D01*
X235955Y224953D01*
X235491Y225145D01*
Y228334D01*
X235803D01*
Y232283D01*
X237819D01*
Y228334D01*
X239230D01*
X247216Y220349D01*
X247216Y220349D01*
X247577Y220108D01*
X248002Y220023D01*
X253740D01*
X253740Y220023D01*
X254165Y220108D01*
X254526Y220349D01*
X255313Y221136D01*
X255313Y221136D01*
X255554Y221497D01*
X255639Y221922D01*
X255639Y221922D01*
Y222907D01*
X256299D01*
Y227237D01*
X255551D01*
Y228334D01*
X255803D01*
Y232283D01*
X258661D01*
Y228783D01*
X359351D01*
Y228753D01*
X363551D01*
X367751D01*
Y228783D01*
X370866D01*
Y232283D01*
X375299D01*
Y228263D01*
X376693D01*
Y232542D01*
X377284D01*
Y228263D01*
D02*
G37*
G36*
X249606Y228138D02*
X250999D01*
Y232283D01*
X252818D01*
Y228334D01*
X253327D01*
Y227237D01*
X252755D01*
Y222907D01*
X253415D01*
Y222383D01*
X253279Y222247D01*
X248463D01*
X242875Y227835D01*
X243082Y228334D01*
X245803D01*
Y232283D01*
X247622D01*
Y228138D01*
X249015D01*
Y232417D01*
X249606D01*
Y228138D01*
D02*
G37*
G36*
X567976Y228066D02*
X568485D01*
Y226969D01*
X567913D01*
Y222638D01*
X568573D01*
Y222114D01*
X568437Y221978D01*
X563621D01*
X558033Y227566D01*
X558240Y228066D01*
X560961D01*
Y232283D01*
X562780D01*
Y227869D01*
X564173D01*
Y232148D01*
X564764D01*
Y227869D01*
X566157D01*
Y232283D01*
X567976D01*
Y228066D01*
D02*
G37*
G36*
X94748D02*
X95257D01*
Y226969D01*
X94685D01*
Y222638D01*
X95345D01*
Y222114D01*
X95209Y221978D01*
X90393D01*
X84805Y227566D01*
X85012Y228066D01*
X87732D01*
Y232283D01*
X89551D01*
Y227869D01*
X90945D01*
Y232148D01*
X91535D01*
Y227869D01*
X92929D01*
Y232283D01*
X94748D01*
Y228066D01*
D02*
G37*
G36*
X69748D02*
X69943D01*
X70057Y227566D01*
X69591Y227099D01*
X69291Y226376D01*
Y225593D01*
X69591Y224869D01*
X70145Y224315D01*
X70148Y224314D01*
Y222239D01*
X70148Y222239D01*
X70233Y221814D01*
X70474Y221453D01*
X72378Y219548D01*
X72378Y219548D01*
X72739Y219307D01*
X73164Y219223D01*
X82020D01*
X86614Y214628D01*
Y209390D01*
X89900D01*
Y203682D01*
X89897Y203681D01*
X89343Y203127D01*
X89044Y202403D01*
Y201620D01*
X89343Y200897D01*
X89795Y200445D01*
X89659Y199971D01*
X89642Y199945D01*
X88748D01*
Y195819D01*
X88748Y195811D01*
X88729Y195319D01*
X87863D01*
Y187839D01*
X81140D01*
Y189202D01*
X79171D01*
X77203D01*
Y187839D01*
X75431D01*
Y191663D01*
X75431Y191663D01*
X75431D01*
X75440Y192159D01*
X75590Y192522D01*
Y193305D01*
X75291Y194028D01*
X74737Y194582D01*
X74014Y194882D01*
X73230D01*
X72507Y194582D01*
X71953Y194028D01*
X71653Y193305D01*
Y192522D01*
X71815Y192133D01*
X71888Y191663D01*
X71888Y191663D01*
X71888Y191663D01*
Y187839D01*
X70146D01*
Y195319D01*
X69752Y195713D01*
X69385Y195345D01*
X68883Y195378D01*
X68866Y195811D01*
X68866Y195819D01*
Y199945D01*
X67715D01*
Y209390D01*
X77559D01*
Y218169D01*
X67352D01*
Y228066D01*
X67732D01*
Y232283D01*
X69748D01*
Y228066D01*
D02*
G37*
G36*
X542976D02*
X543172D01*
X543286Y227566D01*
X542819Y227099D01*
X542520Y226376D01*
Y225593D01*
X542819Y224869D01*
X543373Y224315D01*
X543376Y224314D01*
Y222239D01*
X543376Y222239D01*
X543461Y221814D01*
X543702Y221453D01*
X545607Y219548D01*
X545607Y219548D01*
X545967Y219307D01*
X546393Y219223D01*
X555248D01*
X559842Y214628D01*
Y209390D01*
X563129D01*
Y203682D01*
X563126Y203681D01*
X562572Y203127D01*
X562272Y202403D01*
Y201620D01*
X562572Y200897D01*
X563024Y200445D01*
X562887Y199971D01*
X562870Y199945D01*
X561977D01*
Y195819D01*
X561977Y195811D01*
X561959Y195319D01*
X560645D01*
Y187838D01*
X554685D01*
X554331Y188189D01*
X554331Y188338D01*
Y190256D01*
X552362D01*
Y190551D01*
D01*
Y190256D01*
X550394D01*
Y188338D01*
X550394Y188189D01*
X550039Y187838D01*
X548293D01*
Y188386D01*
X548622D01*
Y192717D01*
X548622Y192717D01*
X548617Y193217D01*
X548819Y193703D01*
Y194486D01*
X548519Y195210D01*
X547965Y195763D01*
X547242Y196063D01*
X546459D01*
X545735Y195763D01*
X545182Y195210D01*
X544882Y194486D01*
Y193703D01*
X545083Y193217D01*
X545079Y192717D01*
X545079Y192717D01*
X545079Y192717D01*
Y188386D01*
X545483D01*
Y187838D01*
X542929D01*
Y195319D01*
X542548Y195699D01*
X542535Y195712D01*
X542095Y195979D01*
Y199945D01*
X540943D01*
Y209390D01*
X550787D01*
Y218169D01*
X540580D01*
Y228066D01*
X540961D01*
Y232283D01*
X542976D01*
Y228066D01*
D02*
G37*
%LPC*%
G36*
X419685Y227559D02*
X418012D01*
Y225492D01*
X419685D01*
Y227559D01*
D02*
G37*
G36*
X417421D02*
X415748D01*
Y225492D01*
X417421D01*
Y227559D01*
D02*
G37*
G36*
X367751Y228162D02*
X363846D01*
Y225458D01*
X366347D01*
X366884Y225565D01*
X367340Y225869D01*
X367644Y226325D01*
X367751Y226862D01*
Y228162D01*
D02*
G37*
G36*
X363256D02*
X359351D01*
Y226862D01*
X359457Y226325D01*
X359762Y225869D01*
X360217Y225565D01*
X360754Y225458D01*
X363256D01*
Y228162D01*
D02*
G37*
G36*
X262007Y227434D02*
X260334D01*
Y225367D01*
X262007D01*
Y227434D01*
D02*
G37*
G36*
X259744D02*
X258070D01*
Y225367D01*
X259744D01*
Y227434D01*
D02*
G37*
G36*
X210073Y228037D02*
X206168D01*
Y225333D01*
X208670D01*
X209207Y225440D01*
X209662Y225744D01*
X209966Y226200D01*
X210073Y226737D01*
Y228037D01*
D02*
G37*
G36*
X205578D02*
X201673D01*
Y226737D01*
X201780Y226200D01*
X202084Y225744D01*
X202539Y225440D01*
X203077Y225333D01*
X205578D01*
Y228037D01*
D02*
G37*
G36*
X577165Y227165D02*
X575492D01*
Y225098D01*
X577165D01*
Y227165D01*
D02*
G37*
G36*
X103937D02*
X102264D01*
Y225098D01*
X103937D01*
Y227165D01*
D02*
G37*
G36*
X574902D02*
X573228D01*
Y225098D01*
X574902D01*
Y227165D01*
D02*
G37*
G36*
X101673D02*
X100000D01*
Y225098D01*
X101673D01*
Y227165D01*
D02*
G37*
G36*
X525231Y227769D02*
X521326D01*
Y225064D01*
X523828D01*
X524365Y225171D01*
X524820Y225476D01*
X525124Y225931D01*
X525231Y226468D01*
Y227769D01*
D02*
G37*
G36*
X520736D02*
X516831D01*
Y226468D01*
X516938Y225931D01*
X517242Y225476D01*
X517697Y225171D01*
X518234Y225064D01*
X520736D01*
Y227769D01*
D02*
G37*
G36*
X52003Y227769D02*
X48098D01*
Y225064D01*
X50599D01*
X51136Y225171D01*
X51592Y225476D01*
X51896Y225931D01*
X52003Y226468D01*
Y227769D01*
D02*
G37*
G36*
X47508D02*
X43602D01*
Y226468D01*
X43709Y225931D01*
X44014Y225476D01*
X44469Y225171D01*
X45006Y225064D01*
X47508D01*
Y227769D01*
D02*
G37*
G36*
X419685Y224902D02*
X418012D01*
Y222835D01*
X419685D01*
Y224902D01*
D02*
G37*
G36*
X417421D02*
X415748D01*
Y222835D01*
X417421D01*
Y224902D01*
D02*
G37*
G36*
X262007Y224777D02*
X260334D01*
Y222710D01*
X262007D01*
Y224777D01*
D02*
G37*
G36*
X259744D02*
X258070D01*
Y222710D01*
X259744D01*
Y224777D01*
D02*
G37*
G36*
X577165Y224508D02*
X575492D01*
Y222441D01*
X577165D01*
Y224508D01*
D02*
G37*
G36*
X574902D02*
X573228D01*
Y222441D01*
X574902D01*
Y224508D01*
D02*
G37*
G36*
X103937D02*
X102264D01*
Y222441D01*
X103937D01*
Y224508D01*
D02*
G37*
G36*
X101673D02*
X100000D01*
Y222441D01*
X101673D01*
Y224508D01*
D02*
G37*
G36*
X362591Y213380D02*
X360918D01*
Y211314D01*
X362591D01*
Y213380D01*
D02*
G37*
G36*
X360327D02*
X358654D01*
Y211314D01*
X360327D01*
Y213380D01*
D02*
G37*
G36*
X204913Y213256D02*
X203240D01*
Y211189D01*
X204913D01*
Y213256D01*
D02*
G37*
G36*
X202650D02*
X200976D01*
Y211189D01*
X202650D01*
Y213256D01*
D02*
G37*
G36*
X616879Y225984D02*
X615405D01*
X613960Y225697D01*
X612599Y225133D01*
X611373Y224314D01*
X610331Y223272D01*
X609513Y222047D01*
X608949Y220686D01*
X608661Y219241D01*
Y217767D01*
X608949Y216322D01*
X609513Y214961D01*
X610331Y213736D01*
X611373Y212694D01*
X612599Y211875D01*
X613960Y211311D01*
X615405Y211024D01*
X616879D01*
X618324Y211311D01*
X619685Y211875D01*
X620910Y212694D01*
X621952Y213736D01*
X622771Y214961D01*
X623335Y216322D01*
X623622Y217767D01*
Y219241D01*
X623335Y220686D01*
X622771Y222047D01*
X621952Y223272D01*
X620910Y224314D01*
X619685Y225133D01*
X618324Y225697D01*
X616879Y225984D01*
D02*
G37*
G36*
X14516Y225984D02*
X13043D01*
X11598Y225697D01*
X10236Y225133D01*
X9011Y224314D01*
X7969Y223272D01*
X7151Y222047D01*
X6587Y220686D01*
X6299Y219241D01*
Y217767D01*
X6587Y216322D01*
X7151Y214961D01*
X7969Y213736D01*
X9011Y212694D01*
X10236Y211875D01*
X11598Y211311D01*
X13043Y211024D01*
X14516D01*
X15961Y211311D01*
X17323Y211875D01*
X18548Y212694D01*
X19590Y213736D01*
X20409Y214961D01*
X20972Y216322D01*
X21260Y217767D01*
Y219241D01*
X20972Y220686D01*
X20409Y222047D01*
X19590Y223272D01*
X18548Y224314D01*
X17323Y225133D01*
X15961Y225697D01*
X14516Y225984D01*
D02*
G37*
G36*
X520072Y212987D02*
X518398D01*
Y210920D01*
X520072D01*
Y212987D01*
D02*
G37*
G36*
X46843D02*
X45170D01*
Y210920D01*
X46843D01*
Y212987D01*
D02*
G37*
G36*
X517808D02*
X516135D01*
Y210920D01*
X517808D01*
Y212987D01*
D02*
G37*
G36*
X44579D02*
X42906D01*
Y210920D01*
X44579D01*
Y212987D01*
D02*
G37*
G36*
X366347Y219839D02*
X360754D01*
X360294Y219747D01*
X359904Y219487D01*
X359643Y219096D01*
X359551Y218636D01*
Y215444D01*
X359643Y214984D01*
X359904Y214594D01*
X360294Y214333D01*
X360754Y214242D01*
X365023D01*
Y213184D01*
X364363D01*
Y208853D01*
X367906D01*
Y209704D01*
X369131D01*
X369133Y209701D01*
X369687Y209148D01*
X370410Y208848D01*
X371193D01*
X371917Y209148D01*
X372470Y209701D01*
X372770Y210425D01*
Y211208D01*
X372470Y211931D01*
X371917Y212485D01*
X371193Y212785D01*
X370410D01*
X369687Y212485D01*
X369133Y211931D01*
X369131Y211928D01*
X367906D01*
Y213184D01*
X367246D01*
Y214666D01*
X367459Y214984D01*
X367550Y215444D01*
Y218636D01*
X367459Y219096D01*
X367198Y219487D01*
X366808Y219747D01*
X366347Y219839D01*
D02*
G37*
G36*
X208670Y219714D02*
X203077D01*
X202616Y219622D01*
X202226Y219362D01*
X201965Y218971D01*
X201874Y218511D01*
Y215319D01*
X201965Y214859D01*
X202226Y214469D01*
X202616Y214208D01*
X203077Y214117D01*
X207345D01*
Y213059D01*
X206685D01*
Y208728D01*
X210228D01*
Y209579D01*
X211454D01*
X211455Y209576D01*
X212009Y209023D01*
X212732Y208723D01*
X213515D01*
X214239Y209023D01*
X214793Y209576D01*
X215092Y210300D01*
Y211083D01*
X214793Y211806D01*
X214239Y212360D01*
X213515Y212660D01*
X212732D01*
X212009Y212360D01*
X211455Y211806D01*
X211454Y211803D01*
X210228D01*
Y213059D01*
X209569D01*
Y214541D01*
X209781Y214859D01*
X209873Y215319D01*
Y218511D01*
X209781Y218971D01*
X209520Y219362D01*
X209130Y219622D01*
X208670Y219714D01*
D02*
G37*
G36*
X362591Y210723D02*
X360918D01*
Y208656D01*
X362591D01*
Y210723D01*
D02*
G37*
G36*
X360327D02*
X358654D01*
Y208656D01*
X360327D01*
Y210723D01*
D02*
G37*
G36*
X204913Y210598D02*
X203240D01*
Y208531D01*
X204913D01*
Y210598D01*
D02*
G37*
G36*
X202650D02*
X200976D01*
Y208531D01*
X202650D01*
Y210598D01*
D02*
G37*
G36*
X523828Y219445D02*
X518234D01*
X517774Y219354D01*
X517384Y219093D01*
X517123Y218703D01*
X517032Y218243D01*
Y215051D01*
X517123Y214590D01*
X517384Y214200D01*
X517774Y213939D01*
X518234Y213848D01*
X522503D01*
Y212790D01*
X521843D01*
Y208459D01*
X525386D01*
Y209311D01*
X526612D01*
X526613Y209308D01*
X527167Y208754D01*
X527890Y208454D01*
X528673D01*
X529397Y208754D01*
X529951Y209308D01*
X530250Y210031D01*
Y210814D01*
X529951Y211538D01*
X529397Y212091D01*
X528673Y212391D01*
X527890D01*
X527167Y212091D01*
X526613Y211538D01*
X526612Y211535D01*
X525386D01*
Y212790D01*
X524727D01*
Y214273D01*
X524939Y214590D01*
X525031Y215051D01*
Y218243D01*
X524939Y218703D01*
X524678Y219093D01*
X524288Y219354D01*
X523828Y219445D01*
D02*
G37*
G36*
X50599D02*
X45006D01*
X44546Y219354D01*
X44155Y219093D01*
X43895Y218703D01*
X43803Y218243D01*
Y215051D01*
X43895Y214590D01*
X44155Y214200D01*
X44546Y213939D01*
X45006Y213848D01*
X49275D01*
Y212790D01*
X48615D01*
Y208459D01*
X52158D01*
Y209311D01*
X53383D01*
X53385Y209308D01*
X53938Y208754D01*
X54662Y208454D01*
X55445D01*
X56169Y208754D01*
X56722Y209308D01*
X57022Y210031D01*
Y210814D01*
X56722Y211538D01*
X56169Y212091D01*
X55445Y212391D01*
X54662D01*
X53938Y212091D01*
X53385Y211538D01*
X53383Y211535D01*
X52158D01*
Y212790D01*
X51498D01*
Y214273D01*
X51711Y214590D01*
X51802Y215051D01*
Y218243D01*
X51711Y218703D01*
X51450Y219093D01*
X51060Y219354D01*
X50599Y219445D01*
D02*
G37*
G36*
X520072Y210329D02*
X518398D01*
Y208262D01*
X520072D01*
Y210329D01*
D02*
G37*
G36*
X517808D02*
X516135D01*
Y208262D01*
X517808D01*
Y210329D01*
D02*
G37*
G36*
X46843D02*
X45170D01*
Y208262D01*
X46843D01*
Y210329D01*
D02*
G37*
G36*
X44579D02*
X42906D01*
Y208262D01*
X44579D01*
Y210329D01*
D02*
G37*
G36*
X396888Y192253D02*
X395214D01*
Y190186D01*
X396888D01*
Y192253D01*
D02*
G37*
G36*
X394624D02*
X392951D01*
Y190186D01*
X394624D01*
Y192253D01*
D02*
G37*
G36*
X239210Y192128D02*
X237537D01*
Y190061D01*
X239210D01*
Y192128D01*
D02*
G37*
G36*
X236946D02*
X235273D01*
Y190061D01*
X236946D01*
Y192128D01*
D02*
G37*
G36*
X385040Y195713D02*
X384646Y195319D01*
X379134D01*
Y184027D01*
X377828Y182720D01*
X367717D01*
X367323Y171697D01*
X376378D01*
X379134Y168941D01*
Y167366D01*
X380451D01*
Y160969D01*
X379496D01*
Y156441D01*
X383630D01*
Y160969D01*
X382675D01*
Y167366D01*
X406829D01*
Y160969D01*
X405874D01*
Y156441D01*
X410008D01*
Y160969D01*
X409053D01*
Y167758D01*
X412599Y171303D01*
X422048D01*
Y182720D01*
X420866Y183902D01*
X410316D01*
X409334Y184884D01*
X409360Y185017D01*
X409228Y185680D01*
X409056Y185938D01*
Y195319D01*
X403150D01*
Y187839D01*
X396888D01*
Y189596D01*
X394919D01*
X392951D01*
Y187839D01*
X391179D01*
Y192057D01*
X391179Y192057D01*
X391179D01*
X391188Y192553D01*
X391339Y192915D01*
Y193699D01*
X391039Y194422D01*
X390485Y194976D01*
X389762Y195276D01*
X388979D01*
X388255Y194976D01*
X387701Y194422D01*
X387402Y193699D01*
Y192915D01*
X387563Y192526D01*
X387636Y192057D01*
X387636Y192057D01*
X387636Y192057D01*
Y187839D01*
X385434D01*
Y195319D01*
X385040Y195713D01*
D02*
G37*
G36*
X227567D02*
X227174Y195319D01*
X221662D01*
Y184107D01*
X220275Y182720D01*
X210244D01*
X209851Y171697D01*
X218906D01*
X221662Y168941D01*
Y167366D01*
X222774D01*
Y160844D01*
X221819D01*
Y156316D01*
X225953D01*
Y160844D01*
X224998D01*
Y167366D01*
X249152D01*
Y160844D01*
X248197D01*
Y156316D01*
X252331D01*
Y160844D01*
X251376D01*
Y167552D01*
X255126Y171303D01*
X264575D01*
Y182720D01*
X263394Y183902D01*
X252513D01*
X251656Y184759D01*
X251682Y184892D01*
X251583Y185391D01*
Y195319D01*
X245678D01*
Y187839D01*
X239210D01*
Y189471D01*
X237242D01*
X235273D01*
Y187839D01*
X233501D01*
Y191931D01*
X233501Y191931D01*
X233501D01*
X233511Y192428D01*
X233661Y192791D01*
Y193574D01*
X233361Y194297D01*
X232807Y194851D01*
X232084Y195151D01*
X231301D01*
X230577Y194851D01*
X230024Y194297D01*
X229724Y193574D01*
Y192791D01*
X229885Y192401D01*
X229958Y191931D01*
X229958Y191931D01*
X229958Y191931D01*
Y187839D01*
X227961D01*
Y195319D01*
X227567Y195713D01*
D02*
G37*
G36*
X405149Y154706D02*
X404508D01*
Y152657D01*
X406221D01*
Y153633D01*
X406140Y154044D01*
X405907Y154392D01*
X405559Y154624D01*
X405149Y154706D01*
D02*
G37*
G36*
X403917D02*
X403276D01*
X402866Y154624D01*
X402518Y154392D01*
X402285Y154044D01*
X402204Y153633D01*
Y152657D01*
X403917D01*
Y154706D01*
D02*
G37*
G36*
X386094D02*
X385453D01*
Y152657D01*
X387166D01*
Y153633D01*
X387085Y154044D01*
X386852Y154392D01*
X386504Y154624D01*
X386094Y154706D01*
D02*
G37*
G36*
X384862D02*
X384221D01*
X383811Y154624D01*
X383463Y154392D01*
X383230Y154044D01*
X383149Y153633D01*
Y152657D01*
X384862D01*
Y154706D01*
D02*
G37*
G36*
X247471Y154581D02*
X246830D01*
Y152533D01*
X248544D01*
Y153508D01*
X248462Y153919D01*
X248230Y154267D01*
X247882Y154499D01*
X247471Y154581D01*
D02*
G37*
G36*
X246240D02*
X245599D01*
X245188Y154499D01*
X244840Y154267D01*
X244608Y153919D01*
X244526Y153508D01*
Y152533D01*
X246240D01*
Y154581D01*
D02*
G37*
G36*
X228416D02*
X227775D01*
Y152533D01*
X229489D01*
Y153508D01*
X229407Y153919D01*
X229175Y154267D01*
X228827Y154499D01*
X228416Y154581D01*
D02*
G37*
G36*
X227185D02*
X226543D01*
X226133Y154499D01*
X225785Y154267D01*
X225553Y153919D01*
X225471Y153508D01*
Y152533D01*
X227185D01*
Y154581D01*
D02*
G37*
G36*
X562629Y154312D02*
X561988D01*
Y152264D01*
X563702D01*
Y153240D01*
X563620Y153650D01*
X563388Y153998D01*
X563040Y154230D01*
X562629Y154312D01*
D02*
G37*
G36*
X561398D02*
X560756D01*
X560346Y154230D01*
X559998Y153998D01*
X559766Y153650D01*
X559684Y153240D01*
Y152264D01*
X561398D01*
Y154312D01*
D02*
G37*
G36*
X543574D02*
X542933D01*
Y152264D01*
X544647D01*
Y153240D01*
X544565Y153650D01*
X544333Y153998D01*
X543985Y154230D01*
X543574Y154312D01*
D02*
G37*
G36*
X542343D02*
X541701D01*
X541291Y154230D01*
X540943Y153998D01*
X540711Y153650D01*
X540629Y153240D01*
Y152264D01*
X542343D01*
Y154312D01*
D02*
G37*
G36*
X89401D02*
X88760D01*
Y152264D01*
X90473D01*
Y153240D01*
X90392Y153650D01*
X90159Y153998D01*
X89811Y154230D01*
X89401Y154312D01*
D02*
G37*
G36*
X88169D02*
X87528D01*
X87118Y154230D01*
X86770Y153998D01*
X86537Y153650D01*
X86456Y153240D01*
Y152264D01*
X88169D01*
Y154312D01*
D02*
G37*
G36*
X70346D02*
X69705D01*
Y152264D01*
X71418D01*
Y153240D01*
X71337Y153650D01*
X71104Y153998D01*
X70756Y154230D01*
X70346Y154312D01*
D02*
G37*
G36*
X69114D02*
X68473D01*
X68063Y154230D01*
X67715Y153998D01*
X67482Y153650D01*
X67401Y153240D01*
Y152264D01*
X69114D01*
Y154312D01*
D02*
G37*
G36*
X406221Y152067D02*
X404508D01*
Y150019D01*
X405149D01*
X405559Y150100D01*
X405907Y150333D01*
X406140Y150681D01*
X406221Y151091D01*
Y152067D01*
D02*
G37*
G36*
X403917D02*
X402204D01*
Y151091D01*
X402285Y150681D01*
X402518Y150333D01*
X402866Y150100D01*
X403276Y150019D01*
X403917D01*
Y152067D01*
D02*
G37*
G36*
X387166D02*
X385453D01*
Y150019D01*
X386094D01*
X386504Y150100D01*
X386852Y150333D01*
X387085Y150681D01*
X387166Y151091D01*
Y152067D01*
D02*
G37*
G36*
X384862D02*
X383149D01*
Y151091D01*
X383230Y150681D01*
X383463Y150333D01*
X383811Y150100D01*
X384221Y150019D01*
X384862D01*
Y152067D01*
D02*
G37*
G36*
X248544Y151942D02*
X246830D01*
Y149894D01*
X247471D01*
X247882Y149976D01*
X248230Y150208D01*
X248462Y150556D01*
X248544Y150966D01*
Y151942D01*
D02*
G37*
G36*
X246240D02*
X244526D01*
Y150966D01*
X244608Y150556D01*
X244840Y150208D01*
X245188Y149976D01*
X245599Y149894D01*
X246240D01*
Y151942D01*
D02*
G37*
G36*
X229489D02*
X227775D01*
Y149894D01*
X228416D01*
X228827Y149976D01*
X229175Y150208D01*
X229407Y150556D01*
X229489Y150966D01*
Y151942D01*
D02*
G37*
G36*
X227185D02*
X225471D01*
Y150966D01*
X225553Y150556D01*
X225785Y150208D01*
X226133Y149976D01*
X226543Y149894D01*
X227185D01*
Y151942D01*
D02*
G37*
G36*
X563702Y151673D02*
X561988D01*
Y149625D01*
X562629D01*
X563040Y149707D01*
X563388Y149939D01*
X563620Y150287D01*
X563702Y150698D01*
Y151673D01*
D02*
G37*
G36*
X561398D02*
X559684D01*
Y150698D01*
X559766Y150287D01*
X559998Y149939D01*
X560346Y149707D01*
X560756Y149625D01*
X561398D01*
Y151673D01*
D02*
G37*
G36*
X544647D02*
X542933D01*
Y149625D01*
X543574D01*
X543985Y149707D01*
X544333Y149939D01*
X544565Y150287D01*
X544647Y150698D01*
Y151673D01*
D02*
G37*
G36*
X542343D02*
X540629D01*
Y150698D01*
X540711Y150287D01*
X540943Y149939D01*
X541291Y149707D01*
X541701Y149625D01*
X542343D01*
Y151673D01*
D02*
G37*
G36*
X90473D02*
X88760D01*
Y149625D01*
X89401D01*
X89811Y149707D01*
X90159Y149939D01*
X90392Y150287D01*
X90473Y150698D01*
Y151673D01*
D02*
G37*
G36*
X88169D02*
X86456D01*
Y150698D01*
X86537Y150287D01*
X86770Y149939D01*
X87118Y149707D01*
X87528Y149625D01*
X88169D01*
Y151673D01*
D02*
G37*
G36*
X71418D02*
X69705D01*
Y149625D01*
X70346D01*
X70756Y149707D01*
X71104Y149939D01*
X71337Y150287D01*
X71418Y150698D01*
Y151673D01*
D02*
G37*
G36*
X69114D02*
X67401D01*
Y150698D01*
X67482Y150287D01*
X67715Y149939D01*
X68063Y149707D01*
X68473Y149625D01*
X69114D01*
Y151673D01*
D02*
G37*
G36*
X376240Y149017D02*
X368464D01*
Y144725D01*
X376240D01*
Y149017D01*
D02*
G37*
G36*
X367874D02*
X360098D01*
Y144725D01*
X367874D01*
Y149017D01*
D02*
G37*
G36*
X430572Y149017D02*
X422796D01*
Y144725D01*
X430572D01*
Y149017D01*
D02*
G37*
G36*
X422206D02*
X414430D01*
Y144725D01*
X422206D01*
Y149017D01*
D02*
G37*
G36*
X218563Y148892D02*
X210787D01*
Y144600D01*
X218563D01*
Y148892D01*
D02*
G37*
G36*
X210196D02*
X202421D01*
Y144600D01*
X210196D01*
Y148892D01*
D02*
G37*
G36*
X272894Y148892D02*
X265119D01*
Y144600D01*
X272894D01*
Y148892D01*
D02*
G37*
G36*
X264528D02*
X256752D01*
Y144600D01*
X264528D01*
Y148892D01*
D02*
G37*
G36*
X533720Y148623D02*
X525945D01*
Y144332D01*
X533720D01*
Y148623D01*
D02*
G37*
G36*
X525354D02*
X517579D01*
Y144332D01*
X525354D01*
Y148623D01*
D02*
G37*
G36*
X60492D02*
X52716D01*
Y144332D01*
X60492D01*
Y148623D01*
D02*
G37*
G36*
X52126D02*
X44350D01*
Y144332D01*
X52126D01*
Y148623D01*
D02*
G37*
G36*
X588052Y148623D02*
X580276D01*
Y144332D01*
X588052D01*
Y148623D01*
D02*
G37*
G36*
X114824D02*
X107048D01*
Y144332D01*
X114824D01*
Y148623D01*
D02*
G37*
G36*
X579686D02*
X571910D01*
Y144332D01*
X579686D01*
Y148623D01*
D02*
G37*
G36*
X106458D02*
X98682D01*
Y144332D01*
X106458D01*
Y148623D01*
D02*
G37*
G36*
X376240Y144135D02*
X368464D01*
Y139843D01*
X376240D01*
Y144135D01*
D02*
G37*
G36*
X367874D02*
X360098D01*
Y139843D01*
X367874D01*
Y144135D01*
D02*
G37*
G36*
X430572Y144135D02*
X422796D01*
Y139843D01*
X430572D01*
Y144135D01*
D02*
G37*
G36*
X422206D02*
X414430D01*
Y139843D01*
X422206D01*
Y144135D01*
D02*
G37*
G36*
X218563Y144010D02*
X210787D01*
Y139719D01*
X218563D01*
Y144010D01*
D02*
G37*
G36*
X210196D02*
X202421D01*
Y139719D01*
X210196D01*
Y144010D01*
D02*
G37*
G36*
X272894Y144010D02*
X265119D01*
Y139718D01*
X272894D01*
Y144010D01*
D02*
G37*
G36*
X264528D02*
X256752D01*
Y139718D01*
X264528D01*
Y144010D01*
D02*
G37*
G36*
X533720Y143741D02*
X525945D01*
Y139450D01*
X533720D01*
Y143741D01*
D02*
G37*
G36*
X525354D02*
X517579D01*
Y139450D01*
X525354D01*
Y143741D01*
D02*
G37*
G36*
X60492D02*
X52716D01*
Y139450D01*
X60492D01*
Y143741D01*
D02*
G37*
G36*
X52126D02*
X44350D01*
Y139450D01*
X52126D01*
Y143741D01*
D02*
G37*
G36*
X588052Y143741D02*
X580276D01*
Y139450D01*
X588052D01*
Y143741D01*
D02*
G37*
G36*
X579686D02*
X571910D01*
Y139450D01*
X579686D01*
Y143741D01*
D02*
G37*
G36*
X114824D02*
X107048D01*
Y139450D01*
X114824D01*
Y143741D01*
D02*
G37*
G36*
X106458D02*
X98682D01*
Y139450D01*
X106458D01*
Y143741D01*
D02*
G37*
G36*
X557095Y161619D02*
X554457D01*
X554050Y161538D01*
X553705Y161307D01*
X553474Y160962D01*
X553393Y160555D01*
Y156067D01*
X553474Y155660D01*
X553705Y155315D01*
X554050Y155084D01*
X554315Y155031D01*
Y154015D01*
X554077Y153856D01*
X553888Y153573D01*
X553822Y153240D01*
Y150698D01*
X553888Y150364D01*
X554077Y150081D01*
X554315Y149922D01*
Y148426D01*
X553540D01*
Y140620D01*
X553539Y140618D01*
X553474Y140290D01*
Y134706D01*
X551741Y132974D01*
X551538Y133014D01*
X551251Y133191D01*
Y139647D01*
X551406D01*
Y148426D01*
X550058D01*
Y149951D01*
X550254Y150081D01*
X550443Y150364D01*
X550509Y150698D01*
Y153240D01*
X550443Y153573D01*
X550254Y153856D01*
X550058Y153987D01*
Y155013D01*
X550415Y155084D01*
X550760Y155315D01*
X550991Y155660D01*
X551072Y156067D01*
Y160555D01*
X550991Y160962D01*
X550760Y161307D01*
X550415Y161538D01*
X550008Y161619D01*
X547370D01*
X546963Y161538D01*
X546618Y161307D01*
X546387Y160962D01*
X546229Y160575D01*
X542095D01*
Y156047D01*
X546229D01*
X546387Y155660D01*
X546618Y155315D01*
X546963Y155084D01*
X547370Y155003D01*
X548344D01*
Y154111D01*
X547764D01*
X547431Y154045D01*
X547148Y153856D01*
X546959Y153573D01*
X546893Y153240D01*
Y150698D01*
X546959Y150364D01*
X547148Y150081D01*
X547431Y149892D01*
X547764Y149826D01*
X548344D01*
Y148426D01*
X535658D01*
Y139647D01*
X549537D01*
Y133426D01*
X541814Y125704D01*
X434966D01*
X434638Y125638D01*
X434360Y125452D01*
X417898Y108991D01*
X417712Y108713D01*
X417647Y108385D01*
Y78647D01*
X397799Y58800D01*
X397614Y58522D01*
X397549Y58194D01*
Y48291D01*
X397038Y48154D01*
X396230Y47688D01*
X395570Y47028D01*
X395104Y46220D01*
X394862Y45319D01*
Y44386D01*
X395104Y43485D01*
X395570Y42677D01*
X396230Y42017D01*
X397038Y41550D01*
X397939Y41309D01*
X398872D01*
X399773Y41550D01*
X400581Y42017D01*
X401241Y42677D01*
X401707Y43485D01*
X401949Y44386D01*
Y45319D01*
X401707Y46220D01*
X401241Y47028D01*
X400581Y47688D01*
X399773Y48154D01*
X399263Y48291D01*
Y56419D01*
X399763Y56468D01*
X399772Y56423D01*
X399957Y56145D01*
X400057Y56045D01*
X399862Y55319D01*
Y54386D01*
X400104Y53485D01*
X400570Y52677D01*
X401230Y52017D01*
X402038Y51551D01*
X402939Y51309D01*
X403872D01*
X404773Y51551D01*
X405581Y52017D01*
X406241Y52677D01*
X406707Y53485D01*
X406949Y54386D01*
Y55319D01*
X406707Y56220D01*
X406241Y57028D01*
X405581Y57688D01*
X404773Y58154D01*
X403872Y58396D01*
X402939D01*
X402541Y58289D01*
X402283Y58737D01*
X420610Y77065D01*
X420796Y77343D01*
X420861Y77671D01*
Y107408D01*
X435942Y122489D01*
X543326D01*
X543654Y122555D01*
X543932Y122740D01*
X554937Y133745D01*
X555123Y134023D01*
X555188Y134351D01*
Y139433D01*
X557668D01*
X557996Y139499D01*
X558217Y139647D01*
X569288D01*
Y148426D01*
X556666D01*
X556445Y148574D01*
X556116Y148640D01*
X556029D01*
Y149826D01*
X556566D01*
X556900Y149892D01*
X557183Y150081D01*
X557372Y150364D01*
X557438Y150698D01*
Y153240D01*
X557372Y153573D01*
X557183Y153856D01*
X556900Y154045D01*
X556566Y154111D01*
X556029D01*
Y155003D01*
X557095D01*
X557502Y155084D01*
X557847Y155315D01*
X558077Y155660D01*
X558237Y156047D01*
X562370D01*
Y160575D01*
X558237D01*
X558077Y160962D01*
X557847Y161307D01*
X557502Y161538D01*
X557095Y161619D01*
D02*
G37*
G36*
X35472Y121870D02*
X27421D01*
Y119075D01*
X35472D01*
Y121870D01*
D02*
G37*
G36*
X26831D02*
X18779D01*
Y119075D01*
X26831D01*
Y121870D01*
D02*
G37*
G36*
X35472Y118484D02*
X27421D01*
Y115689D01*
X35472D01*
Y118484D01*
D02*
G37*
G36*
X26831D02*
X18779D01*
Y115689D01*
X26831D01*
Y118484D01*
D02*
G37*
G36*
X399614Y162012D02*
X396976D01*
X396569Y161931D01*
X396224Y161701D01*
X395994Y161356D01*
X395913Y160949D01*
Y156460D01*
X395994Y156053D01*
X396224Y155708D01*
X396569Y155478D01*
X396834Y155425D01*
Y154408D01*
X396597Y154250D01*
X396408Y153967D01*
X396341Y153633D01*
Y151091D01*
X396408Y150758D01*
X396597Y150475D01*
X396834Y150316D01*
Y148820D01*
X396060D01*
Y141014D01*
X396059Y141012D01*
X395993Y140684D01*
Y138570D01*
Y111809D01*
X394639Y110455D01*
X394139Y110662D01*
Y140684D01*
X394074Y141012D01*
X393925Y141234D01*
Y148820D01*
X392578D01*
Y150344D01*
X392773Y150475D01*
X392962Y150758D01*
X393029Y151091D01*
Y153633D01*
X392962Y153967D01*
X392773Y154250D01*
X392578Y154380D01*
Y155407D01*
X392935Y155478D01*
X393280Y155708D01*
X393510Y156053D01*
X393591Y156460D01*
Y160949D01*
X393510Y161356D01*
X393280Y161701D01*
X392935Y161931D01*
X392528Y162012D01*
X389890D01*
X389483Y161931D01*
X389138Y161701D01*
X388907Y161356D01*
X388748Y160969D01*
X384614D01*
Y156441D01*
X388748D01*
X388907Y156053D01*
X389138Y155708D01*
X389483Y155478D01*
X389890Y155397D01*
X390864D01*
Y154505D01*
X390284D01*
X389950Y154439D01*
X389668Y154250D01*
X389479Y153967D01*
X389412Y153633D01*
Y151091D01*
X389479Y150758D01*
X389668Y150475D01*
X389950Y150286D01*
X390284Y150220D01*
X390864D01*
Y148820D01*
X378177D01*
Y140040D01*
X392378D01*
X392425Y139803D01*
Y110362D01*
X386957Y104895D01*
X386772Y104617D01*
X386706Y104289D01*
Y59365D01*
X385231Y57890D01*
X384773Y58154D01*
X383872Y58396D01*
X382939D01*
X382038Y58154D01*
X381534Y57863D01*
X381227Y58264D01*
X381411Y58447D01*
X381597Y58726D01*
X381662Y59053D01*
Y82581D01*
X381597Y82909D01*
X381411Y83187D01*
X335335Y129263D01*
X335057Y129449D01*
X334729Y129514D01*
X249651D01*
X240227Y138938D01*
Y139702D01*
X242510D01*
X242838Y139767D01*
X243060Y139915D01*
X254130D01*
Y148695D01*
X241508D01*
X241287Y148843D01*
X240959Y148908D01*
X240871D01*
Y150095D01*
X241408D01*
X241742Y150161D01*
X242025Y150350D01*
X242214Y150633D01*
X242280Y150966D01*
Y153508D01*
X242214Y153842D01*
X242025Y154125D01*
X241742Y154314D01*
X241408Y154380D01*
X240871D01*
Y155272D01*
X241937D01*
X242344Y155353D01*
X242689Y155583D01*
X242919Y155928D01*
X243079Y156316D01*
X247213D01*
Y160844D01*
X243079D01*
X242919Y161231D01*
X242689Y161576D01*
X242344Y161806D01*
X241937Y161887D01*
X239299D01*
X238892Y161806D01*
X238547Y161576D01*
X238316Y161231D01*
X238235Y160824D01*
Y156335D01*
X238316Y155928D01*
X238547Y155583D01*
X238892Y155353D01*
X239157Y155300D01*
Y154283D01*
X238919Y154125D01*
X238730Y153842D01*
X238664Y153508D01*
Y150966D01*
X238730Y150633D01*
X238919Y150350D01*
X239157Y150191D01*
Y148695D01*
X238382D01*
Y139915D01*
X238513D01*
Y138902D01*
X238013Y138695D01*
X236408Y140300D01*
Y140559D01*
X236343Y140887D01*
X236248Y141029D01*
Y148695D01*
X234900D01*
Y150219D01*
X235096Y150350D01*
X235285Y150633D01*
X235351Y150966D01*
Y153508D01*
X235285Y153842D01*
X235096Y154125D01*
X234900Y154255D01*
Y155282D01*
X235257Y155353D01*
X235602Y155583D01*
X235833Y155928D01*
X235914Y156335D01*
Y160824D01*
X235833Y161231D01*
X235602Y161576D01*
X235257Y161806D01*
X234850Y161887D01*
X232212D01*
X231805Y161806D01*
X231460Y161576D01*
X231229Y161231D01*
X231071Y160844D01*
X226937D01*
Y156316D01*
X231071D01*
X231229Y155928D01*
X231460Y155583D01*
X231805Y155353D01*
X232212Y155272D01*
X233186D01*
Y154380D01*
X232606D01*
X232273Y154314D01*
X231990Y154125D01*
X231801Y153842D01*
X231735Y153508D01*
Y150966D01*
X231801Y150633D01*
X231990Y150350D01*
X232273Y150161D01*
X232606Y150095D01*
X233186D01*
Y148695D01*
X220500D01*
Y139915D01*
X234700D01*
X234759Y139617D01*
X234945Y139339D01*
X247733Y126551D01*
X248011Y126365D01*
X248339Y126300D01*
X333752D01*
X378448Y81604D01*
Y60030D01*
X377028Y58609D01*
X376842Y58331D01*
X376777Y58003D01*
Y57100D01*
X376277Y56966D01*
X376241Y57028D01*
X375581Y57688D01*
X374773Y58154D01*
X373872Y58396D01*
X372939D01*
X372038Y58154D01*
X371230Y57688D01*
X370648Y57106D01*
X370327Y57177D01*
X370148Y57287D01*
Y83465D01*
X370083Y83793D01*
X369897Y84071D01*
X329817Y124151D01*
X329539Y124337D01*
X329211Y124402D01*
X247239D01*
X240676Y130964D01*
X240399Y131150D01*
X240071Y131215D01*
X167985D01*
X162330Y136870D01*
X162052Y137056D01*
X161724Y137121D01*
X83370D01*
X81959Y138531D01*
Y139433D01*
X84440D01*
X84768Y139499D01*
X84989Y139647D01*
X96060D01*
Y148426D01*
X83438D01*
X83216Y148574D01*
X82888Y148640D01*
X82800D01*
Y149826D01*
X83338D01*
X83672Y149892D01*
X83954Y150081D01*
X84143Y150364D01*
X84210Y150698D01*
Y153240D01*
X84143Y153573D01*
X83954Y153856D01*
X83672Y154045D01*
X83338Y154111D01*
X82800D01*
Y155003D01*
X83866D01*
X84273Y155084D01*
X84618Y155315D01*
X84849Y155660D01*
X85008Y156047D01*
X89142D01*
Y160575D01*
X85008D01*
X84849Y160962D01*
X84618Y161307D01*
X84273Y161538D01*
X83866Y161619D01*
X81228D01*
X80821Y161538D01*
X80476Y161307D01*
X80246Y160962D01*
X80165Y160555D01*
Y156067D01*
X80246Y155660D01*
X80476Y155315D01*
X80821Y155084D01*
X81086Y155031D01*
Y154015D01*
X80849Y153856D01*
X80660Y153573D01*
X80594Y153240D01*
Y150698D01*
X80660Y150364D01*
X80849Y150081D01*
X81086Y149922D01*
Y148426D01*
X80312D01*
Y140620D01*
X80311Y140618D01*
X80245Y140290D01*
Y138831D01*
X79745Y138624D01*
X78338Y140032D01*
Y140290D01*
X78272Y140618D01*
X78177Y140761D01*
Y148426D01*
X76830D01*
Y149951D01*
X77025Y150081D01*
X77214Y150364D01*
X77280Y150698D01*
Y153240D01*
X77214Y153573D01*
X77025Y153856D01*
X76830Y153987D01*
Y155013D01*
X77187Y155084D01*
X77532Y155315D01*
X77762Y155660D01*
X77843Y156067D01*
Y160555D01*
X77762Y160962D01*
X77532Y161307D01*
X77187Y161538D01*
X76780Y161619D01*
X74142D01*
X73735Y161538D01*
X73390Y161307D01*
X73159Y160962D01*
X73000Y160575D01*
X68866D01*
Y156047D01*
X73000D01*
X73159Y155660D01*
X73390Y155315D01*
X73735Y155084D01*
X74142Y155003D01*
X75116D01*
Y154111D01*
X74536D01*
X74202Y154045D01*
X73920Y153856D01*
X73731Y153573D01*
X73664Y153240D01*
Y150698D01*
X73731Y150364D01*
X73920Y150081D01*
X74202Y149892D01*
X74536Y149826D01*
X75116D01*
Y148426D01*
X62429D01*
Y139647D01*
X76630D01*
X76689Y139349D01*
X76875Y139071D01*
X81788Y134158D01*
X82065Y133972D01*
X82393Y133907D01*
X160748D01*
X166402Y128252D01*
X166680Y128067D01*
X167008Y128001D01*
X239094D01*
X245657Y121439D01*
X245935Y121253D01*
X246263Y121188D01*
X328235D01*
X366934Y82488D01*
Y55538D01*
X367000Y55210D01*
X367185Y54932D01*
X368206Y53911D01*
Y48396D01*
X367939D01*
X367038Y48154D01*
X366230Y47688D01*
X365570Y47028D01*
X365104Y46220D01*
X364862Y45319D01*
Y44386D01*
X365104Y43485D01*
X365570Y42677D01*
X366230Y42017D01*
X367038Y41550D01*
X367939Y41309D01*
X368872D01*
X369773Y41550D01*
X370581Y42017D01*
X371241Y42677D01*
X371707Y43485D01*
X371949Y44386D01*
Y45319D01*
X371707Y46220D01*
X371241Y47028D01*
X370581Y47688D01*
X369920Y48069D01*
Y52802D01*
X370420Y52936D01*
X370570Y52677D01*
X371230Y52017D01*
X372038Y51551D01*
X372939Y51309D01*
X373872D01*
X374773Y51551D01*
X375581Y52017D01*
X376241Y52677D01*
X376329Y52829D01*
X376640Y52817D01*
X376871Y52767D01*
X377028Y52532D01*
X382255Y47305D01*
Y46107D01*
X381755Y46042D01*
X381707Y46220D01*
X381241Y47028D01*
X380581Y47688D01*
X379773Y48154D01*
X378872Y48396D01*
X377939D01*
X377038Y48154D01*
X376230Y47688D01*
X375570Y47028D01*
X375104Y46220D01*
X374862Y45319D01*
Y44386D01*
X375104Y43485D01*
X375570Y42677D01*
X376230Y42017D01*
X377038Y41550D01*
X377939Y41309D01*
X378872D01*
X379773Y41550D01*
X380581Y42017D01*
X381241Y42677D01*
X381707Y43485D01*
X381844Y43995D01*
X382819D01*
X383147Y44061D01*
X383255Y44133D01*
X383716Y43926D01*
X383755Y43883D01*
Y43281D01*
X383820Y42953D01*
X384006Y42675D01*
X386228Y40453D01*
X386506Y40267D01*
X386834Y40202D01*
X389977D01*
X390305Y40267D01*
X390583Y40453D01*
X394011Y43882D01*
X394197Y44160D01*
X394263Y44488D01*
Y51414D01*
X394773Y51551D01*
X395581Y52017D01*
X396241Y52677D01*
X396707Y53485D01*
X396949Y54386D01*
Y55319D01*
X396707Y56220D01*
X396241Y57028D01*
X395581Y57688D01*
X394773Y58154D01*
X393872Y58396D01*
X392939D01*
X392038Y58154D01*
X391230Y57688D01*
X390570Y57028D01*
X390420Y56769D01*
X389920Y56902D01*
Y103312D01*
X397456Y110848D01*
X397642Y111126D01*
X397707Y111454D01*
Y139827D01*
X400188D01*
X400516Y139892D01*
X400737Y140040D01*
X411808D01*
Y148820D01*
X399186D01*
X398964Y148968D01*
X398636Y149033D01*
X398548D01*
Y150220D01*
X399086D01*
X399420Y150286D01*
X399702Y150475D01*
X399891Y150758D01*
X399958Y151091D01*
Y153633D01*
X399891Y153967D01*
X399702Y154250D01*
X399420Y154439D01*
X399086Y154505D01*
X398548D01*
Y155397D01*
X399614D01*
X400021Y155478D01*
X400366Y155708D01*
X400597Y156053D01*
X400756Y156441D01*
X404890D01*
Y160969D01*
X400756D01*
X400597Y161356D01*
X400366Y161701D01*
X400021Y161931D01*
X399614Y162012D01*
D02*
G37*
G36*
X35472Y111870D02*
X27421D01*
Y109075D01*
X35472D01*
Y111870D01*
D02*
G37*
G36*
X26831D02*
X18779D01*
Y109075D01*
X26831D01*
Y111870D01*
D02*
G37*
G36*
X35472Y108484D02*
X27421D01*
Y105689D01*
X35472D01*
Y108484D01*
D02*
G37*
G36*
X26831D02*
X18779D01*
Y105689D01*
X26831D01*
Y108484D01*
D02*
G37*
G36*
X77483Y110936D02*
X76248D01*
Y105260D01*
X78853D01*
Y109565D01*
X78749Y110090D01*
X78452Y110534D01*
X78008Y110831D01*
X77483Y110936D01*
D02*
G37*
G36*
X75658D02*
X74423D01*
X73899Y110831D01*
X73454Y110534D01*
X73157Y110090D01*
X73053Y109565D01*
Y105260D01*
X75658D01*
Y110936D01*
D02*
G37*
G36*
X78853Y104669D02*
X73053D01*
Y100364D01*
X73157Y99839D01*
X73317Y99600D01*
X73157Y99361D01*
X73053Y98837D01*
Y94532D01*
X78853D01*
Y98837D01*
X78749Y99361D01*
X78589Y99600D01*
X78749Y99839D01*
X78853Y100364D01*
Y104669D01*
D02*
G37*
G36*
X260460Y90248D02*
X260459Y90248D01*
X260458Y90248D01*
X247134Y90178D01*
X246982Y90147D01*
X246831Y90117D01*
X246829Y90116D01*
X246827Y90115D01*
X246699Y90029D01*
X246570Y89943D01*
X246569Y89941D01*
X246567Y89940D01*
X246482Y89811D01*
X246396Y89683D01*
X246396Y89680D01*
X246395Y89679D01*
X246365Y89526D01*
X246335Y89375D01*
Y82671D01*
X245835Y82240D01*
X243217D01*
Y78598D01*
X242921D01*
D01*
X243217D01*
Y74956D01*
X246116Y74956D01*
X246320Y74575D01*
X246339Y74527D01*
X246370Y74374D01*
X246149Y73986D01*
X246039Y73874D01*
X244890D01*
Y71807D01*
X246858D01*
X248827D01*
Y73744D01*
X249396D01*
X249658Y73482D01*
Y62155D01*
X249605Y62109D01*
X249158Y61933D01*
X249033Y62017D01*
X248725Y62078D01*
X247252D01*
Y60291D01*
X246957D01*
Y59996D01*
X244382D01*
Y59311D01*
X244444Y59002D01*
X244619Y58740D01*
X244670Y58706D01*
Y58136D01*
X244619Y58102D01*
X244444Y57840D01*
X244382Y57531D01*
Y56846D01*
X246957D01*
Y56256D01*
X244382D01*
Y55570D01*
X244444Y55262D01*
X244605Y55020D01*
X244582Y54903D01*
X244437Y54520D01*
X239831D01*
X239524Y54459D01*
X239263Y54285D01*
X239089Y54024D01*
X239028Y53717D01*
Y44925D01*
X239089Y44618D01*
X239263Y44358D01*
X239524Y44183D01*
X239831Y44122D01*
X250760D01*
X251189Y43952D01*
X251189Y43622D01*
Y42279D01*
X253551D01*
Y41984D01*
X253847D01*
Y40015D01*
X255807D01*
X255913Y40015D01*
X256307D01*
X256414Y40015D01*
X258374D01*
Y41984D01*
X258669D01*
Y42279D01*
X261032D01*
Y43679D01*
X261032Y43952D01*
X261263Y44356D01*
X261265Y44358D01*
X261439Y44618D01*
X261500Y44925D01*
Y53717D01*
X261439Y54024D01*
X261265Y54285D01*
X261004Y54459D01*
X260697Y54520D01*
X260336D01*
X260124Y55020D01*
X260247Y55146D01*
X263197D01*
Y54385D01*
X266740D01*
Y58716D01*
X263197D01*
Y57956D01*
X261694D01*
X261647Y58063D01*
X261535Y58456D01*
X261572Y58517D01*
X261650Y58634D01*
X261653Y58651D01*
X261663Y58666D01*
X261684Y58804D01*
X261711Y58941D01*
X261711Y89001D01*
X261711Y89002D01*
X261711Y89003D01*
X261680Y89157D01*
X261650Y89308D01*
X261649Y89309D01*
X261649Y89310D01*
X261562Y89440D01*
X261476Y89569D01*
X261475Y89569D01*
X261475Y89570D01*
X261028Y90014D01*
X261027Y90015D01*
X261027Y90016D01*
X260896Y90102D01*
X260767Y90188D01*
X260766Y90188D01*
X260765Y90189D01*
X260613Y90218D01*
X260460Y90248D01*
D02*
G37*
G36*
X35472Y92736D02*
X27421D01*
Y89941D01*
X35472D01*
Y92736D01*
D02*
G37*
G36*
X26831D02*
X18779D01*
Y89941D01*
X26831D01*
Y92736D01*
D02*
G37*
G36*
X78853Y93941D02*
X76248D01*
Y88265D01*
X77483D01*
X78008Y88369D01*
X78452Y88666D01*
X78749Y89111D01*
X78853Y89635D01*
Y93941D01*
D02*
G37*
G36*
X75658D02*
X73053D01*
Y89635D01*
X73157Y89111D01*
X73454Y88666D01*
X73899Y88369D01*
X74423Y88265D01*
X75658D01*
Y93941D01*
D02*
G37*
G36*
X35472Y89350D02*
X27421D01*
Y86555D01*
X35472D01*
Y89350D01*
D02*
G37*
G36*
X26831D02*
X18779D01*
Y86555D01*
X26831D01*
Y89350D01*
D02*
G37*
G36*
X35472Y82736D02*
X27421D01*
Y79941D01*
X35472D01*
Y82736D01*
D02*
G37*
G36*
X26831D02*
X18779D01*
Y79941D01*
X26831D01*
Y82736D01*
D02*
G37*
G36*
X242626Y82240D02*
X239673D01*
Y78893D01*
X242626D01*
Y82240D01*
D02*
G37*
G36*
X198138Y81059D02*
X196169D01*
Y78893D01*
X198138D01*
Y81059D01*
D02*
G37*
G36*
X195579D02*
X193610D01*
Y78893D01*
X195579D01*
Y81059D01*
D02*
G37*
G36*
X179437Y80271D02*
X177469D01*
Y78106D01*
X179437D01*
Y80271D01*
D02*
G37*
G36*
X176878D02*
X174910D01*
Y78106D01*
X176878D01*
Y80271D01*
D02*
G37*
G36*
X163689Y80271D02*
X161721D01*
Y78106D01*
X163689D01*
Y80271D01*
D02*
G37*
G36*
X161130D02*
X159162D01*
Y78106D01*
X161130D01*
Y80271D01*
D02*
G37*
G36*
X78650Y78696D02*
X76484D01*
Y76728D01*
X78650D01*
Y78696D01*
D02*
G37*
G36*
X75894D02*
X73729D01*
Y76728D01*
X75894D01*
Y78696D01*
D02*
G37*
G36*
X35472Y79350D02*
X27421D01*
Y76555D01*
X35472D01*
Y79350D01*
D02*
G37*
G36*
X26831D02*
X18779D01*
Y76555D01*
X26831D01*
Y79350D01*
D02*
G37*
G36*
X187012Y81081D02*
X186229D01*
X185505Y80781D01*
X184951Y80228D01*
X184652Y79504D01*
Y78721D01*
X184951Y77997D01*
X185505Y77444D01*
X186229Y77144D01*
X187012D01*
X187735Y77444D01*
X188189Y77898D01*
X188655Y77766D01*
X188689Y77744D01*
Y76334D01*
X192823D01*
Y80862D01*
X188689D01*
Y80481D01*
X188655Y80459D01*
X188189Y80327D01*
X187735Y80781D01*
X187012Y81081D01*
D02*
G37*
G36*
X198138Y78303D02*
X196169D01*
Y76137D01*
X198138D01*
Y78303D01*
D02*
G37*
G36*
X195579D02*
X193610D01*
Y76137D01*
X195579D01*
Y78303D01*
D02*
G37*
G36*
X92232Y80074D02*
X88099D01*
Y75547D01*
X92232D01*
Y76016D01*
X92732Y76262D01*
X93298Y76028D01*
X94081D01*
X94804Y76327D01*
X95358Y76881D01*
X95658Y77605D01*
Y78388D01*
X95358Y79111D01*
X94804Y79665D01*
X94081Y79965D01*
X93298D01*
X92732Y79730D01*
X92232Y79976D01*
Y80074D01*
D02*
G37*
G36*
X179437Y77515D02*
X177469D01*
Y75350D01*
X179437D01*
Y77515D01*
D02*
G37*
G36*
X176878D02*
X174910D01*
Y75350D01*
X176878D01*
Y77515D01*
D02*
G37*
G36*
X163689Y77515D02*
X161721D01*
Y75350D01*
X163689D01*
Y77515D01*
D02*
G37*
G36*
X161130D02*
X159162D01*
Y75350D01*
X161130D01*
Y77515D01*
D02*
G37*
G36*
X242626Y78303D02*
X239673D01*
Y74956D01*
X242626D01*
Y78303D01*
D02*
G37*
G36*
X78650Y76137D02*
X76484D01*
Y74169D01*
X78650D01*
Y76137D01*
D02*
G37*
G36*
X75894D02*
X73729D01*
Y74169D01*
X75894D01*
Y76137D01*
D02*
G37*
G36*
X198138Y75153D02*
X196169D01*
Y72988D01*
X198138D01*
Y75153D01*
D02*
G37*
G36*
X195579D02*
X193610D01*
Y72988D01*
X195579D01*
Y75153D01*
D02*
G37*
G36*
X92725Y74267D02*
X91051D01*
Y72200D01*
X92725D01*
Y74267D01*
D02*
G37*
G36*
X90461D02*
X88788D01*
Y72200D01*
X90461D01*
Y74267D01*
D02*
G37*
G36*
X152075Y73185D02*
X150106D01*
Y71019D01*
X152075D01*
Y73185D01*
D02*
G37*
G36*
X149516D02*
X147547D01*
Y71019D01*
X149516D01*
Y73185D01*
D02*
G37*
G36*
X198138Y72397D02*
X196169D01*
Y70232D01*
X198138D01*
Y72397D01*
D02*
G37*
G36*
X195579D02*
X193610D01*
Y70232D01*
X195579D01*
Y72397D01*
D02*
G37*
G36*
X152075Y70429D02*
X150106D01*
Y68263D01*
X152075D01*
Y70429D01*
D02*
G37*
G36*
X149516D02*
X147547D01*
Y68263D01*
X149516D01*
Y70429D01*
D02*
G37*
G36*
X192823Y74956D02*
X188689D01*
Y72001D01*
X183996Y67308D01*
X178255D01*
Y68657D01*
X176311D01*
X175893Y68854D01*
Y68854D01*
X175893Y68854D01*
X174908D01*
Y68853D01*
X175275D01*
X175351Y68778D01*
Y63354D01*
X178500D01*
Y55086D01*
X183347D01*
X183347Y55086D01*
Y53585D01*
X178500D01*
X178332Y53416D01*
Y50532D01*
X175403D01*
X175351Y50479D01*
Y45035D01*
X175483D01*
X175493Y45024D01*
X175526Y44938D01*
X175544Y44848D01*
X175580Y44793D01*
X175604Y44731D01*
X175667Y44664D01*
X175718Y44588D01*
X175773Y44551D01*
X175818Y44502D01*
X179441Y41910D01*
X179524Y41872D01*
X179601Y41821D01*
X179666Y41808D01*
X179726Y41781D01*
X179818Y41778D01*
X179908Y41760D01*
X186054D01*
X186524Y41688D01*
X186524Y41260D01*
Y38736D01*
X190165D01*
X193807D01*
X193807Y41688D01*
X194278Y41760D01*
X194321D01*
X194791Y41688D01*
X194791Y41260D01*
Y38736D01*
X198433D01*
X202075D01*
X202075Y41688D01*
X202545Y41760D01*
X202589D01*
X203059Y41688D01*
X203059Y41260D01*
Y38736D01*
X206701D01*
X210343D01*
X210343Y41688D01*
X210813Y41760D01*
X210857D01*
X211327Y41688D01*
X211327Y41260D01*
Y38736D01*
X214969D01*
X218610D01*
X218610Y41688D01*
X219081Y41760D01*
X219124D01*
X219595Y41688D01*
X219595Y41260D01*
Y38736D01*
X223236D01*
X226878D01*
X226878Y41688D01*
X227348Y41760D01*
X232420D01*
Y36785D01*
X232194Y36692D01*
X231529Y36027D01*
X231170Y35159D01*
Y34219D01*
X231529Y33351D01*
X232194Y32686D01*
X232420Y32593D01*
Y30260D01*
X228512D01*
Y26126D01*
X233040D01*
Y26126D01*
X233051Y26126D01*
X233540Y26126D01*
X237766D01*
Y30260D01*
X234644D01*
Y32593D01*
X234870Y32686D01*
X235535Y33351D01*
X235894Y34219D01*
Y35159D01*
X235535Y36027D01*
X234870Y36692D01*
X234644Y36785D01*
Y41760D01*
X237469D01*
X237776Y41821D01*
X238037Y41995D01*
X238211Y42256D01*
X238272Y42563D01*
Y53062D01*
X238211Y53370D01*
X238037Y53630D01*
X237776Y53804D01*
X237469Y53865D01*
X191305D01*
Y55275D01*
X191206Y55774D01*
X190923Y56197D01*
X189254Y57867D01*
X189203Y57901D01*
X189198Y58011D01*
X189326Y58420D01*
X189606Y58476D01*
X189967Y58717D01*
X190262Y59011D01*
X192823D01*
Y63539D01*
X188689D01*
Y60615D01*
X185603D01*
X185466Y61115D01*
X185707Y61276D01*
X188829Y64398D01*
X189583D01*
X189583Y64398D01*
X190008Y64483D01*
X190069Y64523D01*
X192823D01*
Y69051D01*
X189537D01*
X189346Y69513D01*
X190262Y70429D01*
X192823D01*
Y74956D01*
D02*
G37*
G36*
X198138Y69248D02*
X196169D01*
Y67082D01*
X198138D01*
Y69248D01*
D02*
G37*
G36*
X195579D02*
X193610D01*
Y67082D01*
X195579D01*
Y69248D01*
D02*
G37*
G36*
X248827Y71216D02*
X246858D01*
X244890D01*
Y69256D01*
X244890Y69149D01*
Y68756D01*
X244890Y68649D01*
Y66689D01*
X246858D01*
X248827D01*
Y68649D01*
X248827Y68756D01*
Y69149D01*
X248827Y69256D01*
Y71216D01*
D02*
G37*
G36*
X198138Y66492D02*
X196169D01*
Y64326D01*
X198138D01*
Y66492D01*
D02*
G37*
G36*
X195579D02*
X193610D01*
Y64326D01*
X195579D01*
Y66492D01*
D02*
G37*
G36*
X152075Y66492D02*
X150106D01*
Y64326D01*
X152075D01*
Y66492D01*
D02*
G37*
G36*
X149516D02*
X147547D01*
Y64326D01*
X149516D01*
Y66492D01*
D02*
G37*
G36*
X248827Y66098D02*
X247154D01*
Y64031D01*
X248827D01*
Y66098D01*
D02*
G37*
G36*
X246563D02*
X244890D01*
Y64031D01*
X246563D01*
Y66098D01*
D02*
G37*
G36*
X130028Y66885D02*
Y63933D01*
X133374D01*
Y66885D01*
X130028D01*
D02*
G37*
G36*
X121957D02*
X118610D01*
Y63933D01*
X121957D01*
Y66885D01*
D02*
G37*
G36*
X114673D02*
Y63933D01*
X118020D01*
Y66885D01*
X114673D01*
D02*
G37*
G36*
X106603D02*
X103256D01*
Y63933D01*
X106603D01*
Y66885D01*
D02*
G37*
G36*
X86681Y81161D02*
X82744D01*
X82437Y81100D01*
X82177Y80926D01*
X82003Y80666D01*
X81942Y80358D01*
Y63666D01*
X81554Y63483D01*
X81469Y63460D01*
X81404D01*
X78464Y66400D01*
Y66421D01*
X78388Y66805D01*
X78369Y66834D01*
Y67564D01*
X78313Y67845D01*
X78154Y68083D01*
X77916Y68241D01*
X77636Y68297D01*
X77193D01*
Y69248D01*
X78453D01*
Y73382D01*
X73925D01*
Y69248D01*
X75186D01*
Y68297D01*
X74742D01*
X74462Y68241D01*
X74224Y68083D01*
X74065Y67845D01*
X74010Y67564D01*
Y66246D01*
X74065Y65965D01*
X74224Y65728D01*
X74462Y65569D01*
X74742Y65513D01*
X76592D01*
X76751Y65274D01*
X80279Y61747D01*
X80604Y61529D01*
X80988Y61453D01*
X81590D01*
X81912Y60953D01*
X81879Y60784D01*
Y60783D01*
X82488D01*
Y60882D01*
Y60960D01*
X82548Y61105D01*
X82659Y61215D01*
X82804Y61275D01*
X82882D01*
X82882Y61275D01*
X86366Y61275D01*
X86397Y61278D01*
X86454Y61302D01*
X86467Y61315D01*
X86348Y61493D01*
X86380Y61853D01*
X86441Y62160D01*
Y62626D01*
X86681D01*
X86989Y62687D01*
X87249Y62862D01*
X87347Y63008D01*
X87847Y62885D01*
Y62393D01*
X87908Y62086D01*
X88082Y61825D01*
X88343Y61651D01*
X88650Y61590D01*
X98459Y61590D01*
X99831D01*
X99934Y61611D01*
X100039Y61617D01*
X100086Y61641D01*
X100138Y61651D01*
X100163Y61668D01*
X100404Y61716D01*
X100670Y61893D01*
X100847Y62159D01*
X100848Y62161D01*
X100886Y62191D01*
X100905Y62211D01*
X100929Y62225D01*
X101007Y62328D01*
X101093Y62426D01*
X101102Y62452D01*
X101119Y62474D01*
X101182Y62603D01*
X101188Y62628D01*
X101203Y62649D01*
X101228Y62778D01*
X101262Y62905D01*
X101259Y62931D01*
X101264Y62956D01*
Y68547D01*
X101203Y68854D01*
X101029Y69115D01*
X100768Y69289D01*
X100461Y69350D01*
X93145D01*
X92725Y69543D01*
X92725Y69850D01*
Y71610D01*
X90756D01*
X88788D01*
Y69708D01*
X88788Y69543D01*
X88745Y69060D01*
X88737Y69055D01*
X88406Y68710D01*
X88099Y68771D01*
X87507D01*
X87484Y68790D01*
Y80358D01*
X87423Y80666D01*
X87249Y80926D01*
X86989Y81100D01*
X86681Y81161D01*
D02*
G37*
G36*
X29255Y69007D02*
X28020D01*
Y63331D01*
X30625D01*
Y67636D01*
X30521Y68161D01*
X30224Y68605D01*
X29779Y68902D01*
X29255Y69007D01*
D02*
G37*
G36*
X27430D02*
X26195D01*
X25670Y68902D01*
X25226Y68605D01*
X24929Y68161D01*
X24824Y67636D01*
Y63331D01*
X27430D01*
Y69007D01*
D02*
G37*
G36*
X57798Y69007D02*
X56563D01*
Y63331D01*
X59168D01*
Y67636D01*
X59064Y68161D01*
X58767Y68605D01*
X58322Y68902D01*
X57798Y69007D01*
D02*
G37*
G36*
X55973D02*
X54738D01*
X54214Y68902D01*
X53769Y68605D01*
X53472Y68161D01*
X53368Y67636D01*
Y63331D01*
X55973D01*
Y69007D01*
D02*
G37*
G36*
X152075Y63736D02*
X150106D01*
Y61570D01*
X152075D01*
Y63736D01*
D02*
G37*
G36*
X149516D02*
X147547D01*
Y61570D01*
X149516D01*
Y63736D01*
D02*
G37*
G36*
X198138D02*
X196169D01*
Y61570D01*
X198138D01*
Y63736D01*
D02*
G37*
G36*
X195579D02*
X193610D01*
Y61570D01*
X195579D01*
Y63736D01*
D02*
G37*
G36*
X246662Y62078D02*
X245189D01*
X244880Y62017D01*
X244619Y61842D01*
X244444Y61580D01*
X244382Y61271D01*
Y60586D01*
X246662D01*
Y62078D01*
D02*
G37*
G36*
X133374Y63342D02*
X130028D01*
Y60389D01*
X133374D01*
Y63342D01*
D02*
G37*
G36*
X118020D02*
X114673D01*
Y60389D01*
X118020D01*
Y63342D01*
D02*
G37*
G36*
X121957D02*
X118610D01*
Y60389D01*
X121957D01*
Y63342D01*
D02*
G37*
G36*
X106603D02*
X103256D01*
Y60389D01*
X106603D01*
Y63342D01*
D02*
G37*
G36*
X126091Y66885D02*
X125591Y66885D01*
X122547D01*
Y63637D01*
Y60389D01*
X125591D01*
X125894Y60389D01*
X126394Y60389D01*
X129437D01*
Y63637D01*
Y66885D01*
X126394D01*
X126091Y66885D01*
D02*
G37*
G36*
X110736D02*
X110236Y66885D01*
X107193D01*
Y63637D01*
Y60389D01*
X110236D01*
X110539Y60389D01*
X111039Y60389D01*
X114083D01*
Y63637D01*
Y66885D01*
X111039D01*
X110736Y66885D01*
D02*
G37*
G36*
X198138Y60980D02*
X196169D01*
Y58815D01*
X198138D01*
Y60980D01*
D02*
G37*
G36*
X195579D02*
X193610D01*
Y58815D01*
X195579D01*
Y60980D01*
D02*
G37*
G36*
X272449Y58913D02*
X270776D01*
Y56846D01*
X272449D01*
Y58913D01*
D02*
G37*
G36*
X270185D02*
X268512D01*
Y56846D01*
X270185D01*
Y58913D01*
D02*
G37*
G36*
X272449Y56255D02*
X270776D01*
Y54189D01*
X272449D01*
Y56255D01*
D02*
G37*
G36*
X270185D02*
X268512D01*
Y54189D01*
X270185D01*
Y56255D01*
D02*
G37*
G36*
X152764Y56157D02*
X151091D01*
Y54090D01*
X152764D01*
Y56157D01*
D02*
G37*
G36*
X150500D02*
X148827D01*
Y54090D01*
X150500D01*
Y56157D01*
D02*
G37*
G36*
X30625Y62740D02*
X27725D01*
X24824D01*
Y58435D01*
X24929Y57910D01*
X25056Y57721D01*
X24929Y57531D01*
X24824Y57006D01*
Y52701D01*
X27725D01*
X30625D01*
Y57006D01*
X30521Y57531D01*
X30394Y57721D01*
X30521Y57910D01*
X30625Y58435D01*
Y62740D01*
D02*
G37*
G36*
X59168Y62740D02*
X53368D01*
Y58435D01*
X53472Y57910D01*
X53599Y57721D01*
X53472Y57531D01*
X53368Y57006D01*
Y52701D01*
X59168D01*
Y57006D01*
X59064Y57531D01*
X58937Y57721D01*
X59064Y57910D01*
X59168Y58435D01*
Y62740D01*
D02*
G37*
G36*
X78650Y53893D02*
X76484D01*
Y51925D01*
X78650D01*
Y53893D01*
D02*
G37*
G36*
X75894D02*
X73729D01*
Y51925D01*
X75894D01*
Y53893D01*
D02*
G37*
G36*
Y51334D02*
X73729D01*
Y49366D01*
X75894D01*
Y51334D01*
D02*
G37*
G36*
X97843Y49169D02*
X96169D01*
Y47102D01*
X97843D01*
Y49169D01*
D02*
G37*
G36*
X30625Y52110D02*
X27725D01*
X24824D01*
Y47805D01*
X24929Y47280D01*
X25056Y47091D01*
X24929Y46901D01*
X24824Y46376D01*
Y42071D01*
X27725D01*
X30625D01*
Y46376D01*
X30521Y46901D01*
X30394Y47091D01*
X30521Y47280D01*
X30625Y47805D01*
Y52110D01*
D02*
G37*
G36*
X59168Y52110D02*
X53368D01*
Y47805D01*
X53472Y47280D01*
X53599Y47091D01*
X53472Y46901D01*
X53368Y46376D01*
Y42071D01*
X59168D01*
Y46376D01*
X59064Y46901D01*
X58937Y47091D01*
X59064Y47280D01*
X59168Y47805D01*
Y52110D01*
D02*
G37*
G36*
X102817Y47168D02*
X101583D01*
Y41492D01*
X104188D01*
Y45797D01*
X104084Y46322D01*
X103787Y46766D01*
X103342Y47063D01*
X102817Y47168D01*
D02*
G37*
G36*
X100992D02*
X99758D01*
X99233Y47063D01*
X98789Y46766D01*
X98492Y46322D01*
X98387Y45797D01*
Y41492D01*
X100992D01*
Y47168D01*
D02*
G37*
G36*
X261032Y41688D02*
X258965D01*
Y40015D01*
X261032D01*
Y41688D01*
D02*
G37*
G36*
X253256D02*
X251189D01*
Y40015D01*
X253256D01*
Y41688D01*
D02*
G37*
G36*
X77854Y37500D02*
X75886D01*
Y35335D01*
X77854D01*
Y37500D01*
D02*
G37*
G36*
X75295D02*
X73327D01*
Y35335D01*
X75295D01*
Y37500D01*
D02*
G37*
G36*
X226878Y38145D02*
X223532D01*
Y35192D01*
X226878D01*
Y38145D01*
D02*
G37*
G36*
X222941D02*
X219595D01*
Y35192D01*
X222941D01*
Y38145D01*
D02*
G37*
G36*
X218610D02*
X215264D01*
Y35192D01*
X218610D01*
Y38145D01*
D02*
G37*
G36*
X214673D02*
X211327D01*
Y35192D01*
X214673D01*
Y38145D01*
D02*
G37*
G36*
X210343D02*
X206996D01*
Y35192D01*
X210343D01*
Y38145D01*
D02*
G37*
G36*
X206406D02*
X203059D01*
Y35192D01*
X206406D01*
Y38145D01*
D02*
G37*
G36*
X202075D02*
X198729D01*
Y35192D01*
X202075D01*
Y38145D01*
D02*
G37*
G36*
X198138D02*
X194791D01*
Y35192D01*
X198138D01*
Y38145D01*
D02*
G37*
G36*
X193807D02*
X190461D01*
Y35192D01*
X193807D01*
Y38145D01*
D02*
G37*
G36*
X189870D02*
X186524D01*
Y35192D01*
X189870D01*
Y38145D01*
D02*
G37*
G36*
X157339Y35783D02*
X153992D01*
Y32830D01*
X157339D01*
Y35783D01*
D02*
G37*
G36*
X153402D02*
X150056D01*
Y32830D01*
X153402D01*
Y35783D01*
D02*
G37*
G36*
X149319D02*
X145973D01*
Y32830D01*
X149319D01*
Y35783D01*
D02*
G37*
G36*
X145382D02*
X142036D01*
Y32830D01*
X145382D01*
Y35783D01*
D02*
G37*
G36*
X77854Y34744D02*
X75886D01*
Y32579D01*
X77854D01*
Y34744D01*
D02*
G37*
G36*
X75295D02*
X73327D01*
Y32579D01*
X75295D01*
Y34744D01*
D02*
G37*
G36*
X30625Y41480D02*
X27725D01*
X24824D01*
Y37175D01*
X24929Y36650D01*
X25220Y36215D01*
X24929Y35779D01*
X24824Y35254D01*
Y30949D01*
X27725D01*
X30625D01*
Y35254D01*
X30521Y35779D01*
X30230Y36215D01*
X30521Y36650D01*
X30625Y37175D01*
Y41480D01*
D02*
G37*
G36*
X59168Y41480D02*
X53368D01*
Y37175D01*
X53472Y36650D01*
X53763Y36215D01*
X53472Y35779D01*
X53368Y35254D01*
Y30949D01*
X59168D01*
Y35254D01*
X59064Y35779D01*
X58773Y36215D01*
X59064Y36650D01*
X59168Y37175D01*
Y41480D01*
D02*
G37*
G36*
X104188Y40901D02*
X98387D01*
Y36596D01*
X98492Y36071D01*
X98766Y35660D01*
X98492Y35249D01*
X98387Y34724D01*
Y30419D01*
X104188D01*
Y34724D01*
X104084Y35249D01*
X103809Y35660D01*
X104084Y36071D01*
X104188Y36596D01*
Y40901D01*
D02*
G37*
G36*
X30625Y30358D02*
X28020D01*
Y24682D01*
X29255D01*
X29779Y24787D01*
X30224Y25084D01*
X30521Y25528D01*
X30625Y26053D01*
Y30358D01*
D02*
G37*
G36*
X27430D02*
X24824D01*
Y26053D01*
X24929Y25528D01*
X25226Y25084D01*
X25670Y24787D01*
X26195Y24682D01*
X27430D01*
Y30358D01*
D02*
G37*
G36*
X158138Y28784D02*
X154693D01*
Y23173D01*
X158138D01*
Y28784D01*
D02*
G37*
G36*
X154103D02*
X150658D01*
Y23173D01*
X154103D01*
Y28784D01*
D02*
G37*
G36*
X104188Y29828D02*
X98387D01*
Y25523D01*
X98492Y24998D01*
X98766Y24587D01*
X98492Y24176D01*
X98387Y23652D01*
Y19346D01*
X104188D01*
Y23652D01*
X104084Y24176D01*
X103809Y24587D01*
X104084Y24998D01*
X104188Y25523D01*
Y29828D01*
D02*
G37*
G36*
X158138Y22583D02*
X154693D01*
Y16973D01*
X158138D01*
Y22583D01*
D02*
G37*
G36*
X154103D02*
X150658D01*
Y16973D01*
X154103D01*
Y22583D01*
D02*
G37*
G36*
X68965Y123244D02*
X43374D01*
X43067Y123183D01*
X42807Y123009D01*
X42633Y122748D01*
X42572Y122441D01*
Y92896D01*
X36507Y86831D01*
X36334Y86571D01*
X36272Y86264D01*
Y24204D01*
X36334Y23897D01*
X36507Y23637D01*
X36768Y23462D01*
X37075Y23401D01*
X38172Y23401D01*
X41160Y20414D01*
X40901Y19966D01*
X40082Y20185D01*
X39029D01*
X38012Y19913D01*
X37099Y19386D01*
X37005Y19292D01*
X37807Y18490D01*
X37250Y17934D01*
X36449Y18735D01*
X36355Y18641D01*
X35828Y17729D01*
X35555Y16712D01*
Y15658D01*
X35828Y14641D01*
X36355Y13729D01*
X36449Y13635D01*
X37250Y14436D01*
X37807Y13880D01*
X37005Y13078D01*
X37099Y12984D01*
X38012Y12458D01*
X39029Y12185D01*
X40082D01*
X41099Y12458D01*
X42011Y12984D01*
X42465Y13438D01*
X42965Y13231D01*
Y3980D01*
X43026Y3673D01*
X43200Y3413D01*
X43461Y3239D01*
X43768Y3178D01*
X48493D01*
X48800Y3239D01*
X49060Y3413D01*
X49234Y3673D01*
X49295Y3980D01*
Y8508D01*
X63568D01*
X63945Y8213D01*
X63945Y8008D01*
Y6864D01*
X62961D01*
Y7819D01*
X58433D01*
Y3685D01*
X62961D01*
Y4640D01*
X63945D01*
Y3685D01*
X68079D01*
Y8008D01*
X68079Y8213D01*
X68457Y8508D01*
X68686D01*
X69063Y8213D01*
X69063Y8008D01*
Y3685D01*
X73197D01*
Y4837D01*
X74477D01*
Y3980D01*
X78414D01*
Y7917D01*
X74477D01*
Y7061D01*
X73197D01*
Y8060D01*
X73197Y8213D01*
X73238Y8353D01*
X73543Y8750D01*
X73851Y8689D01*
X93374D01*
X93682Y8750D01*
X93942Y8924D01*
X94116Y9185D01*
X94177Y9492D01*
Y47102D01*
X95579D01*
Y49464D01*
X95874D01*
Y49759D01*
X97843D01*
Y51603D01*
X120524D01*
Y43744D01*
X120585Y43437D01*
X120748Y43043D01*
X120923Y42783D01*
X121183Y42609D01*
X121490Y42548D01*
X123387D01*
X123570Y42048D01*
X119267Y37745D01*
X119041Y37839D01*
X118101D01*
X117233Y37479D01*
X116569Y36814D01*
X116209Y35946D01*
Y35007D01*
X116569Y34138D01*
X117233Y33474D01*
X117459Y33380D01*
Y30358D01*
X117459Y30358D01*
X117544Y29933D01*
X117785Y29572D01*
X117882Y29475D01*
Y26913D01*
X122108D01*
X122410Y26913D01*
Y26913D01*
X122608Y26914D01*
Y26914D01*
X127136D01*
Y31048D01*
X122910D01*
X122608Y31048D01*
Y31048D01*
X122410Y31047D01*
Y31047D01*
X119683D01*
Y33380D01*
X119909Y33474D01*
X120574Y34138D01*
X120933Y35007D01*
Y35946D01*
X120840Y36173D01*
X125597Y40930D01*
X125597Y40930D01*
X125838Y41291D01*
X125923Y41716D01*
Y42548D01*
X129186D01*
Y40201D01*
X129247Y39894D01*
X129421Y39633D01*
X129681Y39459D01*
X129989Y39398D01*
X141565D01*
X142036Y39326D01*
X142036Y38898D01*
Y36374D01*
X145677D01*
X149319D01*
X149319Y39014D01*
X149687Y39232D01*
X150056Y39014D01*
Y36374D01*
X153697D01*
X157339D01*
X157339Y39326D01*
X157809Y39398D01*
X161469D01*
Y17366D01*
X161530Y17059D01*
X161704Y16799D01*
X161965Y16624D01*
X162272Y16563D01*
X169359D01*
X169666Y16624D01*
X169926Y16799D01*
X170100Y17059D01*
X170161Y17366D01*
Y39614D01*
X170159Y39623D01*
X170161Y39633D01*
X170129Y39777D01*
X170100Y39921D01*
X170095Y39929D01*
X170093Y39939D01*
X170008Y40059D01*
X169926Y40181D01*
X169918Y40187D01*
X169912Y40195D01*
X169391Y40691D01*
X169333Y40728D01*
X169284Y40777D01*
X169202Y40811D01*
X169127Y40859D01*
X169058Y40871D01*
X168994Y40897D01*
X168851Y40926D01*
Y40926D01*
X168838Y40913D01*
Y40992D01*
Y44138D01*
X168777Y44445D01*
X168717Y44535D01*
X168838Y44804D01*
Y50479D01*
X165630D01*
X165630Y50479D01*
Y63354D01*
X173898D01*
X173896Y63356D01*
Y68853D01*
X174318D01*
Y68854D01*
X173896D01*
X173736Y69354D01*
X174177Y69794D01*
X174477Y70518D01*
Y71301D01*
X174177Y72025D01*
X173623Y72578D01*
X172900Y72878D01*
X172117D01*
X171393Y72578D01*
X171107Y72292D01*
X170607Y72499D01*
Y74593D01*
X171561Y75547D01*
X174122D01*
Y80074D01*
X169988D01*
Y77119D01*
X169110Y76241D01*
X168610Y76449D01*
Y80074D01*
X164477D01*
Y75547D01*
X165432D01*
Y67967D01*
X165431Y67967D01*
X165516Y67541D01*
X165757Y67180D01*
X165824Y67113D01*
Y66196D01*
X165853Y66049D01*
Y63932D01*
X165066D01*
Y63145D01*
X163914D01*
X163914Y65410D01*
X163914Y65410D01*
X163829Y65836D01*
X163588Y66197D01*
X163588Y66197D01*
X158649Y71136D01*
X158288Y71377D01*
X157862Y71462D01*
X157862Y71462D01*
X156996D01*
Y72988D01*
X152862D01*
Y68460D01*
X156996D01*
Y69010D01*
X157496Y69144D01*
X161690Y64950D01*
X161690Y63145D01*
X160342D01*
Y60980D01*
X159914Y60804D01*
X159519D01*
X156996Y63327D01*
Y66295D01*
X152862D01*
Y61767D01*
X155411D01*
X156191Y60988D01*
X155983Y60488D01*
X155522D01*
X154798Y60188D01*
X154245Y59634D01*
X153945Y58911D01*
Y58128D01*
X154245Y57404D01*
X154798Y56850D01*
X155522Y56551D01*
X156305D01*
X156380Y56460D01*
X156146Y55960D01*
X154536D01*
Y51710D01*
X152764D01*
Y53500D01*
X150795D01*
X148827D01*
Y51710D01*
X130004D01*
Y52390D01*
X138256D01*
X138564Y52451D01*
X138824Y52625D01*
X138998Y52886D01*
X139059Y53193D01*
Y58870D01*
X138998Y59177D01*
X138824Y59438D01*
X138564Y59612D01*
X138256Y59673D01*
X100886D01*
X100808Y59658D01*
X100729D01*
X100656Y59627D01*
X100579Y59612D01*
X100513Y59568D01*
X100440Y59538D01*
X100385Y59501D01*
X100329Y59445D01*
X100185Y59386D01*
X92886D01*
X92803Y59369D01*
X92718Y59368D01*
X92651Y59339D01*
X92579Y59324D01*
X92576Y59322D01*
X92445D01*
X92132Y59260D01*
X91866Y59083D01*
X91689Y58817D01*
X91668Y58712D01*
X91626Y58720D01*
X89108D01*
X88970Y58693D01*
X88831Y58671D01*
X88817Y58662D01*
X88801Y58659D01*
X88684Y58581D01*
X88564Y58508D01*
X88554Y58494D01*
X88540Y58485D01*
X88462Y58368D01*
X88379Y58254D01*
X88141Y57739D01*
X88099Y57747D01*
X87507D01*
X87200Y57686D01*
X86940Y57512D01*
X86766Y57252D01*
X86705Y56946D01*
Y55045D01*
X86691Y54976D01*
Y53859D01*
X86446Y53665D01*
X85951Y53886D01*
Y56946D01*
X85945Y56972D01*
X85946Y57482D01*
X86206Y57656D01*
X86380Y57916D01*
X86441Y58223D01*
Y58816D01*
X86380Y59122D01*
X86348Y59483D01*
X86467Y59661D01*
X86454Y59674D01*
X86397Y59697D01*
X86366Y59700D01*
X86366Y59700D01*
X82882Y59700D01*
X82804D01*
X82659Y59760D01*
X82548Y59871D01*
X82488Y60016D01*
Y60094D01*
X82488D01*
Y60193D01*
X81879D01*
Y60192D01*
X81955Y59808D01*
X82172Y59483D01*
X82140Y59122D01*
X82089Y58866D01*
X80974Y57751D01*
X78453D01*
Y58815D01*
X73925D01*
Y58416D01*
X73425Y58209D01*
X73230Y58405D01*
X72506Y58705D01*
X72469D01*
X72369Y59205D01*
X72836Y59398D01*
X73390Y59952D01*
X73410Y60000D01*
X74211D01*
X74224Y59980D01*
X74462Y59821D01*
X74742Y59765D01*
X77636D01*
X77916Y59821D01*
X78154Y59980D01*
X78313Y60217D01*
X78369Y60498D01*
Y61817D01*
X78313Y62097D01*
X78154Y62335D01*
X77916Y62493D01*
X77636Y62549D01*
X74742D01*
X74462Y62493D01*
X74224Y62335D01*
X74150Y62224D01*
X73348D01*
X72836Y62736D01*
X72112Y63036D01*
X71329D01*
X70606Y62736D01*
X70052Y62182D01*
X69752Y61459D01*
Y60675D01*
X70052Y59952D01*
X70606Y59398D01*
X71329Y59099D01*
X71367D01*
X71466Y58599D01*
X70999Y58405D01*
X70446Y57851D01*
X70146Y57128D01*
Y56345D01*
X70446Y55621D01*
X70999Y55067D01*
X71723Y54768D01*
X72506D01*
X73230Y55067D01*
X73425Y55263D01*
X73925Y55056D01*
Y54681D01*
X78453D01*
Y55744D01*
X81390D01*
X81774Y55821D01*
X82100Y56038D01*
X82762Y56701D01*
X83262Y56494D01*
Y53977D01*
X83147Y53900D01*
X83147Y53900D01*
X79112Y49865D01*
X78650Y50056D01*
Y51334D01*
X76484D01*
Y49366D01*
X77433D01*
X77700Y48866D01*
X77654Y48797D01*
X77362D01*
X77362Y48797D01*
X76937Y48712D01*
X76737Y48578D01*
X73925D01*
Y46825D01*
X71455D01*
X71361Y47051D01*
X70697Y47715D01*
X69828Y48075D01*
X68889D01*
X68021Y47715D01*
X67356Y47051D01*
X66996Y46183D01*
Y45243D01*
X67356Y44375D01*
X68021Y43710D01*
X68889Y43350D01*
X69828D01*
X70697Y43710D01*
X71361Y44375D01*
X71455Y44601D01*
X73925D01*
Y44445D01*
X78453D01*
Y46092D01*
X78504Y46573D01*
X78929Y46657D01*
X79290Y46898D01*
X83064Y50672D01*
X83180Y50658D01*
X83601Y50212D01*
X83601Y50212D01*
Y41863D01*
X83138Y41774D01*
X82838Y42497D01*
X82285Y43051D01*
X81561Y43350D01*
X80778D01*
X80055Y43051D01*
X79501Y42497D01*
X79500Y42494D01*
X78453D01*
Y43460D01*
X73925D01*
Y39326D01*
X78453D01*
Y40270D01*
X79500D01*
X79501Y40267D01*
X80055Y39713D01*
X80778Y39413D01*
X81561D01*
X82285Y39713D01*
X82838Y40267D01*
X83138Y40990D01*
X83601Y40901D01*
Y38370D01*
X82534Y37303D01*
X78642D01*
Y32776D01*
X80392D01*
Y31255D01*
X79437D01*
Y27122D01*
X79058Y26831D01*
X73851D01*
X73543Y26769D01*
X73283Y26595D01*
X73109Y26335D01*
X73048Y26028D01*
Y25585D01*
X72886Y25453D01*
X59559D01*
X59149Y25953D01*
X59168Y26053D01*
Y30358D01*
X53368D01*
Y26053D01*
X53388Y25953D01*
X52977Y25453D01*
X52171D01*
X48902Y28722D01*
Y69516D01*
X59842D01*
X60150Y69577D01*
X60410Y69751D01*
X60584Y70012D01*
X60645Y70319D01*
Y85931D01*
X61728Y87014D01*
X68965D01*
X69272Y87075D01*
X69533Y87249D01*
X69707Y87510D01*
X69768Y87817D01*
Y122441D01*
X69707Y122748D01*
X69533Y123009D01*
X69272Y123183D01*
X68965Y123244D01*
D02*
G37*
G36*
X122608Y25929D02*
X122410Y25929D01*
X122410Y25929D01*
X117882D01*
Y21795D01*
X121772D01*
Y18362D01*
X120915D01*
Y14425D01*
X124852D01*
Y18362D01*
X123996D01*
Y21796D01*
X127136D01*
Y25929D01*
X122895D01*
X122608Y25929D01*
D02*
G37*
G36*
X233238Y25142D02*
X233040Y25142D01*
X233040Y25142D01*
X228512D01*
Y21008D01*
X232301D01*
Y18154D01*
X231445D01*
Y14217D01*
X235382D01*
Y18154D01*
X234525D01*
Y21008D01*
X237766D01*
Y25142D01*
X233525D01*
X233238Y25142D01*
D02*
G37*
G36*
X104188Y18756D02*
X101583D01*
Y13080D01*
X102817D01*
X103342Y13184D01*
X103787Y13481D01*
X104084Y13926D01*
X104188Y14450D01*
Y18756D01*
D02*
G37*
G36*
X100992D02*
X98387D01*
Y14450D01*
X98492Y13926D01*
X98789Y13481D01*
X99233Y13184D01*
X99758Y13080D01*
X100992D01*
Y18756D01*
D02*
G37*
G36*
X409133Y27037D02*
X407718D01*
X406329Y26761D01*
X405022Y26220D01*
X403845Y25433D01*
X402844Y24433D01*
X402058Y23256D01*
X401516Y21948D01*
X401240Y20560D01*
Y19145D01*
X401516Y17757D01*
X402058Y16449D01*
X402844Y15272D01*
X403845Y14271D01*
X405022Y13485D01*
X406329Y12943D01*
X407718Y12667D01*
X409133D01*
X410521Y12943D01*
X411829Y13485D01*
X413005Y14271D01*
X414006Y15272D01*
X414792Y16449D01*
X415334Y17757D01*
X415610Y19145D01*
Y20560D01*
X415334Y21948D01*
X414792Y23256D01*
X414006Y24433D01*
X413005Y25433D01*
X411829Y26220D01*
X410521Y26761D01*
X409133Y27037D01*
D02*
G37*
G36*
X364133D02*
X362718D01*
X361329Y26761D01*
X360022Y26220D01*
X358845Y25433D01*
X357844Y24433D01*
X357058Y23256D01*
X356516Y21948D01*
X356240Y20560D01*
Y19145D01*
X356516Y17757D01*
X357058Y16449D01*
X357844Y15272D01*
X358845Y14271D01*
X360022Y13485D01*
X361329Y12943D01*
X362718Y12667D01*
X364133D01*
X365521Y12943D01*
X366829Y13485D01*
X368005Y14271D01*
X369006Y15272D01*
X369793Y16449D01*
X370334Y17757D01*
X370610Y19145D01*
Y20560D01*
X370334Y21948D01*
X369793Y23256D01*
X369006Y24433D01*
X368005Y25433D01*
X366829Y26220D01*
X365521Y26761D01*
X364133Y27037D01*
D02*
G37*
G36*
X417066Y13598D02*
X415611D01*
X414205Y13222D01*
X412945Y12494D01*
X412708Y12258D01*
X413504Y11463D01*
X412947Y10906D01*
X412152Y11701D01*
X411915Y11465D01*
X411188Y10204D01*
X410811Y8799D01*
Y7343D01*
X411188Y5937D01*
X411915Y4677D01*
X412152Y4441D01*
X412947Y5236D01*
X413504Y4679D01*
X412708Y3884D01*
X412945Y3648D01*
X414205Y2920D01*
X415611Y2543D01*
X417066D01*
X418472Y2920D01*
X419733Y3648D01*
X419969Y3884D01*
X419174Y4679D01*
X419730Y5236D01*
X420526Y4441D01*
X420762Y4677D01*
X421489Y5937D01*
X421866Y7343D01*
Y8799D01*
X421489Y10204D01*
X420762Y11465D01*
X420526Y11701D01*
X419730Y10906D01*
X419174Y11463D01*
X419969Y12258D01*
X419733Y12494D01*
X418472Y13222D01*
X417066Y13598D01*
D02*
G37*
G36*
X356141D02*
X354686D01*
X353280Y13222D01*
X352019Y12494D01*
X351783Y12258D01*
X352578Y11463D01*
X352022Y10906D01*
X351226Y11701D01*
X350990Y11465D01*
X350262Y10204D01*
X349886Y8799D01*
Y7343D01*
X350262Y5937D01*
X350990Y4677D01*
X351226Y4441D01*
X352022Y5236D01*
X352578Y4679D01*
X351783Y3884D01*
X352019Y3648D01*
X353280Y2920D01*
X354686Y2543D01*
X356141D01*
X357547Y2920D01*
X358807Y3648D01*
X359044Y3884D01*
X358248Y4679D01*
X358805Y5236D01*
X359600Y4441D01*
X359837Y4677D01*
X360564Y5937D01*
X360941Y7343D01*
Y8799D01*
X360564Y10204D01*
X359837Y11465D01*
X359600Y11701D01*
X358805Y10906D01*
X358248Y11463D01*
X359044Y12258D01*
X358807Y12494D01*
X357547Y13222D01*
X356141Y13598D01*
D02*
G37*
G36*
X129676Y13047D02*
X129634D01*
Y10783D01*
X131898D01*
Y10825D01*
X131723Y11475D01*
X131386Y12059D01*
X130910Y12536D01*
X130326Y12872D01*
X129676Y13047D01*
D02*
G37*
G36*
X129043D02*
X129002D01*
X128351Y12872D01*
X127768Y12536D01*
X127291Y12059D01*
X126954Y11475D01*
X126780Y10825D01*
Y10783D01*
X129043D01*
Y13047D01*
D02*
G37*
G36*
X125049Y12259D02*
X123179D01*
Y10389D01*
X125049D01*
Y12259D01*
D02*
G37*
G36*
X122588D02*
X120718D01*
Y10389D01*
X122588D01*
Y12259D01*
D02*
G37*
G36*
X235579Y12051D02*
X233709D01*
Y10181D01*
X235579D01*
Y12051D01*
D02*
G37*
G36*
X233118D02*
X231248D01*
Y10181D01*
X233118D01*
Y12051D01*
D02*
G37*
G36*
X131898Y10193D02*
X129634D01*
Y7929D01*
X129676D01*
X130326Y8103D01*
X130910Y8440D01*
X131386Y8917D01*
X131723Y9500D01*
X131898Y10151D01*
Y10193D01*
D02*
G37*
G36*
X129043D02*
X126780D01*
Y10151D01*
X126954Y9500D01*
X127291Y8917D01*
X127768Y8440D01*
X128351Y8103D01*
X129002Y7929D01*
X129043D01*
Y10193D01*
D02*
G37*
G36*
X125049Y9799D02*
X123179D01*
Y7929D01*
X125049D01*
Y9799D01*
D02*
G37*
G36*
X122588D02*
X120718D01*
Y7929D01*
X122588D01*
Y9799D01*
D02*
G37*
G36*
X235579Y9591D02*
X233709D01*
Y7721D01*
X235579D01*
Y9591D01*
D02*
G37*
G36*
X233118D02*
X231248D01*
Y7721D01*
X233118D01*
Y9591D01*
D02*
G37*
G36*
X42126Y8661D02*
X40453D01*
Y6594D01*
X42126D01*
Y8661D01*
D02*
G37*
G36*
X39862D02*
X38189D01*
Y6594D01*
X39862D01*
Y8661D01*
D02*
G37*
G36*
X616879Y21260D02*
X615405D01*
X613960Y20972D01*
X612599Y20409D01*
X611373Y19590D01*
X610331Y18548D01*
X609513Y17323D01*
X608949Y15961D01*
X608661Y14516D01*
Y13043D01*
X608949Y11598D01*
X609513Y10236D01*
X610331Y9011D01*
X611373Y7969D01*
X612599Y7151D01*
X613960Y6587D01*
X615405Y6299D01*
X616879D01*
X618324Y6587D01*
X619685Y7151D01*
X620910Y7969D01*
X621952Y9011D01*
X622771Y10236D01*
X623335Y11598D01*
X623622Y13043D01*
Y14516D01*
X623335Y15961D01*
X622771Y17323D01*
X621952Y18548D01*
X620910Y19590D01*
X619685Y20409D01*
X618324Y20972D01*
X616879Y21260D01*
D02*
G37*
G36*
X14516D02*
X13043D01*
X11598Y20972D01*
X10236Y20409D01*
X9011Y19590D01*
X7969Y18548D01*
X7151Y17323D01*
X6587Y15961D01*
X6299Y14516D01*
Y13043D01*
X6587Y11598D01*
X7151Y10236D01*
X7969Y9011D01*
X9011Y7969D01*
X10236Y7151D01*
X11598Y6587D01*
X13043Y6299D01*
X14516D01*
X15961Y6587D01*
X17323Y7151D01*
X18548Y7969D01*
X19590Y9011D01*
X20409Y10236D01*
X20972Y11598D01*
X21260Y13043D01*
Y14516D01*
X20972Y15961D01*
X20409Y17323D01*
X19590Y18548D01*
X18548Y19590D01*
X17323Y20409D01*
X15961Y20972D01*
X14516Y21260D01*
D02*
G37*
G36*
X84910Y8114D02*
X83040D01*
Y6244D01*
X84910D01*
Y8114D01*
D02*
G37*
G36*
X82449D02*
X80579D01*
Y6244D01*
X82449D01*
Y8114D01*
D02*
G37*
G36*
X42126Y6004D02*
X40453D01*
Y3937D01*
X42126D01*
Y6004D01*
D02*
G37*
G36*
X39862D02*
X38189D01*
Y3937D01*
X39862D01*
Y6004D01*
D02*
G37*
G36*
X84910Y5654D02*
X83040D01*
Y3783D01*
X84910D01*
Y5654D01*
D02*
G37*
G36*
X82449D02*
X80579D01*
Y3783D01*
X82449D01*
Y5654D01*
D02*
G37*
%LPD*%
G36*
X260908Y89001D02*
X260908Y58941D01*
X260330Y58311D01*
X250461D01*
Y73814D01*
X249728Y74547D01*
X247138D01*
X247138Y89375D01*
X260462Y89445D01*
X260908Y89001D01*
D02*
G37*
G36*
X260697Y44925D02*
X239831D01*
Y53717D01*
X260697D01*
Y44925D01*
D02*
G37*
G36*
X237469Y42563D02*
X179908D01*
X176285Y45155D01*
Y49729D01*
X178332D01*
X178639Y49790D01*
X178900Y49964D01*
X179074Y50225D01*
X179135Y50532D01*
Y52782D01*
X183347D01*
X183654Y52843D01*
X183699Y52873D01*
X184334Y52744D01*
X184442Y52673D01*
X184546Y52423D01*
X185100Y51869D01*
X185823Y51569D01*
X186606D01*
X187330Y51869D01*
X187884Y52423D01*
X188149Y53062D01*
X237469D01*
Y42563D01*
D02*
G37*
G36*
X86681Y63429D02*
X86042D01*
X85946Y63493D01*
X85639Y63554D01*
X82881D01*
X82744Y63666D01*
Y80358D01*
X86681D01*
Y63429D01*
D02*
G37*
G36*
X100461Y62956D02*
X100398Y62828D01*
X99831Y62393D01*
X88650Y62393D01*
Y63452D01*
X88666Y63463D01*
X88840Y63723D01*
X88901Y64030D01*
Y67969D01*
X89345Y68530D01*
X89380Y68547D01*
X100461D01*
Y62956D01*
D02*
G37*
G36*
X138256Y53193D02*
X129201D01*
Y50984D01*
X129186Y50907D01*
Y43350D01*
X121490D01*
X121327Y43744D01*
Y52406D01*
X94058D01*
X93942Y52580D01*
X93682Y52754D01*
X93374Y52815D01*
X92549D01*
X92541Y52851D01*
X92497Y52917D01*
X92467Y52990D01*
X92445Y53023D01*
X92429Y53102D01*
Y57917D01*
X92422Y57953D01*
X92782Y58511D01*
X92886Y58583D01*
X100185D01*
X100492Y58644D01*
X100637Y58704D01*
X100637Y58704D01*
X100886Y58870D01*
X138256D01*
Y53193D01*
D02*
G37*
G36*
X164828Y50479D02*
X164828Y50479D01*
X164889Y50172D01*
X165063Y49912D01*
X165323Y49738D01*
X165630Y49676D01*
X167784D01*
Y44138D01*
X168035D01*
Y40913D01*
X168096Y40605D01*
X168270Y40345D01*
X168530Y40171D01*
X168838Y40110D01*
X169359Y39614D01*
Y17366D01*
X162272D01*
Y40201D01*
X129989D01*
Y50907D01*
X159735D01*
Y52624D01*
X164828D01*
Y50479D01*
D02*
G37*
G36*
X91626Y53023D02*
X91689Y52710D01*
X91800Y52544D01*
Y52012D01*
X93374D01*
Y47287D01*
Y9492D01*
X73851D01*
Y26028D01*
X85894D01*
X86681Y26815D01*
Y50608D01*
X87691Y51618D01*
X88650D01*
Y52429D01*
X88666Y52439D01*
X88840Y52700D01*
X88901Y53007D01*
Y53233D01*
X88915Y53303D01*
Y54976D01*
X88901Y55045D01*
Y56946D01*
X88840Y57252D01*
X88817Y57288D01*
X89108Y57917D01*
X91626D01*
Y53023D01*
D02*
G37*
G36*
X68965Y87817D02*
X61396D01*
X59842Y86264D01*
Y70319D01*
X48099D01*
Y28390D01*
X51839Y24650D01*
X72886D01*
Y9311D01*
X48493D01*
Y3980D01*
X43768D01*
Y18941D01*
X38505Y24204D01*
X37075Y24204D01*
Y86264D01*
X43374Y92563D01*
Y122441D01*
X68965D01*
Y87817D01*
D02*
G37*
%LPC*%
G36*
X81140Y191860D02*
X79466D01*
Y189793D01*
X81140D01*
Y191860D01*
D02*
G37*
G36*
X78876D02*
X77203D01*
Y189793D01*
X78876D01*
Y191860D01*
D02*
G37*
G36*
X554331Y192913D02*
X552658D01*
Y190846D01*
X554331D01*
Y192913D01*
D02*
G37*
G36*
X552067D02*
X550394D01*
Y190846D01*
X552067D01*
Y192913D01*
D02*
G37*
%LPD*%
D10*
X77461Y65984D02*
X80988Y62456D01*
X84260D01*
X76189Y56748D02*
X81390D01*
X83162Y58519D02*
X84260D01*
X81390Y56748D02*
X83162Y58519D01*
X76189Y66905D02*
Y71315D01*
Y66905D02*
X76977D01*
X77461Y66421D01*
Y65984D02*
Y66421D01*
X72114Y56736D02*
X76178D01*
X76189Y56748D01*
D15*
X546963Y144036D02*
X550394Y140606D01*
Y133071D02*
Y140606D01*
X554331Y134351D02*
Y140290D01*
X81102Y138176D02*
X83015Y136264D01*
X77481Y139677D02*
X82393Y134764D01*
X239370Y140559D02*
X242510D01*
X239370Y138583D02*
X249296Y128657D01*
X239370Y138583D02*
Y140559D01*
X249296Y128657D02*
X334729D01*
X240106Y158580D02*
X245146D01*
X240014Y148051D02*
Y158487D01*
X235551Y139945D02*
X248339Y127157D01*
X334107D01*
X544162Y158311D02*
X549201D01*
X544162Y158311D02*
X544162Y158311D01*
X560303D02*
X560303Y158311D01*
X555264Y158311D02*
X560303D01*
X549201Y151969D02*
Y158311D01*
X555172Y147783D02*
Y158219D01*
X555264Y158311D01*
X557668Y140290D02*
X561414Y144036D01*
X555172Y147783D02*
X556116D01*
X554331Y140290D02*
X557668D01*
X556116Y147783D02*
X556823Y147076D01*
X549201Y147783D02*
Y151969D01*
X543532Y144036D02*
X544603D01*
X545455D02*
X549201Y147783D01*
X545310Y144036D02*
X545455D01*
X544603D02*
X545310D01*
X546963D01*
X386682Y158705D02*
X391721D01*
X386682Y158705D02*
X386682Y158705D01*
X402823D02*
X402823Y158705D01*
X397784Y158705D02*
X402823D01*
X391721Y152362D02*
Y158705D01*
X397691Y151383D02*
Y158612D01*
X397784Y158705D01*
X400188Y140684D02*
X403934Y144430D01*
X397691Y148176D02*
X398636D01*
X397691D02*
Y151383D01*
X396850Y140684D02*
X400188D01*
X398636Y148176D02*
X399343Y147469D01*
X396850Y138570D02*
Y140684D01*
X393229Y140070D02*
Y140684D01*
X391721Y148176D02*
Y152362D01*
X386052Y144430D02*
X387122D01*
X387975D02*
X391721Y148176D01*
X389483Y144430D02*
X393229Y140684D01*
X387829Y144430D02*
X387975D01*
X387122D02*
X387829D01*
X389483D01*
X229004Y158580D02*
X234043D01*
X229004Y158580D02*
X229004Y158580D01*
X245146D02*
X245146Y158580D01*
X234043Y148051D02*
Y158580D01*
X240014Y158487D02*
X240106Y158580D01*
X242510Y140559D02*
X246256Y144305D01*
X240014Y148051D02*
X240959D01*
X241665Y147345D01*
X235551Y139945D02*
Y140559D01*
X228374Y144305D02*
X230152D01*
X230297D02*
X234043Y148051D01*
X231805Y144305D02*
X235551Y140559D01*
X230152Y144305D02*
X230297D01*
X230152D02*
X231805D01*
X70934Y158311D02*
X75973D01*
X70933Y158311D02*
X70934Y158311D01*
X82036D02*
X87075D01*
X87075Y158311D01*
X81943Y158219D02*
X82036Y158311D01*
X81943Y147783D02*
Y158219D01*
X75973Y147783D02*
Y158311D01*
X82888Y147783D02*
X83595Y147076D01*
X81943Y147783D02*
X82888D01*
X84440Y140290D02*
X88186Y144036D01*
X81102Y138176D02*
Y140290D01*
X84440D01*
X72082Y144036D02*
X72227D01*
X77481Y139677D02*
Y140290D01*
X73735Y144036D02*
X77481Y140290D01*
X72227Y144036D02*
X75973Y147783D01*
X72082Y144036D02*
X73735D01*
X70303D02*
X72082D01*
X542169Y124846D02*
X550394Y133071D01*
X434966Y124846D02*
X542169D01*
X543326Y123346D02*
X554331Y134351D01*
X435587Y123346D02*
X543326D01*
X384612Y43281D02*
X386834Y41059D01*
X378405Y44852D02*
X382819D01*
X379134Y53759D02*
X384612Y48281D01*
X383112Y45145D02*
Y47660D01*
X377634Y53138D02*
X383112Y47660D01*
X382819Y44852D02*
X383112Y45145D01*
X384612Y43281D02*
Y48281D01*
X379134Y53759D02*
Y57382D01*
X377634Y53138D02*
Y58003D01*
X379134Y57382D02*
X380805Y59053D01*
X377634Y58003D02*
X379305Y59675D01*
X386834Y41059D02*
X389977D01*
X393406Y44488D02*
Y54852D01*
X389977Y41059D02*
X393406Y44488D01*
X383405Y54852D02*
X387563Y59010D01*
Y104289D01*
X389063Y45510D02*
Y103667D01*
X388405Y44852D02*
X389063Y45510D01*
Y103667D02*
X396850Y111454D01*
X393282Y110007D02*
Y140684D01*
X387563Y104289D02*
X393282Y110007D01*
X396850Y111454D02*
Y140684D01*
X329211Y123545D02*
X369291Y83465D01*
Y56159D02*
Y83465D01*
X240071Y130358D02*
X246884Y123545D01*
X329211D01*
X372062Y55551D02*
X374063Y53549D01*
X369291Y56159D02*
X369900Y55551D01*
X372062D01*
X161724Y136264D02*
X167630Y130358D01*
X240071D01*
X83015Y136264D02*
X161724D01*
X328590Y122045D02*
X367791Y82843D01*
Y55538D02*
Y82843D01*
X239449Y128858D02*
X246263Y122045D01*
X328590D01*
X369063Y43549D02*
Y54266D01*
X367791Y55538D02*
X369063Y54266D01*
X161103Y134764D02*
X167008Y128858D01*
X239449D01*
X82393Y134764D02*
X161103D01*
X380805Y59053D02*
Y82581D01*
X334729Y128657D02*
X380805Y82581D01*
X379305Y59675D02*
Y81959D01*
X334107Y127157D02*
X379305Y81959D01*
X398406Y44852D02*
Y58194D01*
X418504Y78292D01*
X420004Y77671D02*
Y107763D01*
X418504Y78292D02*
Y108385D01*
X434966Y124846D01*
X420004Y107763D02*
X435587Y123346D01*
X400563Y58230D02*
X420004Y77671D01*
X400563Y56751D02*
Y58230D01*
Y56751D02*
X403765Y53549D01*
D19*
X575340Y174355D02*
X575984Y175000D01*
X570086Y174355D02*
X575340D01*
X575684Y180418D02*
X575984Y180118D01*
X570086Y180418D02*
X575684D01*
X534638D02*
X534972D01*
X534638Y174355D02*
X534972D01*
X535870Y173123D02*
Y173458D01*
X529008Y180418D02*
X534638D01*
X528339Y179749D02*
X529008Y180418D01*
X528339Y174336D02*
X528811Y173863D01*
X534638D01*
X564012Y191350D02*
X564241Y191579D01*
X521031Y216647D02*
X521755D01*
X523615Y210625D02*
Y214787D01*
X521755Y216647D02*
X523615Y214787D01*
X539831Y210697D02*
X542913Y213779D01*
X539831Y197878D02*
Y210697D01*
X569189Y181316D02*
X570086Y180418D01*
X565108Y184623D02*
X568415Y181316D01*
X569189D01*
X564241Y191579D02*
Y192760D01*
X564012Y184623D02*
X565108D01*
X564012D02*
Y191350D01*
X569752Y174355D02*
X570086D01*
X565422Y158311D02*
Y168213D01*
X565416Y168219D02*
Y168879D01*
X565020Y169623D02*
X569752Y174355D01*
X564673Y169623D02*
X565416Y168879D01*
X564012Y169623D02*
X564673D01*
X564012D02*
X565020D01*
X565416Y168219D02*
X565422Y168213D01*
X539370Y169623D02*
X540390D01*
X539787D02*
X540390D01*
X539044Y168879D02*
X539787Y169623D01*
X539044Y158311D02*
Y168879D01*
X534972Y174355D02*
X535870Y173458D01*
Y173123D02*
X539370Y169623D01*
X539831Y185182D02*
X540390Y184623D01*
X539831Y185182D02*
Y192760D01*
X539585Y183818D02*
X540390Y184623D01*
X538372Y183818D02*
X539585D01*
X534972Y180418D02*
X538372Y183818D01*
X569597Y224803D02*
Y232020D01*
X569468Y232148D02*
X569597Y232020D01*
X568898Y220866D02*
X569685Y221654D01*
Y224803D01*
X554468Y229558D02*
Y232148D01*
X563160Y220866D02*
X568898D01*
X554468Y229558D02*
X563160Y220866D01*
X539468Y217224D02*
X542913Y213779D01*
X539468Y217224D02*
Y232148D01*
X562264Y213779D02*
X565748D01*
X564241Y212272D02*
X565748Y213779D01*
X555709Y220335D02*
X562264Y213779D01*
X564241Y202012D02*
Y212272D01*
Y197878D02*
Y202012D01*
X544478Y225994D02*
X544488Y225984D01*
X544468Y232148D02*
X544478Y232139D01*
Y225994D02*
Y232139D01*
X544488Y222239D02*
X546393Y220335D01*
X555709D01*
X544488Y222239D02*
Y225984D01*
X549537Y223845D02*
Y232080D01*
Y223845D02*
X549998Y223384D01*
X549469Y232148D02*
X549537Y232080D01*
X549998Y223016D02*
Y223384D01*
X523817Y210423D02*
X528282D01*
X523615Y210625D02*
X523817Y210423D01*
X569685Y278071D02*
X569685Y278071D01*
Y274803D02*
X569685Y274803D01*
X569685Y274803D02*
Y278071D01*
X569577Y274695D02*
X569685Y274803D01*
X559449D02*
X559459Y274793D01*
X559449Y274803D02*
X559449Y274803D01*
X569577Y269535D02*
Y274695D01*
X569468Y269426D02*
X569577Y269535D01*
X559459Y269436D02*
Y274793D01*
Y269436D02*
X559469Y269426D01*
X377157Y180812D02*
X377492D01*
X377157Y174749D02*
X377492D01*
X378390Y173517D02*
Y173851D01*
X371528Y180812D02*
X377157D01*
X370858Y180143D02*
X371528Y180812D01*
X370858Y174729D02*
X371331Y174257D01*
X377157D01*
X406531Y191744D02*
X406760Y191972D01*
X412606Y180812D02*
X418024D01*
X418693Y180143D01*
X418417Y174749D02*
X418693Y175025D01*
X412606Y174749D02*
X418417D01*
X363551Y217040D02*
X364274D01*
X366135Y211018D02*
Y215180D01*
X364274Y217040D02*
X366135Y215180D01*
X382351Y211091D02*
X385433Y214173D01*
X382351Y198272D02*
Y211091D01*
X411709Y181710D02*
X412606Y180812D01*
X407628Y185017D02*
X410935Y181710D01*
X411709D01*
X406760Y191972D02*
Y193154D01*
X406531Y185017D02*
X407628D01*
X406531D02*
Y191744D01*
X412272Y174749D02*
X412606D01*
X407941Y158705D02*
Y168607D01*
X407936Y168612D02*
Y169273D01*
X407539Y170017D02*
X412272Y174749D01*
X407192Y170017D02*
X407936Y169273D01*
X406531Y170017D02*
X407192D01*
X406531D02*
X407539D01*
X407936Y168612D02*
X407941Y168607D01*
X381890Y170017D02*
X382909D01*
X382307D02*
X382909D01*
X381563Y169273D02*
X382307Y170017D01*
X381563Y158705D02*
Y169273D01*
X377492Y174749D02*
X378390Y173851D01*
Y173517D02*
X381890Y170017D01*
X382351Y185575D02*
X382909Y185017D01*
X382351Y185575D02*
Y193154D01*
X382104Y184212D02*
X382909Y185017D01*
X380892Y184212D02*
X382104D01*
X377492Y180812D02*
X380892Y184212D01*
X412117Y225197D02*
Y232414D01*
X411988Y232542D02*
X412117Y232414D01*
X411417Y221260D02*
X412205Y222047D01*
Y225197D01*
X396988Y229952D02*
Y232542D01*
X405680Y221260D02*
X411417D01*
X396988Y229952D02*
X405680Y221260D01*
X381988Y217618D02*
X385433Y214173D01*
X381988Y217618D02*
Y232542D01*
X404783Y214173D02*
X408268D01*
X406760Y212666D02*
X408268Y214173D01*
X398228Y220728D02*
X404783Y214173D01*
X406760Y202406D02*
Y212666D01*
Y198272D02*
Y202406D01*
X386998Y226388D02*
X387008Y226378D01*
X386988Y232542D02*
X386998Y232532D01*
Y226388D02*
Y232532D01*
X387008Y222633D02*
X388913Y220728D01*
X398228D01*
X387008Y222633D02*
Y226378D01*
X392057Y224238D02*
Y232473D01*
Y224238D02*
X392517Y223778D01*
X391988Y232542D02*
X392057Y232473D01*
X392517Y223410D02*
Y223778D01*
X366336Y210816D02*
X370801D01*
X366135Y211018D02*
X366336Y210816D01*
X412205Y278465D02*
X412205Y278465D01*
Y275197D02*
X412205Y275197D01*
X412205Y275197D02*
Y278465D01*
X412097Y275089D02*
X412205Y275197D01*
X401968D02*
X401978Y275187D01*
X401968Y275197D02*
X401968Y275197D01*
X412097Y269928D02*
Y275089D01*
X411988Y269820D02*
X412097Y269928D01*
X401978Y269830D02*
Y275187D01*
Y269830D02*
X401988Y269820D01*
X219480Y180687D02*
X219814D01*
X219480Y174624D02*
X219814D01*
X220712Y173392D02*
Y173726D01*
X213850Y180687D02*
X219480D01*
X213181Y180018D02*
X213850Y180687D01*
X213181Y174604D02*
X213653Y174132D01*
X219480D01*
X248854Y191619D02*
X249083Y191848D01*
X254929Y180687D02*
X260346D01*
X261015Y180018D01*
X260740Y174624D02*
X261015Y174900D01*
X254929Y174624D02*
X260740D01*
X205873Y216915D02*
X206597D01*
X208457Y210893D02*
Y215055D01*
X206597Y216915D02*
X208457Y215055D01*
X224673Y210966D02*
X227755Y214048D01*
X224673Y198147D02*
Y210966D01*
X254031Y181585D02*
X254929Y180687D01*
X249950Y184892D02*
X253257Y181585D01*
X254031D01*
X249083Y191848D02*
Y193029D01*
X248854Y184892D02*
X249950D01*
X248854D02*
Y191619D01*
X254594Y174624D02*
X254929D01*
X250264Y158580D02*
Y168482D01*
X250258Y168487D02*
Y169148D01*
X249862Y169892D02*
X254594Y174624D01*
X249515Y169892D02*
X250258Y169148D01*
X248854Y169892D02*
X249515D01*
X248854D02*
X249862D01*
X250258Y168487D02*
X250264Y168482D01*
X224212Y169892D02*
X225232D01*
X224630D02*
X225232D01*
X223886Y169148D02*
X224630Y169892D01*
X223886Y158580D02*
Y169148D01*
X219814Y174624D02*
X220712Y173726D01*
Y173392D02*
X224212Y169892D01*
X224673Y185450D02*
X225232Y184892D01*
X224673Y185450D02*
Y193029D01*
X224427Y184087D02*
X225232Y184892D01*
X223214Y184087D02*
X224427D01*
X219814Y180687D02*
X223214Y184087D01*
X254439Y225072D02*
Y232289D01*
X254311Y232417D02*
X254439Y232289D01*
X253740Y221135D02*
X254527Y221922D01*
Y225072D01*
X239311Y229827D02*
Y232417D01*
X248002Y221135D02*
X253740D01*
X239311Y229827D02*
X248002Y221135D01*
X224311Y217493D02*
X227755Y214048D01*
X224311Y217493D02*
Y232417D01*
X247106Y214048D02*
X250590D01*
X249083Y212541D02*
X250590Y214048D01*
X240551Y220603D02*
X247106Y214048D01*
X249083Y202281D02*
Y212541D01*
Y198147D02*
Y202281D01*
X229320Y226263D02*
X229330Y226253D01*
X229311Y232417D02*
X229320Y232407D01*
Y226263D02*
Y232407D01*
X229330Y222508D02*
X231235Y220603D01*
X240551D01*
X229330Y222508D02*
Y226253D01*
X234380Y224113D02*
Y232348D01*
Y224113D02*
X234840Y223653D01*
X234311Y232417D02*
X234380Y232348D01*
X234840Y223285D02*
Y223653D01*
X208659Y210691D02*
X213124D01*
X208457Y210893D02*
X208659Y210691D01*
X254527Y278340D02*
X254527Y278340D01*
Y275072D02*
X254527Y275072D01*
X254527Y275072D02*
Y278340D01*
X254419Y274964D02*
X254527Y275072D01*
X244291D02*
X244301Y275062D01*
X244291Y275072D02*
X244291Y275072D01*
X254419Y269803D02*
Y274964D01*
X254311Y269695D02*
X254419Y269803D01*
X244301Y269705D02*
Y275062D01*
Y269705D02*
X244311Y269695D01*
X76770Y223016D02*
Y223384D01*
X76309Y223845D02*
X76770Y223384D01*
X71260Y222239D02*
X73164Y220335D01*
X76309Y223845D02*
Y232080D01*
X73164Y220335D02*
X82480D01*
X89035Y213779D01*
X61409Y174355D02*
X61744D01*
X61409Y180418D02*
X61744D01*
X50386Y210625D02*
X50588Y210423D01*
X90783Y191350D02*
X91012Y191579D01*
X102669Y174355D02*
X102945Y174631D01*
X96858Y174355D02*
X102669D01*
X96858Y180418D02*
X102276D01*
X102945Y179749D01*
X55110Y174336D02*
X55583Y173863D01*
X61409D01*
X55779Y180418D02*
X61409D01*
X55110Y179749D02*
X55779Y180418D01*
X50386Y210625D02*
Y214787D01*
X48526Y216647D02*
X50386Y214787D01*
X47803Y216647D02*
X48526D01*
X66603Y210697D02*
X69685Y213779D01*
X66603Y197878D02*
Y210697D01*
X66142Y169623D02*
X67161D01*
X66559D02*
X67161D01*
X62642Y173123D02*
X66142Y169623D01*
X65815Y168879D02*
X66559Y169623D01*
X65815Y158311D02*
Y168879D01*
X61744Y174355D02*
X62642Y173458D01*
Y173123D02*
Y173458D01*
X66603Y185182D02*
X67161Y184623D01*
X66603Y185182D02*
Y192760D01*
X66356Y183818D02*
X67161Y184623D01*
X65144Y183818D02*
X66356D01*
X61744Y180418D02*
X65144Y183818D01*
X96523Y174355D02*
X96858D01*
X92193Y158311D02*
Y168213D01*
X92188Y168219D02*
X92193Y168213D01*
X91791Y169623D02*
X96523Y174355D01*
X91444Y169623D02*
X92188Y168879D01*
X90783Y169623D02*
X91444D01*
X90783D02*
X91791D01*
X92188Y168219D02*
Y168879D01*
X95961Y181316D02*
X96858Y180418D01*
X91880Y184623D02*
X95187Y181316D01*
X95961D01*
X91012Y191579D02*
Y192760D01*
X90783Y184623D02*
X91880D01*
X90783D02*
Y191350D01*
X91012Y202012D02*
Y212272D01*
Y197878D02*
Y202012D01*
X96369Y224803D02*
Y232020D01*
X96240Y232148D02*
X96369Y232020D01*
X95669Y220866D02*
X96457Y221654D01*
Y224803D01*
X81240Y229558D02*
Y232148D01*
X89932Y220866D02*
X95669D01*
X81240Y229558D02*
X89932Y220866D01*
X91012Y212272D02*
X92520Y213779D01*
X89035D02*
X92520D01*
X71250Y225994D02*
X71260Y225984D01*
X71240Y232148D02*
X71250Y232139D01*
Y225994D02*
Y232139D01*
X71260Y222239D02*
Y225984D01*
X66240Y217224D02*
X69685Y213779D01*
X66240Y217224D02*
Y232148D01*
X76240D02*
X76309Y232080D01*
X50588Y210423D02*
X55054D01*
X96457Y278071D02*
X96457Y278071D01*
Y274803D02*
X96457Y274803D01*
X96457Y274803D02*
Y278071D01*
X96348Y274695D02*
X96457Y274803D01*
X86221D02*
X86230Y274793D01*
X86221Y274803D02*
X86221Y274803D01*
X96348Y269535D02*
Y274695D01*
X96240Y269426D02*
X96348Y269535D01*
X86230Y269436D02*
Y274793D01*
Y269436D02*
X86240Y269426D01*
X233079Y46708D02*
X233532Y46255D01*
X235502Y28193D02*
X235502Y28193D01*
X233532Y28252D02*
Y34689D01*
Y46255D01*
X233473Y28193D02*
X235502D01*
X230835Y28252D02*
X233532D01*
X230776Y28193D02*
X230835Y28252D01*
X118571Y30358D02*
X119949Y28980D01*
X118571Y30358D02*
Y35476D01*
X119949Y28980D02*
X120146D01*
X124872D01*
X124811Y41716D02*
Y46708D01*
X118571Y35476D02*
X124811Y41716D01*
X87803Y53303D02*
Y54976D01*
X84713Y50212D02*
X87803Y53303D01*
X84713Y37909D02*
Y50212D01*
X83933Y53114D02*
X84171D01*
X78504Y47685D02*
X83933Y53114D01*
X84606Y53549D02*
Y54976D01*
X77362Y47685D02*
X78504D01*
X84171Y53114D02*
X84606Y53549D01*
X75390Y45713D02*
X77362Y47685D01*
X190756Y66683D02*
Y66787D01*
X188368Y65510D02*
X189583D01*
X181306Y62062D02*
X184921D01*
X189583Y65510D02*
X190756Y66683D01*
X184921Y62062D02*
X188368Y65510D01*
X124872Y28980D02*
X124872Y28981D01*
X71130Y5949D02*
X76445D01*
X65815Y5752D02*
X66012Y5949D01*
X60697Y5752D02*
X65815D01*
X81504Y29385D02*
X81701Y29189D01*
X81504Y29385D02*
Y34503D01*
Y34700D01*
X84713Y37909D01*
X90351Y77996D02*
X93689D01*
X90166Y77811D02*
X90351Y77996D01*
X69359Y45713D02*
X75390D01*
X76189Y41393D02*
X76200Y41382D01*
X81170D01*
X71721Y61067D02*
X71766Y61112D01*
X76144D01*
X76189Y61157D01*
X169495Y66196D02*
Y75054D01*
X172055Y77614D01*
X172508Y70541D02*
Y70910D01*
X172054Y66196D02*
Y70087D01*
X172508Y70541D01*
X166543Y67967D02*
Y77811D01*
Y67967D02*
X166936Y67574D01*
Y66196D02*
Y67574D01*
X172055Y77614D02*
Y77811D01*
X190242Y79112D02*
X190756Y78598D01*
X186620Y79112D02*
X190242D01*
X190756Y61078D02*
Y61275D01*
X189181Y59503D02*
X190756Y61078D01*
X181306Y59503D02*
X189181D01*
X190756Y72496D02*
Y72693D01*
X184457Y66196D02*
X190756Y72496D01*
X177172Y66196D02*
X184457D01*
X122509Y22939D02*
Y23862D01*
Y22939D02*
X122884Y22564D01*
X120146Y23862D02*
X124872D01*
X124872Y23863D01*
X120146Y23862D02*
X120146Y23862D01*
X230776Y23075D02*
X230776Y23075D01*
X235502D01*
X235502Y23075D01*
X233413Y16185D02*
Y22976D01*
X156307Y53795D02*
X156897Y54385D01*
X162802D01*
X157857Y56944D02*
X162802D01*
X156282Y58519D02*
X157857Y56944D01*
X155914Y58519D02*
X156282D01*
X159059Y59692D02*
X162613D01*
X162802Y59503D01*
X156103Y62648D02*
X159059Y59692D01*
X154421Y64342D02*
X156103Y62661D01*
Y62648D02*
Y62661D01*
X154028Y64342D02*
X154421D01*
X154929Y70724D02*
X155303Y70350D01*
X162802Y65410D02*
X162802Y62062D01*
X155303Y70350D02*
X157862D01*
X162802Y65410D01*
X122884Y16393D02*
Y22564D01*
X122264Y23184D02*
X122884Y22564D01*
D20*
X558081Y169021D02*
Y169789D01*
X562915Y174623D01*
X564012D01*
X557930Y168870D02*
X558081Y169021D01*
X546850Y189535D02*
Y194095D01*
Y189535D02*
X546888Y189497D01*
Y185024D02*
Y189497D01*
X541486Y179623D02*
X546888Y185024D01*
X540390Y179623D02*
X541486D01*
X564012D02*
X564110Y179525D01*
X563602Y179525D02*
X563701Y179426D01*
X556320Y179525D02*
X563602D01*
X551530Y174735D02*
X556320Y179525D01*
X550067Y174735D02*
X551530D01*
X541179D02*
X550067D01*
X541067Y174623D02*
X541179Y174735D01*
X550067Y169122D02*
Y174735D01*
X389370Y193307D02*
X389389Y193289D01*
Y189910D02*
Y193289D01*
Y189910D02*
X389407Y189891D01*
Y185418D02*
Y189891D01*
X384006Y180017D02*
X389407Y185418D01*
X382909Y180017D02*
X384006D01*
X398245Y172835D02*
X400427Y175017D01*
X406531D01*
X398031Y172835D02*
X398245D01*
X406531Y180017D02*
X406630Y179918D01*
X406122Y179918D02*
X406220Y179820D01*
X398840Y179918D02*
X406122D01*
X394050Y175128D02*
X398840Y179918D01*
X392587Y175128D02*
X394050D01*
X383698D02*
X392587D01*
Y169515D02*
X392986Y169117D01*
X383587Y175017D02*
X383698Y175128D01*
X392587Y169515D02*
Y175128D01*
X231693Y193182D02*
X231711Y193164D01*
Y189785D02*
Y193164D01*
Y189785D02*
X231730Y189766D01*
Y185293D02*
Y189766D01*
X226328Y179892D02*
X231730Y185293D01*
X225232Y179892D02*
X226328D01*
X240567Y172710D02*
X242749Y174892D01*
X248854D01*
X240354Y172710D02*
X240567D01*
X248854Y179892D02*
X248952Y179793D01*
X248444Y179793D02*
X248543Y179695D01*
X241162Y179793D02*
X248444D01*
X236372Y175004D02*
X241162Y179793D01*
X234909Y175004D02*
X236372D01*
X226021D02*
X234909D01*
Y169390D02*
X235308Y168992D01*
X225909Y174892D02*
X226021Y175004D01*
X234909Y169390D02*
Y175004D01*
X73622Y192913D02*
X73641Y192895D01*
Y189516D02*
Y192895D01*
Y189516D02*
X73659Y189497D01*
Y185024D02*
Y189497D01*
X68258Y179623D02*
X73659Y185024D01*
X67161Y179623D02*
X68258D01*
X82497Y172441D02*
X84679Y174623D01*
X90783D01*
X82284Y172441D02*
X82497D01*
X90783Y179623D02*
X90882Y179525D01*
X83092Y179525D02*
X90374D01*
X90472Y179426D01*
X78302Y174735D02*
X83092Y179525D01*
X76839Y174735D02*
X78302D01*
X67839Y174623D02*
X67950Y174735D01*
X76839Y169122D02*
Y174735D01*
Y169122D02*
X77237Y168723D01*
X67950Y174735D02*
X76839D01*
X257528Y56551D02*
X264969D01*
D21*
X56541Y269426D02*
X61240D01*
X56299Y285433D02*
X62992Y292126D01*
X56406Y269291D02*
X56541Y269426D01*
X56299Y269291D02*
X56406D01*
X56299D02*
Y285433D01*
X214173Y285505D02*
X221062Y292395D01*
X219301Y269685D02*
X219311Y269695D01*
X214173Y269685D02*
Y285505D01*
Y269685D02*
X219301D01*
X529528Y285433D02*
X536221Y292126D01*
X529528Y269291D02*
X529634D01*
X529769Y269426D02*
X534469D01*
X529528Y269291D02*
Y285433D01*
X529634Y269291D02*
X529769Y269426D01*
X372441Y286221D02*
X378740Y292520D01*
X372441Y269685D02*
Y286221D01*
Y269685D02*
X372548D01*
X372682Y269820D02*
X376988D01*
X372548Y269685D02*
X372682Y269820D01*
X229134Y305978D02*
Y310630D01*
X228937Y305781D02*
X229134Y305978D01*
X387008Y306299D02*
Y311024D01*
X386614Y305906D02*
X387008Y306299D01*
X382087Y310386D02*
X382677Y309796D01*
X382087Y310386D02*
Y310755D01*
X382677Y305906D02*
Y309796D01*
X407087Y282359D02*
Y283492D01*
X405311Y284134D02*
X407087Y282359D01*
Y278346D02*
Y282359D01*
X391338Y284134D02*
X405311D01*
X564567Y277953D02*
Y282283D01*
X548819Y283740D02*
X563110D01*
X564567Y282283D01*
Y282781D02*
X565720Y283934D01*
X569685D01*
X564518Y269476D02*
Y277904D01*
X564567Y277953D01*
X569685Y283934D02*
Y284134D01*
X564468Y269426D02*
X564518Y269476D01*
X406988Y269820D02*
X407037Y269869D01*
Y278297D01*
X407087Y278346D01*
Y283492D02*
X408240Y284646D01*
X412205D01*
Y284528D02*
Y284646D01*
X249311Y278338D02*
X249606Y278634D01*
Y283752D02*
X250375Y284521D01*
X249311Y269892D02*
Y278338D01*
Y269892D02*
X249409Y269794D01*
X249606Y278634D02*
Y283858D01*
X239173Y284009D02*
X239259Y283923D01*
X249542D01*
X249606Y283858D01*
X250375Y284521D02*
X254527D01*
X233661Y284009D02*
X239173D01*
X233378Y284292D02*
X233661Y284009D01*
X91289Y278691D02*
X91339Y278740D01*
X91289Y269476D02*
Y278691D01*
X91339Y278740D02*
Y282571D01*
X91240Y269426D02*
X91289Y269476D01*
X91339Y283358D02*
X92233Y284252D01*
X91339Y282571D02*
Y283358D01*
X90445Y283465D02*
X91339Y282571D01*
X92233Y284252D02*
X96457D01*
X81378Y283465D02*
X90445D01*
X254527Y284403D02*
Y284521D01*
X81102Y283740D02*
X81378Y283465D01*
X96457Y284134D02*
Y284252D01*
X101969Y284528D02*
X102106Y284390D01*
X106161D01*
X106299Y284252D01*
X96457Y284134D02*
X101968D01*
X75590Y283740D02*
X81102D01*
X75307Y284024D02*
X75590Y283740D01*
X545079Y310063D02*
Y310361D01*
X544095Y309079D02*
X545079Y310063D01*
X544095Y305512D02*
Y309079D01*
X539567Y309993D02*
Y310361D01*
Y309993D02*
X540158Y309402D01*
Y305512D02*
Y309402D01*
X71851Y310063D02*
Y310361D01*
X70866Y309079D02*
X71851Y310063D01*
X70866Y305512D02*
Y309079D01*
X66339Y309993D02*
Y310361D01*
Y309993D02*
X66929Y309402D01*
Y305512D02*
Y309402D01*
X224410Y310261D02*
Y310630D01*
Y310261D02*
X225000Y309671D01*
Y305781D02*
Y309671D01*
X539468Y288976D02*
X539478Y288966D01*
X575197Y278465D02*
X575335Y278602D01*
X575197Y284528D02*
X575335Y284390D01*
X540158Y294193D02*
Y295079D01*
X539094Y293130D02*
X540158Y294193D01*
X539094Y292126D02*
Y293130D01*
Y288976D02*
Y292126D01*
X545157Y288976D02*
Y293130D01*
X544095Y294193D02*
Y295079D01*
Y294193D02*
X545157Y293130D01*
X539478Y269436D02*
Y288966D01*
X539468Y269426D02*
X539478Y269436D01*
X544813Y288632D02*
X545157Y288976D01*
X544813Y269771D02*
Y288632D01*
X544468Y269426D02*
X544813Y269771D01*
X569685Y284134D02*
X575197D01*
X536221Y292126D02*
X539094D01*
X570748Y278465D02*
X575197D01*
X570472Y278740D02*
X570748Y278465D01*
X575335Y284390D02*
X579390D01*
X579528Y284252D01*
Y278740D02*
X579921Y278346D01*
X579390Y278602D02*
X579528Y278740D01*
X575335Y278602D02*
X579390D01*
X579921Y278346D02*
X586221D01*
X549144Y269751D02*
Y277352D01*
Y269751D02*
X549469Y269426D01*
X548819Y277677D02*
X554331D01*
X548819D02*
X549144Y277352D01*
X381988Y289370D02*
X381998Y289360D01*
X417717Y278858D02*
X417854Y278996D01*
X417717Y284921D02*
X417854Y284784D01*
X382677Y294587D02*
Y295472D01*
X381614Y293524D02*
X382677Y294587D01*
X381614Y292520D02*
Y293524D01*
Y289370D02*
Y292520D01*
X387677Y289370D02*
Y293524D01*
X386614Y294587D02*
Y295472D01*
Y294587D02*
X387677Y293524D01*
X381998Y269830D02*
Y289360D01*
X381988Y269820D02*
X381998Y269830D01*
X387333Y289025D02*
X387677Y289370D01*
X387333Y270165D02*
Y289025D01*
X386988Y269820D02*
X387333Y270165D01*
X412205Y284528D02*
X417717D01*
X378740Y292520D02*
X381614D01*
X413268Y278858D02*
X417717D01*
X412992Y279134D02*
X413268Y278858D01*
X417854Y284784D02*
X421910D01*
X422047Y284646D01*
Y279134D02*
X422441Y278740D01*
X421910Y278996D02*
X422047Y279134D01*
X417854Y278996D02*
X421910D01*
X422441Y278740D02*
X428740D01*
X391663Y270145D02*
Y277746D01*
Y270145D02*
X391988Y269820D01*
X391338Y278071D02*
X396850D01*
X391338D02*
X391663Y277746D01*
X224310Y289245D02*
X224320Y289235D01*
X260039Y278733D02*
X260177Y278871D01*
X260039Y284796D02*
X260177Y284659D01*
X225000Y294462D02*
Y295347D01*
X223937Y293399D02*
X225000Y294462D01*
X223937Y292395D02*
Y293399D01*
Y289245D02*
Y292395D01*
X230000Y289245D02*
Y293399D01*
X228937Y294462D02*
Y295347D01*
Y294462D02*
X230000Y293399D01*
X224320Y269705D02*
Y289235D01*
X224311Y269695D02*
X224320Y269705D01*
X229655Y288901D02*
X230000Y289245D01*
X229655Y270040D02*
Y288901D01*
X229311Y269695D02*
X229655Y270040D01*
X254527Y284403D02*
X260039D01*
X221062Y292395D02*
X223937D01*
X255590Y278733D02*
X260039D01*
X255314Y279009D02*
X255590Y278733D01*
X260177Y284659D02*
X264232D01*
X264370Y284521D01*
Y279009D02*
X264763Y278615D01*
X264232Y278871D02*
X264370Y279009D01*
X260177Y278871D02*
X264232D01*
X264763Y278615D02*
X271063D01*
X233986Y270020D02*
Y277621D01*
Y270020D02*
X234311Y269695D01*
X233661Y277946D02*
X239173D01*
X233661D02*
X233986Y277621D01*
X106299Y278740D02*
X106693Y278346D01*
X106161Y278602D02*
X106299Y278740D01*
X106693Y278346D02*
X112992D01*
X66240Y288976D02*
X66250Y288966D01*
X102106Y278602D02*
X106161D01*
X101969Y278465D02*
X102106Y278602D01*
X71929Y288976D02*
Y293130D01*
X70866Y294193D02*
Y295079D01*
Y294193D02*
X71929Y293130D01*
X66929Y294193D02*
Y295079D01*
X65866Y293130D02*
X66929Y294193D01*
X65866Y292126D02*
Y293130D01*
Y288976D02*
Y292126D01*
X66250Y269436D02*
Y288966D01*
X66240Y269426D02*
X66250Y269436D01*
X71585Y288632D02*
X71929Y288976D01*
X71585Y269771D02*
Y288632D01*
X71240Y269426D02*
X71585Y269771D01*
X62992Y292126D02*
X65866D01*
X97520Y278465D02*
X101969D01*
X97244Y278740D02*
X97520Y278465D01*
X75915Y269751D02*
Y277352D01*
Y269751D02*
X76240Y269426D01*
X75590Y277677D02*
X81102D01*
X75590D02*
X75915Y277352D01*
D26*
X27126Y118780D02*
D03*
Y108780D02*
D03*
X51614Y118780D02*
D03*
Y108780D02*
D03*
Y79646D02*
D03*
Y89646D02*
D03*
X27126Y79646D02*
D03*
Y89646D02*
D03*
D27*
X382677Y305906D02*
D03*
X228937Y305781D02*
D03*
X540158Y305512D02*
D03*
Y295079D02*
D03*
X544095D02*
D03*
Y305512D02*
D03*
X382677Y295472D02*
D03*
X386614D02*
D03*
Y305906D02*
D03*
X228937Y295347D02*
D03*
X225000D02*
D03*
Y305781D02*
D03*
X70866Y295079D02*
D03*
X66929D02*
D03*
Y305512D02*
D03*
X70866D02*
D03*
D28*
X575984Y175000D02*
D03*
Y180118D02*
D03*
X528339Y179749D02*
D03*
Y174631D02*
D03*
X539831Y192760D02*
D03*
Y197878D02*
D03*
X564241Y192760D02*
D03*
Y197878D02*
D03*
X235502Y28193D02*
D03*
X230776Y28193D02*
D03*
X76189Y76433D02*
D03*
Y51630D02*
D03*
X91012Y197878D02*
D03*
X102945Y174631D02*
D03*
Y179749D02*
D03*
X91012Y192760D02*
D03*
X66603Y197878D02*
D03*
Y192760D02*
D03*
X55110Y174631D02*
D03*
Y179749D02*
D03*
X382351Y198272D02*
D03*
X406760D02*
D03*
X418693Y180143D02*
D03*
X406760Y193154D02*
D03*
X418693Y175025D02*
D03*
X382351Y193154D02*
D03*
X370858Y180143D02*
D03*
Y175025D02*
D03*
X224673Y198147D02*
D03*
X249083D02*
D03*
X261015Y174900D02*
D03*
Y180018D02*
D03*
X249083Y193029D02*
D03*
X213181Y174900D02*
D03*
X224673Y193029D02*
D03*
X213181Y180018D02*
D03*
X235502Y23075D02*
D03*
X230776Y23075D02*
D03*
X124872Y28981D02*
D03*
Y23863D02*
D03*
X120146Y28980D02*
D03*
Y23862D02*
D03*
X60697Y10870D02*
D03*
Y5752D02*
D03*
X76189Y46511D02*
D03*
Y41393D02*
D03*
Y56748D02*
D03*
X81701Y29189D02*
D03*
Y24070D02*
D03*
X76189Y71315D02*
D03*
D29*
X549213Y283740D02*
D03*
Y277677D02*
D03*
X575197Y278465D02*
D03*
Y284528D02*
D03*
X570086Y174355D02*
D03*
Y180418D02*
D03*
X534638D02*
D03*
Y174355D02*
D03*
X417717Y278858D02*
D03*
Y284921D02*
D03*
X391732Y284134D02*
D03*
Y278071D02*
D03*
X260039Y284796D02*
D03*
Y278733D02*
D03*
X234055Y284009D02*
D03*
Y277946D02*
D03*
X101969Y284528D02*
D03*
Y278465D02*
D03*
X75984Y283740D02*
D03*
Y277677D02*
D03*
X61409Y174355D02*
D03*
Y180418D02*
D03*
X96858Y174355D02*
D03*
Y180418D02*
D03*
X412606Y180812D02*
D03*
Y174749D02*
D03*
X377157Y180812D02*
D03*
Y174749D02*
D03*
X254929Y174624D02*
D03*
Y180687D02*
D03*
X219480Y174624D02*
D03*
Y180687D02*
D03*
D30*
X570472Y278740D02*
D03*
Y284252D02*
D03*
X554724Y277953D02*
D03*
Y283465D02*
D03*
X579528Y278740D02*
D03*
Y284252D02*
D03*
X253551Y41984D02*
D03*
X258669D02*
D03*
X397244Y278346D02*
D03*
Y283858D02*
D03*
X412992Y279134D02*
D03*
Y284646D02*
D03*
X239566Y278222D02*
D03*
Y283733D02*
D03*
X255314Y279009D02*
D03*
Y284521D02*
D03*
X97244Y278740D02*
D03*
Y284252D02*
D03*
X81496Y277953D02*
D03*
Y283465D02*
D03*
X106299Y278740D02*
D03*
Y284252D02*
D03*
X422047Y284646D02*
D03*
X264370Y284521D02*
D03*
X422047Y279134D02*
D03*
X264370Y279009D02*
D03*
X253551Y47496D02*
D03*
X258669D02*
D03*
D31*
X559469Y232148D02*
D03*
X544468D02*
D03*
X539468D02*
D03*
X554468Y269426D02*
D03*
X549469Y232148D02*
D03*
Y269426D02*
D03*
X569468D02*
D03*
X559469D02*
D03*
X554468Y232148D02*
D03*
X569468D02*
D03*
X544468Y269426D02*
D03*
X564468D02*
D03*
X539468D02*
D03*
X534469D02*
D03*
Y232148D02*
D03*
X564468D02*
D03*
X391988Y232542D02*
D03*
X234311Y232417D02*
D03*
X76240Y232148D02*
D03*
X406988Y232542D02*
D03*
X376988D02*
D03*
X249311Y232417D02*
D03*
X219311D02*
D03*
X91240Y232148D02*
D03*
X61240D02*
D03*
X411988Y269820D02*
D03*
X406988D02*
D03*
X401988D02*
D03*
X396988D02*
D03*
X391988D02*
D03*
X386988D02*
D03*
X381988D02*
D03*
X376988D02*
D03*
X381988Y232542D02*
D03*
X386988D02*
D03*
X396988D02*
D03*
X401988D02*
D03*
X411988D02*
D03*
X244311Y232417D02*
D03*
X239311Y269695D02*
D03*
X244311D02*
D03*
X254311D02*
D03*
X219311D02*
D03*
X224311D02*
D03*
X249311D02*
D03*
X229311Y232417D02*
D03*
X224311D02*
D03*
X229311Y269695D02*
D03*
X239311Y232417D02*
D03*
X254311D02*
D03*
X234311Y269695D02*
D03*
X71240Y232148D02*
D03*
X81240Y269426D02*
D03*
X66240Y232148D02*
D03*
X86240D02*
D03*
X76240Y269426D02*
D03*
X96240D02*
D03*
X86240D02*
D03*
X81240Y232148D02*
D03*
X96240D02*
D03*
X71240Y269426D02*
D03*
X66240D02*
D03*
X61240D02*
D03*
X91240D02*
D03*
D32*
X575197Y224803D02*
D03*
X569685D02*
D03*
X552362Y190551D02*
D03*
X546850D02*
D03*
X523615Y210625D02*
D03*
X518103D02*
D03*
X366135Y211018D02*
D03*
X208457Y210893D02*
D03*
X50386Y210625D02*
D03*
X417717Y225197D02*
D03*
X394919Y189891D02*
D03*
X260039Y225072D02*
D03*
X360623Y211018D02*
D03*
X202945Y210893D02*
D03*
X237242Y189766D02*
D03*
X246858Y66393D02*
D03*
Y71511D02*
D03*
X270480Y56551D02*
D03*
X150795Y53795D02*
D03*
X101969Y224803D02*
D03*
X79171Y189497D02*
D03*
X90756Y71905D02*
D03*
X44875Y210625D02*
D03*
X95874Y49464D02*
D03*
X40157Y6299D02*
D03*
X389407Y189891D02*
D03*
X252370Y66393D02*
D03*
X231730Y189766D02*
D03*
X73659Y189497D02*
D03*
X252370Y71511D02*
D03*
X412205Y225197D02*
D03*
X254527Y225072D02*
D03*
X96457Y224803D02*
D03*
X85244Y71905D02*
D03*
X45669Y6299D02*
D03*
X264969Y56551D02*
D03*
X156307Y53795D02*
D03*
X90362Y49464D02*
D03*
D33*
X567717Y213779D02*
D03*
X579981Y144036D02*
D03*
X525650Y144036D02*
D03*
X543532D02*
D03*
X561414D02*
D03*
X542913Y213779D02*
D03*
X422501Y144430D02*
D03*
X368169Y144430D02*
D03*
X264823Y144305D02*
D03*
X210492Y144305D02*
D03*
X106753Y144036D02*
D03*
X52421Y144036D02*
D03*
X410236Y214173D02*
D03*
X252559Y214048D02*
D03*
X94488Y213779D02*
D03*
X70303Y144036D02*
D03*
X88186D02*
D03*
X69685Y213779D02*
D03*
X385433Y214173D02*
D03*
X403934Y144430D02*
D03*
X386052D02*
D03*
X227755Y214048D02*
D03*
X246256Y144305D02*
D03*
X228374D02*
D03*
D34*
X545157Y288976D02*
D03*
X539094D02*
D03*
X555630Y151969D02*
D03*
X561693D02*
D03*
X542638D02*
D03*
X548701D02*
D03*
X385157Y152362D02*
D03*
X404213D02*
D03*
X246535Y152237D02*
D03*
X227480D02*
D03*
X88465Y151969D02*
D03*
X69409D02*
D03*
X381614Y289370D02*
D03*
X387677D02*
D03*
X223937Y289245D02*
D03*
X230000D02*
D03*
X71929Y288976D02*
D03*
X65866D02*
D03*
X82402Y151969D02*
D03*
X75472D02*
D03*
X240472Y152237D02*
D03*
X398150Y152362D02*
D03*
X233543Y152237D02*
D03*
X391220Y152362D02*
D03*
D35*
X540390Y184623D02*
D03*
X67161D02*
D03*
X382909Y185017D02*
D03*
X225232Y184892D02*
D03*
D36*
X540390Y169623D02*
D03*
X564012D02*
D03*
Y184623D02*
D03*
X540390Y174623D02*
D03*
X564012Y179623D02*
D03*
Y174623D02*
D03*
X540390Y179623D02*
D03*
X406531Y180017D02*
D03*
X248854Y179892D02*
D03*
X382909Y175017D02*
D03*
X90783Y179623D02*
D03*
X225232Y174892D02*
D03*
X67161Y174623D02*
D03*
X406531Y175017D02*
D03*
X248854Y174892D02*
D03*
X90783Y174623D02*
D03*
X382909Y180017D02*
D03*
X225232Y179892D02*
D03*
X67161Y179623D02*
D03*
Y169623D02*
D03*
X90783D02*
D03*
Y184623D02*
D03*
X406531Y185017D02*
D03*
Y170017D02*
D03*
X382909D02*
D03*
X248854Y169892D02*
D03*
Y184892D02*
D03*
X225232Y169892D02*
D03*
D37*
X548689Y158311D02*
D03*
X555776D02*
D03*
X82547D02*
D03*
X75461D02*
D03*
X398295Y158704D02*
D03*
X391209D02*
D03*
X240618Y158580D02*
D03*
X233531D02*
D03*
D38*
X521031Y228064D02*
D03*
Y216647D02*
D03*
X363551Y217040D02*
D03*
X205873Y216915D02*
D03*
X47803Y216647D02*
D03*
X363551Y228458D02*
D03*
X205873Y228333D02*
D03*
X47803Y228064D02*
D03*
D39*
X560303Y158311D02*
D03*
X565422D02*
D03*
X544162Y158311D02*
D03*
X539044D02*
D03*
X195874Y78598D02*
D03*
X177173Y77811D02*
D03*
X161425Y77811D02*
D03*
X195874Y66787D02*
D03*
Y61275D02*
D03*
X195874Y72693D02*
D03*
X149811Y70724D02*
D03*
X149811Y64031D02*
D03*
X75590Y35039D02*
D03*
X87075Y158311D02*
D03*
X92193D02*
D03*
X70933Y158311D02*
D03*
X65815D02*
D03*
X402823Y158705D02*
D03*
X386682Y158705D02*
D03*
X407941Y158705D02*
D03*
X381563Y158705D02*
D03*
X245146Y158580D02*
D03*
X229004Y158580D02*
D03*
X250264Y158580D02*
D03*
X223886Y158580D02*
D03*
X66012Y5949D02*
D03*
X71130D02*
D03*
X190756Y78598D02*
D03*
Y61275D02*
D03*
Y66787D02*
D03*
X190756Y72693D02*
D03*
X172055Y77811D02*
D03*
X80709Y35039D02*
D03*
X90166Y77811D02*
D03*
X85047D02*
D03*
X154929Y64031D02*
D03*
X166543Y77811D02*
D03*
X154929Y70724D02*
D03*
D40*
X206701Y46314D02*
D03*
X214969D02*
D03*
X223236D02*
D03*
X198433D02*
D03*
X190165D02*
D03*
X214969Y38440D02*
D03*
X223236D02*
D03*
X198433D02*
D03*
X206701D02*
D03*
X190165D02*
D03*
X153697Y36078D02*
D03*
X122252Y63637D02*
D03*
X106898D02*
D03*
X114378D02*
D03*
X129732D02*
D03*
X145677Y36078D02*
D03*
Y43952D02*
D03*
X153697D02*
D03*
X122252Y55763D02*
D03*
X129732D02*
D03*
X114378D02*
D03*
X106898D02*
D03*
D41*
X233079Y46708D02*
D03*
X243315D02*
D03*
X124811Y46708D02*
D03*
X135047D02*
D03*
X69103Y16787D02*
D03*
X79339D02*
D03*
D42*
X181306Y56944D02*
D03*
Y51826D02*
D03*
Y54385D02*
D03*
Y59503D02*
D03*
Y62062D02*
D03*
X162802D02*
D03*
Y59503D02*
D03*
Y56944D02*
D03*
Y54385D02*
D03*
Y51826D02*
D03*
D43*
X177172Y47692D02*
D03*
X174613Y66196D02*
D03*
X169495Y47692D02*
D03*
X174613D02*
D03*
X172054D02*
D03*
X177172Y66196D02*
D03*
X172054D02*
D03*
X169495D02*
D03*
X166936D02*
D03*
Y47692D02*
D03*
D44*
X242921Y78598D02*
D03*
X250795D02*
D03*
D45*
X246957Y60291D02*
D03*
Y56551D02*
D03*
X257784Y60291D02*
D03*
Y56551D02*
D03*
Y52811D02*
D03*
X246957D02*
D03*
D46*
X233413Y9886D02*
D03*
X122884Y10094D02*
D03*
X233413Y16185D02*
D03*
X122884Y16393D02*
D03*
D47*
X172054Y56944D02*
D03*
D48*
X154398Y22878D02*
D03*
X166209D02*
D03*
D49*
X75953Y104965D02*
D03*
Y94236D02*
D03*
X101287Y41196D02*
D03*
Y19051D02*
D03*
Y30124D02*
D03*
X56268Y52406D02*
D03*
X56268Y41776D02*
D03*
X27725Y63036D02*
D03*
X56268Y63036D02*
D03*
X27725Y52406D02*
D03*
Y41776D02*
D03*
X56268Y30654D02*
D03*
X27725Y30654D02*
D03*
X64339Y94236D02*
D03*
Y104965D02*
D03*
X39339Y52406D02*
D03*
X44654Y30654D02*
D03*
X39339Y63036D02*
D03*
Y41776D02*
D03*
X44654Y41776D02*
D03*
X44654Y52406D02*
D03*
X44654Y63036D02*
D03*
X39339Y30654D02*
D03*
X89673Y30124D02*
D03*
Y19051D02*
D03*
Y41196D02*
D03*
D50*
X82744Y5949D02*
D03*
X76445D02*
D03*
D51*
X76189Y66905D02*
D03*
Y61157D02*
D03*
D84*
X257855Y71511D02*
D03*
X586221Y278346D02*
D03*
X233532Y34689D02*
D03*
X129339Y10488D02*
D03*
X112992Y278346D02*
D03*
X428740Y278740D02*
D03*
X271063Y278615D02*
D03*
X69359Y45713D02*
D03*
X118571Y35476D02*
D03*
X257154Y86658D02*
D03*
X257548Y80752D02*
D03*
X250461Y86658D02*
D03*
D85*
X84260Y60488D02*
D03*
Y58519D02*
D03*
Y62456D02*
D03*
D86*
X84606Y54976D02*
D03*
Y66000D02*
D03*
D87*
X87803Y54976D02*
D03*
Y66000D02*
D03*
X89772D02*
D03*
Y54976D02*
D03*
D88*
X96268Y55763D02*
D03*
Y65212D02*
D03*
D89*
X190001Y50788D02*
Y55275D01*
X188331Y56944D02*
X190001Y55275D01*
X181306Y56944D02*
X188331D01*
X185789Y53538D02*
X186215D01*
X181306Y54385D02*
X184941D01*
X185789Y53538D01*
D90*
X355455Y340360D02*
D03*
X274466D02*
D03*
X598425D02*
D03*
X517435D02*
D03*
X436445D02*
D03*
X193476D02*
D03*
X112484D02*
D03*
X31496D02*
D03*
D91*
X618425Y365400D02*
D03*
Y325400D02*
D03*
X578425D02*
D03*
Y365400D02*
D03*
X537435D02*
D03*
Y325400D02*
D03*
X497435D02*
D03*
Y365400D02*
D03*
X456445D02*
D03*
Y325400D02*
D03*
X416445D02*
D03*
Y365400D02*
D03*
X375455D02*
D03*
Y325400D02*
D03*
X335455D02*
D03*
Y365400D02*
D03*
X294466D02*
D03*
Y325400D02*
D03*
X254466D02*
D03*
Y365400D02*
D03*
X213476D02*
D03*
Y325400D02*
D03*
X173476D02*
D03*
Y365400D02*
D03*
X92484D02*
D03*
Y325400D02*
D03*
X132484D02*
D03*
Y365400D02*
D03*
X11496D02*
D03*
Y325400D02*
D03*
X51496D02*
D03*
Y365400D02*
D03*
D92*
X355413Y8071D02*
D03*
X416339D02*
D03*
D93*
X39555Y16185D02*
D03*
X49556D02*
D03*
D94*
X373406Y54852D02*
D03*
X368406Y44852D02*
D03*
X388405D02*
D03*
X383405Y54852D02*
D03*
X393406D02*
D03*
X378405Y44852D02*
D03*
X403406Y54852D02*
D03*
X398406Y44852D02*
D03*
D95*
X13780Y218504D02*
D03*
X616142Y13780D02*
D03*
Y218504D02*
D03*
X13780Y13780D02*
D03*
D96*
X408425Y19852D02*
D03*
X363425D02*
D03*
D97*
X186215Y53538D02*
D03*
X514629Y224995D02*
D03*
X356362Y225782D02*
D03*
X198881D02*
D03*
X106506Y224945D02*
D03*
X264380D02*
D03*
X421860D02*
D03*
X579734Y224551D02*
D03*
X590551Y143307D02*
D03*
X514173D02*
D03*
X433071Y144488D02*
D03*
X356693D02*
D03*
X199213Y144095D02*
D03*
X275590D02*
D03*
X523228Y189370D02*
D03*
X522783Y203543D02*
D03*
X366929Y190945D02*
D03*
X366483Y205118D02*
D03*
X209842Y188583D02*
D03*
X209397Y202755D02*
D03*
X198819Y210630D02*
D03*
X356299Y211024D02*
D03*
X514173Y210630D02*
D03*
X56299Y269291D02*
D03*
X214173Y269685D02*
D03*
X529528Y269291D02*
D03*
X372441Y269685D02*
D03*
X229134Y310630D02*
D03*
X387008Y311024D02*
D03*
X382087Y310755D02*
D03*
X564567Y277953D02*
D03*
X407087Y278346D02*
D03*
X249606Y278740D02*
D03*
X91339D02*
D03*
X545079Y310361D02*
D03*
X539567D02*
D03*
X71851D02*
D03*
X66339D02*
D03*
X224410Y310630D02*
D03*
X243307Y164173D02*
D03*
X401968Y164567D02*
D03*
X559055Y164173D02*
D03*
X394625Y193862D02*
D03*
X237145D02*
D03*
X563639Y169783D02*
D03*
X569685Y167323D02*
D03*
X552360Y194095D02*
D03*
X557930Y168870D02*
D03*
X546850Y194095D02*
D03*
X551642Y174846D02*
D03*
X550067Y169335D02*
D03*
X564241Y202012D02*
D03*
X544488Y225984D02*
D03*
X530709Y230315D02*
D03*
X549998Y223016D02*
D03*
X528282Y210423D02*
D03*
X559449Y274803D02*
D03*
X569685D02*
D03*
X389370Y193307D02*
D03*
X398031Y172835D02*
D03*
X394162Y175240D02*
D03*
X392587Y169728D02*
D03*
X406760Y202406D02*
D03*
X387008Y226378D02*
D03*
X373228Y230709D02*
D03*
X392517Y223410D02*
D03*
X370801Y210816D02*
D03*
X401968Y275197D02*
D03*
X412205D02*
D03*
X231693Y193182D02*
D03*
X240354Y172710D02*
D03*
X236484Y175115D02*
D03*
X234909Y169603D02*
D03*
X249083Y202281D02*
D03*
X229330Y226253D02*
D03*
X215551Y230584D02*
D03*
X234840Y223285D02*
D03*
X213124Y210691D02*
D03*
X244291Y275072D02*
D03*
X254527D02*
D03*
X76770Y223016D02*
D03*
X73622Y192913D02*
D03*
X82284Y172441D02*
D03*
X78414Y174846D02*
D03*
X76839Y169335D02*
D03*
X91012Y202012D02*
D03*
X71260Y225984D02*
D03*
X57480Y230315D02*
D03*
X55054Y210423D02*
D03*
X86221Y274803D02*
D03*
X96457D02*
D03*
X233138Y50831D02*
D03*
X214959Y50788D02*
D03*
X223465D02*
D03*
X206451D02*
D03*
X198662D02*
D03*
X190001D02*
D03*
X564567Y224803D02*
D03*
X407480Y225590D02*
D03*
X249606Y224803D02*
D03*
X238032Y78741D02*
D03*
X199674Y78390D02*
D03*
Y72615D02*
D03*
X177196Y82952D02*
D03*
X157548Y77602D02*
D03*
X177233Y72878D02*
D03*
X149674Y75634D02*
D03*
X243150Y66142D02*
D03*
X273859Y56693D02*
D03*
X243150Y71260D02*
D03*
X199674Y61067D02*
D03*
Y66841D02*
D03*
X242757Y60237D02*
D03*
Y56693D02*
D03*
X258899Y38583D02*
D03*
X253781D02*
D03*
X222678Y33465D02*
D03*
X227984Y9724D02*
D03*
X205664Y33465D02*
D03*
X214171D02*
D03*
X197875D02*
D03*
X176516Y60956D02*
D03*
X172103Y56913D02*
D03*
X176516Y53279D02*
D03*
X167855D02*
D03*
Y60956D02*
D03*
X150818Y58149D02*
D03*
X174170Y42563D02*
D03*
X170626D02*
D03*
X189214Y33465D02*
D03*
X182745Y38232D02*
D03*
X160303Y35476D02*
D03*
X159516Y26421D02*
D03*
X154792Y31539D02*
D03*
X149213Y22835D02*
D03*
X159516Y21303D02*
D03*
X154129Y9762D02*
D03*
X91339Y225590D02*
D03*
X92913Y151969D02*
D03*
X89309Y163823D02*
D03*
X117186Y144332D02*
D03*
X115815Y68941D02*
D03*
X108335D02*
D03*
X112666D02*
D03*
X128020D02*
D03*
X131170D02*
D03*
X120540D02*
D03*
X123689D02*
D03*
X80323Y96019D02*
D03*
Y91689D02*
D03*
Y107092D02*
D03*
Y102761D02*
D03*
X94555Y72091D02*
D03*
X105185Y68941D02*
D03*
X79134Y192913D02*
D03*
X52429Y204374D02*
D03*
X64567Y151969D02*
D03*
X52875Y190201D02*
D03*
X40945Y210630D02*
D03*
X41732Y224410D02*
D03*
X42587Y143744D02*
D03*
X25606Y93646D02*
D03*
X31118D02*
D03*
X76051Y80752D02*
D03*
X29989Y72091D02*
D03*
X60638Y65704D02*
D03*
X16996Y88626D02*
D03*
X17390Y78784D02*
D03*
X24477Y72091D02*
D03*
X23355Y65583D02*
D03*
X146130Y63823D02*
D03*
X99637Y49487D02*
D03*
X96918Y43744D02*
D03*
Y39413D02*
D03*
X139831Y35476D02*
D03*
X145343Y31539D02*
D03*
X101642Y11461D02*
D03*
X129558Y5787D02*
D03*
X118141Y9724D02*
D03*
X96918Y21599D02*
D03*
Y32671D02*
D03*
Y28341D02*
D03*
Y17268D02*
D03*
X87329Y5738D02*
D03*
X72114Y51618D02*
D03*
X60638Y61374D02*
D03*
X60638Y54582D02*
D03*
Y50252D02*
D03*
Y43509D02*
D03*
X23355Y61252D02*
D03*
Y54510D02*
D03*
Y50180D02*
D03*
X71653Y35039D02*
D03*
X60638Y39179D02*
D03*
Y32437D02*
D03*
Y28106D02*
D03*
X23355Y43438D02*
D03*
Y39107D02*
D03*
X23355Y32315D02*
D03*
Y27985D02*
D03*
X37008Y6299D02*
D03*
X27590Y22716D02*
D03*
X252117Y61682D02*
D03*
X166209Y42169D02*
D03*
X102036Y53980D02*
D03*
X93689Y77996D02*
D03*
X72114Y56736D02*
D03*
X71721Y61067D02*
D03*
X81170Y41382D02*
D03*
X172508Y70910D02*
D03*
X186620Y79112D02*
D03*
X155914Y58519D02*
D03*
D98*
X32283Y113779D02*
D03*
X26772D02*
D03*
X20866D02*
D03*
X31890Y84646D02*
D03*
X22047D02*
D03*
X26772D02*
D03*
D99*
X89810Y60488D02*
D03*
X87555D02*
D03*
M02*
