M48
;Layer_Color=9474304
;FILE_FORMAT=2:4
INCH,TZ
;TYPE=PLATED
T01F00S00C0.0118
T02F00S00C0.0157
T03F00S00C0.0197
T04F00S00C0.0354
T05F00S00C0.0400
T06F00S00C0.0531
T07F00S00C0.0630
T08F00S00C0.0886
;TYPE=NON_PLATED
T09F00S00C0.1280
T10F00S00C0.1339
%
T01
X3701Y630
X2759Y2272
X2335Y2798
Y3232
X2335Y3911
X6064Y3918
Y3244
Y2811
X7165Y3504
X9692Y3267
Y2834
Y2160
Y1727
X8733Y574
X9692Y3941
X10164Y1146
X11814Y972
X12956Y579
X15413Y976
X15952Y2130
Y2642
X16030Y3548
X15479Y3154
X14534
X13983Y3548
X14921Y2283
X18274Y3823
X18921Y3346
X19787
X20566
X21417
X22268
X22798Y972
X25378Y3858
X25890
X59055Y14331
X56968Y16732
X56364Y16978
X55793Y16887
X55906Y16417
X55007Y16933
X55164Y17485
X55236Y19409
X54685
X52323Y18937
X51417Y14331
X43307Y14449
X40197Y16457
X39803Y17283
X39416Y17524
X39259Y16973
X39463Y19386
X38937Y19331
X36693Y19094
X35669Y14449
X27559Y14409
X27386Y5669
X25212Y6168
X24276Y6024
Y5669
X24315Y6614
Y7126
X23803Y7874
X23314Y5083
X22347Y5079
X21496
X20645
X19866
X19000
X18621Y5354
X17652Y5328
Y6096
X17210Y5691
X16786Y5328
Y6096
X15591Y5852
X15082Y5815
X14613Y6382
X14967Y7563
X15755Y7760
X17251Y7091
X17723Y7288
X17720Y8295
X18662Y7911
X19967Y7839
Y7262
Y6684
Y6107
X17417Y4256
X17063
X16621Y4217
X13117Y6894
X12802
X12369
X12054
X11582
X11267
X10833
X10519
X10204Y5398
X9964Y4949
X11719Y14433
X19921Y14409
X20984Y18858
X23169Y19318
X23714Y19386
X23648Y17512
X24035Y17271
X23491Y16960
X24331Y16417
X8931Y16382
X9291Y15197
X6457
X7684Y16933
X7841Y17485
X8228Y17244
X7913Y19291
X7362
X5288Y19020
X4259Y14374
X3112Y9365
X2561
X1700Y8863
X1739Y7878
X2448Y7209
X2999
X2335Y6558
Y6125
Y5451
Y5018
Y4344
X6064Y4351
Y5025
Y5458
X6064Y6137
Y6570
X7172Y6107
X7211Y5674
Y5162
X8117Y4138
X9692Y4374
X8981Y6049
X8756
X9456Y7209
X9369Y7800
X7605Y8075
X8032Y9169
Y9602
Y10276
Y10709
X9101Y20201
X9134Y22559
X7677Y22302
X7126Y22598
X5748Y23031
X4173Y22441
X4094Y21063
X5505Y21042
X5243Y20437
X5630Y26929
X8622Y27480
X9134Y27874
X9646Y27480
X7185Y31036
X6634
X10651Y22494
X19888Y22578
X19882Y21063
X21312Y21069
X20940Y20276
X21555Y23058
X22933Y22625
X23484Y22328
X24961Y22480
X24908Y20228
X24961Y27874
X25453Y27507
X24429
X21417Y26969
X22441Y31063
X22913
X26438Y22494
X35636Y22578
X35630Y21102
X37080Y21082
X36648Y20512
X37323Y23071
X38701Y22638
X39252Y22341
X40748Y22559
X40676Y20241
X40709Y27835
X40197Y27520
X37244Y26969
X38209Y31075
X38701Y31102
X41220Y27520
X42186Y22494
X51463Y22500
X51417Y21063
X52828Y21042
X52278Y20354
X53071Y23031
X54449Y22598
X55000Y22302
X56457Y22480
X56424Y20201
X56457Y27795
X55945Y27480
X52953Y26929
X53957Y31036
X54508
X56968Y27480
X57973Y22455
T02
X2205Y8465
X2677
X3189
X3228Y11378
X2677
X2087
T03
X25755Y8075
X25715Y8666
X25046
T04
X36841Y4485
X37841
X38841
X39841
X39341Y5485
X38341
X37341
X40341
T05
X3956Y1619
X4956
T06
X1150Y32540
X5150
X9248
X13248
X17348
X21348
X25447
X29447
X33546
X37546
X41645
X45645
X49744
X53744
X57843
X61843
Y36540
X57843
X53744
X49744
X45645
X41645
X37546
X33546
X29447
X25447
X21348
X17348
X13248
X9248
X5150
X1150
T07
X35541Y807
X41634
T08
X3150Y34036
X11248
X19348
X27447
X35546
X43645
X51744
X59843
T09
X36343Y1985
X40843
T10
X1378Y1378
X61614
X1378Y21850
X61614Y21850
M30
